<svg class="tuleap-svg" xmlns="http://www.w3.org/2000/svg" width="15" height="15" viewBox="0 0 20 18">
    <path fill-rule="evenodd" d="M5.83062744,7.00377993 C7.17296112,7.01042971 8.59619476,6.85144564 9.94428988,6.44873808 C11.5854919,5.95847261 12.9050626,5.16177307 13.8422072,4.00137458 C12.6488383,3.97293379 11.4449524,4.06523002 10.3015421,4.31852626 C8.37463364,4.74538847 6.84676862,5.58435283 5.7977298,6.91485124 C5.8091492,6.94427211 5.82011791,6.97391783 5.83062744,7.00377993 Z M5.82772211,9.00443696 C5.81133383,9.05057137 5.79384853,9.0961861 5.77529761,9.14124977 L6.03533877,9.19217133 C6.033824,9.1999068 6.02798987,9.23750244 6.02102939,9.30097391 C5.94598866,9.98525809 6.04037035,10.7913936 6.42969486,11.5372772 C6.82895917,12.3022039 7.49664445,12.921655 8.49542051,13.3480107 C9.03223061,12.5357914 9.95354492,12 11,12 C12.6568542,12 14,13.3431458 14,15 C14,16.6568542 12.6568542,18 11,18 C9.44424378,18 8.1650803,16.8157657 8.01476855,15.2995562 C6.42778472,14.6998972 5.31931412,13.7322072 4.6566888,12.4627228 C4.36799917,11.9096395 4.18612371,11.3475119 4.08794846,10.7966415 C3.75065349,10.9279506 3.38374077,11 3,11 C1.34314575,11 0,9.65685425 0,8 C0,6.34314575 1.34314575,5 3,5 C3.53265057,5 4.03287894,5.13881594 4.46648133,5.38224402 C5.79965592,3.83871897 7.64871454,2.85771267 9.86897491,2.36586508 C11.2771013,2.05392709 12.7357606,1.95509775 14.1672557,2.00981541 C14.576308,0.839498675 15.6901163,0 17,0 C18.6568542,0 20,1.34314575 20,3 C20,4.65685425 18.6568542,6 17,6 C16.3479415,6 15.7444712,5.79196921 15.2523381,5.4386566 C14.0661333,6.82690102 12.4508346,7.78730358 10.5167409,8.36506264 C8.95740294,8.83087338 7.34750428,9.01235237 5.82772211,9.00443696 Z"/>
</svg>
