<svg height="300pt" preserveAspectRatio="xMidYMid meet" viewBox="0 0 300 300" width="300pt" xmlns="http://www.w3.org/2000/svg"><path d="m2105 2946c-66-28-127-139-220-394l-52-144-43 86c-23 47-46 86-49 86-4 0-46-39-94-87-84-86-101-104-182-194-61-67-186-226-238-301l-46-68-63 93c-87 128-235 274-317 315-148 73-248 22-346-177-178-361-227-722-146-1071 89-385 367-727 761-939 82-44 230-96 299-105 41-5 43-5 30 13-219 307-279 455-279 691 0 41 2 86 5 100s8 39 11 55c9 53 45 148 80 212l34 62-87 47c-339 182-370 202-476 303-73 69-157 179-192 249-21 42-26 63-22 95 11 79 79 242 124 297s118 55 197 0c60-41 176-187 260-327l37-62-26-51c-49-97-105-232-100-240s201-120 210-120c2 0 31-16 64-35 32-19 63-35 68-35 4 0 18 15 31 34 25 37 141 159 187 196 184 150 485 427 485 446 0 4-29 62-65 130l-65 123 79 209c127 332 149 372 213 372 27 0 42-10 88-59 30-32 71-84 90-116 29-49 35-69 36-125 2-37-6-104-16-151-60-265-131-369-481-701-9-9-75-64-146-123-166-139-188-159-247-225-122-137-189-264-221-415-17-78-23-248-11-303 4-15 8-38 11-51 24-127 141-335 259-462l34-35 63 13c239 49 587 327 800 641 201 297 291 593 292 967 1 81-10 250-18 293-1 9-6 37-10 62s-9 56-12 70c-2 14-17 75-33 136-92 348-267 644-423 714-49 23-80 24-122 6z" transform="matrix(.1 0 0 -.1 0 300)"/></svg>