<svg class="tuleap-svg tuleap-svg-trackers" xmlns="http://www.w3.org/2000/svg" width="14" height="10" viewBox="0 0 14 10">
    <path fill-rule="evenodd" d="M18,17 L10,17 L10,17 C9.44771525,17 9,16.5522847 9,16 L9,16 L9,16 C9,15.4477153 9.44771525,15 10,15 L18,15 L18,15 C18.5522847,15 19,15.4477153 19,16 L19,16 L19,16 C19,16.5522847 18.5522847,17 18,17 Z M18,13 L10,13 L10,13 C9.44771525,13 9,12.5522847 9,12 L9,12 L9,12 C9,11.4477153 9.44771525,11 10,11 L18,11 L18,11 C18.5522847,11 19,11.4477153 19,12 L19,12 L19,12 C19,12.5522847 18.5522847,13 18,13 Z M18,9 L10,9 C9.44771525,9 9,8.55228475 9,8 L9,8 L9,8 C9,7.44771525 9.44771525,7 10,7 L18,7 C18.5522847,7 19,7.44771525 19,8 L19,8 C19,8.55228475 18.5522847,9 18,9 Z M6,7 L7,7 L7,7 C7.55228475,7 8,7.44771525 8,8 L8,8 C8,8.55228475 7.55228475,9 7,9 L6,9 C5.44771525,9 5,8.55228475 5,8 L5,8 L5,8 C5,7.44771525 5.44771525,7 6,7 L6,7 Z M6,11 L7,11 L7,11 C7.55228475,11 8,11.4477153 8,12 C8,12.5522847 7.55228475,13 7,13 L6,13 C5.44771525,13 5,12.5522847 5,12 C5,11.4477153 5.44771525,11 6,11 L6,11 Z M6,15 L7,15 L7,15 C7.55228475,15 8,15.4477153 8,16 C8,16.5522847 7.55228475,17 7,17 L6,17 C5.44771525,17 5,16.5522847 5,16 C5,15.4477153 5.44771525,15 6,15 L6,15 Z" transform="translate(-5 -7)"/>
</svg>
