<svg class="tuleap-svg tuleap-svg-trackers" xmlns="http://www.w3.org/2000/svg" width="25" height="19" viewBox="0 0 25 19">
    <path fill-rule="evenodd" d="M53.75,69.4375 L53.75,71.8125 C53.75,71.596029 53.7088709,71.6656084 53.75,71.8125 C53.5443518,71.783122 53.4469407,71.8125 53.75,71.8125 L37.125,71.8125 C37.4280593,71.8125 37.3306482,71.783122 37.125,71.8125 C37.1661291,71.6656084 37.125,71.596029 37.125,71.8125 L37.125,69.4375 C37.125,69.647786 37.1639645,69.5766604 37.125,69.4375 C37.3198246,69.4653318 37.4194004,69.4375 37.125,69.4375 L53.75,69.4375 C53.4469407,69.4375 53.5443518,69.466878 53.75,69.4375 C53.7088709,69.5843916 53.75,69.653971 53.75,69.4375 L53.75,69.4375 Z M53.75,64.6875 C53.5443518,64.658122 37.125,64.6875 37.125,64.6875 C37.1661291,64.5406084 37.125,62.3125 37.125,62.3125 C37.3198246,62.3403318 45.0427172,62.3125 48.2083333,62.3125 L53.75,62.3125 C53.7088709,62.4593916 53.75,64.6875 53.75,64.6875 Z M53.75,57.5625 C53.5443518,57.533122 37.125,57.5625 37.125,57.5625 C37.1661291,57.4156084 37.125,55.1875 37.125,55.1875 C37.3306482,55.216878 53.75,55.1875 53.75,55.1875 C53.7088709,55.3343916 53.75,57.5625 53.75,57.5625 Z M32.375,58.75 C31.0633237,58.75 30,57.6866763 30,56.375 C30,55.0633237 31.0633237,54 32.375,54 C33.6866763,54 34.75,55.0633237 34.75,56.375 C34.75,57.6866763 33.6866763,58.75 32.375,58.75 Z M32.375,65.875 C31.0633237,65.875 30,64.8116763 30,63.5 C30,62.1883237 31.0633237,61.125 32.375,61.125 C33.6866763,61.125 34.75,62.1883237 34.75,63.5 C34.75,64.8116763 33.6866763,65.875 32.375,65.875 Z M32.375,73 C31.0633237,73 30,71.9366763 30,70.625 C30,69.3133237 31.0633237,68.25 32.375,68.25 C33.6866763,68.25 34.75,69.3133237 34.75,70.625 C34.75,71.9366763 33.6866763,73 32.375,73 Z" transform="translate(-30 -54)"/>
</svg>
