<?xml version="1.0" standalone="no"?>
<!DOCTYPE svg PUBLIC "-//W3C//DTD SVG 20010904//EN"
 "http://www.w3.org/TR/2001/REC-SVG-20010904/DTD/svg10.dtd">
<svg version="1.0" xmlns="http://www.w3.org/2000/svg"
 width="270.000000pt" height="270.000000pt" viewBox="0 0 270.000000 270.000000"
 preserveAspectRatio="xMidYMid meet">
<metadata>
Created by potrace 1.11, written by Peter Selinger 2001-2013
</metadata>
<g transform="translate(0.000000,270.000000) scale(0.100000,-0.100000)"
fill="#000000" stroke="none">
<path d="M2006 2657 c-62 -62 -172 -262 -169 -308 1 -9 23 -62 49 -118 56
-121 48 -124 130 44 65 134 91 228 88 313 -2 61 -22 112 -44 112 -6 0 -30 -19
-54 -43z"/>
<path d="M2231 2470 c0 -119 -44 -244 -136 -385 -108 -165 -376 -451 -630
-670 -103 -88 -233 -220 -289 -294 -106 -138 -155 -276 -158 -445 -3 -201 91
-413 288 -653 27 -32 303 88 468 204 326 230 585 603 680 979 47 189 58 320
43 519 -7 93 -8 100 -33 225 -32 156 -130 409 -208 535 l-25 40 0 -55z"/>
<path d="M1529 2353 c-94 -70 -295 -276 -363 -371 -91 -129 -304 -514 -330
-597 -5 -17 13 -32 111 -95 64 -41 119 -76 122 -77 12 -6 741 728 741 745 0
31 -31 124 -66 197 -28 61 -121 213 -143 238 -5 4 -37 -14 -72 -40z"/>
<path d="M505 2111 c-40 -18 -95 -83 -115 -135 -22 -59 79 -251 192 -365 58
-59 135 -119 141 -110 20 35 177 357 177 363 0 15 -171 178 -222 213 -76 51
-118 59 -173 34z"/>
<path d="M231 1719 c-85 -188 -112 -382 -84 -599 48 -376 258 -708 572 -905
97 -60 271 -136 362 -159 27 -6 27 -5 -15 57 -57 88 -120 225 -152 332 -21 72
-27 115 -29 210 -3 141 18 244 78 368 l35 76 -91 52 c-173 97 -355 232 -432
318 -49 55 -124 161 -171 240 l-44 75 -29 -65z"/>
</g>
</svg>
