<svg class="tuleap-svg tuleap-svg-git" xmlns="http://www.w3.org/2000/svg" width="24" height="21" viewBox="0 0 24 21">
    <path fill-rule="evenodd" d="M12,10.8292943 L12,12.0829584 C11.6747915,12.0283988 11.3407122,12 11,12 C10.6592878,12 10.3252085,12.0283988 10,12.0829584 L10,10.8292943 C8.83480763,10.4174579 8,9.30621883 8,8 C8,6.34314575 9.34314575,5 11,5 C12.6568542,5 14,6.34314575 14,8 C14,9.30621883 13.1651924,10.4174579 12,10.8292943 Z M2,17.1707057 L2,7.82929429 C0.834807627,7.41745788 0,6.30621883 0,5 C0,3.34314575 1.34314575,2 3,2 C4.65685425,2 6,3.34314575 6,5 C6,6.31040245 5.15983628,7.42457415 3.98879403,7.83322991 L3.98879403,14.5 L6.68979713,13.826008 C5.92864182,14.611845 5.38047073,15.6052033 5.13835524,16.7130117 L3.98879403,17 L3.98879403,17.1667701 C5.15983628,17.5754258 6,18.6895975 6,20 C6,21.6568542 4.65685425,23 3,23 C1.34314575,23 0,21.6568542 0,20 C0,18.6937812 0.834807627,17.5825421 2,17.1707057 Z M4.5,20 C4.5,19.171875 3.828125,18.5 3,18.5 C2.171875,18.5 1.5,19.171875 1.5,20 C1.5,20.828125 2.171875,21.5 3,21.5 C3.828125,21.5 4.5,20.828125 4.5,20 Z M4.5,5 C4.5,4.171875 3.828125,3.5 3,3.5 C2.171875,3.5 1.5,4.171875 1.5,5 C1.5,5.828125 2.171875,6.5 3,6.5 C3.828125,6.5 4.5,5.828125 4.5,5 Z M12.5,8 C12.5,7.171875 11.828125,6.5 11,6.5 C10.171875,6.5 9.5,7.171875 9.5,8 C9.5,8.828125 10.171875,9.5 11,9.5 C11.828125,9.5 12.5,8.828125 12.5,8 Z M11.1386861,21 C8.8649635,21 7,19.694362 7,17.0593472 C7,14.4718101 8.91605839,13 11.189781,13 C12.3649635,13 13.2591241,13.4747774 13.8467153,14.0207715 L12.6459854,15.2789318 C12.2372263,14.9465875 11.879562,14.7566766 11.2153285,14.7566766 C10.0912409,14.7566766 9.24817518,15.5875371 9.24817518,16.9881306 C9.24817518,18.4362018 9.9379562,19.2433234 11.419708,19.2433234 C11.649635,19.2433234 11.9051095,19.1958457 12.0583942,19.1008902 L12.0583942,18.0326409 L10.8321168,18.0326409 L10.8321168,16.3709199 L14,16.3709199 L14,20.0504451 C13.3868613,20.5727003 12.3138686,21 11.1386861,21 Z M15,21 L15,13 L17,13 L17,21 L15,21 Z M20,21 L20,14.7723077 L18,14.7723077 L18,13 L24,13 L24,14.7723077 L22,14.7723077 L22,21 L20,21 Z" transform="translate(0 -2)"/>
</svg>
