<svg class="tuleap-svg tuleap-svg-git" xmlns="http://www.w3.org/2000/svg" width="11" height="17" viewBox="0 0 11 17">
    <path fill-rule="evenodd" d="M18.8849998,7.94999993 C18.8849998,8.67109365 18.4889061,9.30078113 17.9099998,9.63593737 C17.8795311,13.3023435 14.794531,13.6545714 13.0679686,14.2030088 C11.4531249,14.7108213 10.9249999,15.3867187 10.9249999,16.3718749 L10.9249999,16.6359374 C11.5039061,16.9710936 11.8999999,17.6007811 11.8999999,18.3218748 C11.8999999,19.3984373 11.0265624,20.2718747 9.94999993,20.2718747 C8.87343747,20.2718747 8,19.3984373 8,18.3218748 C8,17.6007811 8.42109377,16.9710936 9,16.6359374 L9,7.63593737 C8.42109377,7.30078113 8,6.67109365 8,5.94999993 C8,4.87343747 8.87343747,4 9.94999993,4 C11.0265624,4 11.8999999,4.87343747 11.8999999,5.94999993 C11.8999999,6.67109365 11.5789062,7.30078113 11,7.63593737 L11,12.9233214 C11.5179687,12.6694152 11.9914061,12.4967589 12.4890623,12.3444152 C14.3781248,11.7451964 15.9396874,11.7585935 15.9599999,9.63593737 C15.3810937,9.30078113 14.985,8.67109365 14.985,7.94999993 C14.985,6.87343747 15.8584374,6 16.9349999,6 C18.0115623,6 18.8849998,6.87343747 18.8849998,7.94999993 Z M10.9099998,18.3359381 C10.9099998,17.7838548 10.4620832,17.3359381 9.90999985,17.3359381 C9.35791651,17.3359381 8.90999985,17.7838548 8.90999985,18.3359381 C8.90999985,18.8880215 9.35791651,19.3359381 9.90999985,19.3359381 C10.4620832,19.3359381 10.9099998,18.8880215 10.9099998,18.3359381 Z M10.9099998,6 C10.9099998,5.44791667 10.4620832,5 9.90999985,5 C9.35791651,5 8.90999985,5.44791667 8.90999985,6 C8.90999985,6.55208333 9.35791651,7 9.90999985,7 C10.4620832,7 10.9099998,6.55208333 10.9099998,6 Z M17.9099998,7.92880054 C17.9099998,7.37671721 17.4620832,6.92880054 16.9099998,6.92880054 C16.3579165,6.92880054 15.9099998,7.37671721 15.9099998,7.92880054 C15.9099998,8.48088388 16.3579165,8.92880054 16.9099998,8.92880054 C17.4620832,8.92880054 17.9099998,8.48088388 17.9099998,7.92880054 Z" transform="translate(-8 -4)"/>
</svg>
