<svg width="96" height="96" viewBox="0 0 96 96" fill="none" xmlns="http://www.w3.org/2000/svg">
<path opacity="0.4" fill-rule="evenodd" clip-rule="evenodd" d="M48 57C58.4934 57 67 48.4934 67 38C67 27.5066 58.4934 19 48 19C37.5066 19 29 27.5066 29 38C29 48.4934 37.5066 57 48 57ZM37.7492 60.338C29.984 58.0541 22.0053 63.2115 20.8994 71.2297L17.3249 97.1444C16.0958 106.056 23.0197 114 32.0152 114H64.9848C73.9804 114 80.9042 106.056 79.6751 97.1443L76.1007 71.2297C74.9947 63.2115 67.0161 58.0541 59.2508 60.338C52.2323 62.4023 44.7678 62.4023 37.7492 60.338Z" fill="#293E45"/>
</svg>
