<svg width="11" height="11" viewBox="0 0 11 11" fill="none" xmlns="http://www.w3.org/2000/svg">
<path d="M9.86328 8.90234L7.91016 6.94922C7.8125 6.87109 7.69531 6.8125 7.57812 6.8125H7.26562C7.79297 6.12891 8.125 5.26953 8.125 4.3125C8.125 2.08594 6.28906 0.25 4.0625 0.25C1.81641 0.25 0 2.08594 0 4.3125C0 6.55859 1.81641 8.375 4.0625 8.375C5 8.375 5.85938 8.0625 6.5625 7.51562V7.84766C6.5625 7.96484 6.60156 8.08203 6.69922 8.17969L8.63281 10.1133C8.82812 10.3086 9.12109 10.3086 9.29688 10.1133L9.84375 9.56641C10.0391 9.39062 10.0391 9.09766 9.86328 8.90234ZM4.0625 6.8125C2.67578 6.8125 1.5625 5.69922 1.5625 4.3125C1.5625 2.94531 2.67578 1.8125 4.0625 1.8125C5.42969 1.8125 6.5625 2.94531 6.5625 4.3125C6.5625 5.69922 5.42969 6.8125 4.0625 6.8125Z" fill="#696969"/>
</svg>
