<?xml version="1.0" encoding="UTF-8" standalone="no"?>
<svg width="20px" height="19px" viewBox="0 0 20 19" version="1.1" xmlns="http://www.w3.org/2000/svg" xmlns:xlink="http://www.w3.org/1999/xlink" xmlns:sketch="http://www.bohemiancoding.com/sketch/ns">
    <!-- Generator: Sketch 3.3.3 (12081) - http://www.bohemiancoding.com/sketch -->
    <title>graph</title>
    <desc>Created with Sketch.</desc>
    <defs></defs>
    <g id="Page-1" stroke="none" stroke-width="1" fill="none" fill-rule="evenodd" sketch:type="MSPage">
        <g id="test-execution" sketch:type="MSArtboardGroup" transform="translate(-1189.000000, -147.000000)">
            <g id="graph" sketch:type="MSLayerGroup" transform="translate(1189.000000, 147.000000)">
                <path d="M16.9230769,6.15384615 C18.6224146,6.15384615 20,4.77626077 20,3.07692308 C20,1.37758539 18.6224146,0 16.9230769,0 C15.2237392,0 13.8461538,1.37758539 13.8461538,3.07692308 C13.8461538,4.77626077 15.2237392,6.15384615 16.9230769,6.15384615 Z M3.07692308,11.5384615 C4.77626077,11.5384615 6.15384615,10.1608762 6.15384615,8.46153846 C6.15384615,6.76220077 4.77626077,5.38461538 3.07692308,5.38461538 C1.37758539,5.38461538 0,6.76220077 0,8.46153846 C0,10.1608762 1.37758539,11.5384615 3.07692308,11.5384615 Z M11.5384615,18.4615385 C13.2377992,18.4615385 14.6153846,17.0839531 14.6153846,15.3846154 C14.6153846,13.6852777 13.2377992,12.3076923 11.5384615,12.3076923 C9.83912385,12.3076923 8.46153846,13.6852777 8.46153846,15.3846154 C8.46153846,17.0839531 9.83912385,18.4615385 11.5384615,18.4615385 Z" id="Oval-9" fill="#000000" sketch:type="MSShapeGroup"></path>
                <path d="M4.70465244,9.0635016 C4.70465244,9.0635016 3.42260165,14.9951169 13.051257,14.7671274" id="Path" stroke="#000000" stroke-width="2" sketch:type="MSShapeGroup"></path>
                <path d="M4.28222656,7.95898438 C7.22180495,0.947390764 17.0868389,3.19360978 17.0868389,3.19360978" id="Path-505" stroke="#000000" stroke-width="2" sketch:type="MSShapeGroup"></path>
                <path d="M16.839884,2.282377 C14.5225923,9.52349052 4.49932682,8.14561342 4.49932682,8.14561342" id="Path-505-Copy" stroke="#000000" stroke-width="2" sketch:type="MSShapeGroup"></path>
            </g>
        </g>
    </g>
</svg>