<svg xmlns="http://www.w3.org/2000/svg" fill="none" viewBox="0 0 64 75" height="75" width="64">
    <path d="M36.3102 42.5488C35.1485 43.6304 31.301 47.0657 31.3024 47.0644C29.6944 48.5237 28.6393 49.5648 27.9006 50.4664C27.8575 50.4445 21.641 47.0376 21.138 46.7118C21.5788 45.6488 22.1705 44.2433 22.5938 43.3188C23.3529 41.6604 24.7854 39.1165 24.7854 39.1165C24.7854 39.1165 23.4892 37.1265 21.8624 34.9153C20.2356 32.7042 17.9582 30.7141 15.7891 30.7141C13.6201 30.7141 11.7487 35.8008 11.7487 35.8008C11.7487 35.8008 11.5318 39.2281 14.3515 42.8765C16.9868 46.2863 20.0957 47.9578 20.4911 48.1619C20.991 48.4613 26.7106 51.5903 26.9845 51.7301C24.3505 55.8083 23.6697 61.1791 24.7854 65.7286C24.9936 66.5774 25.3467 67.5078 25.826 68.5099C26.2707 69.44 26.8165 70.416 27.4412 71.4201C28.0546 72.4061 28.7106 73.3665 29.3667 74.2642C29.561 74.5301 29.7437 74.7744 29.9115 74.9945C26.3519 74.6596 23.1582 72.846 21.0754 71.511C6.75992 62.3347 4.8356 45.6394 12.2103 32.2619C17.0116 23.5525 25.4135 38.1226 25.4135 38.1226C25.4135 38.1226 28.8839 32.3736 36.1501 25.2979C36.7687 26.2575 37.2346 27.3985 37.9143 28.7959C40.9498 19.8795 42.1154 18.0596 44.067 18.0011C49.4581 17.8394 58.1657 36.022 53.8276 52.6056C50.9179 63.7289 39.0757 74.2015 31.901 75C31.3024 74.2642 30.8063 73.6433 30.5843 73.3395C29.9495 72.471 29.3147 71.5417 28.7234 70.5911C28.127 69.6326 27.6085 68.7054 27.1907 67.8317C26.7544 66.9193 26.4381 66.0859 26.2584 65.3532C25.1626 60.8847 25.9729 55.5155 28.8333 51.753C29.5051 50.8692 30.5661 49.8049 32.312 48.2205C32.3001 48.2313 36.1586 44.7863 37.3342 43.6916C42.5086 38.8738 45.5474 35.0189 46.6418 31.0344C48.147 26.2857 48.1353 22.5329 47.6737 21.8695C47.6737 21.8695 45.5854 18.9961 44.1755 19.1066C42.7656 19.2172 41.492 22.0906 41.2751 22.6434C41.0582 23.1962 40.0822 25.739 38.5638 29.8297C38.8027 30.3776 39.5841 32.3843 40.3797 34.3636C40.7493 35.2831 41.1147 36.3347 41.4238 37.2351C40.0652 38.8857 38.3647 40.6359 36.3102 42.5488Z" clip-rule="evenodd" fill-rule="evenodd" class="project-registration-template-card-svg"></path>
    <path stroke-linecap="round" stroke-width="4" class="project-registration-template-card-svg-stroke" d="M31.9998 2V4"></path>
    <path stroke-linecap="round" stroke-width="4" class="project-registration-template-card-svg-stroke" d="M60.4626 18L58.7306 19"></path>
    <path stroke-linecap="round" stroke-width="4" class="project-registration-template-card-svg-stroke" d="M4.73071 19L2.99866 18"></path>
    <path stroke-linecap="round" stroke-width="4" class="project-registration-template-card-svg-stroke" d="M16.4705 9L15.3327 7.35518"></path>
    <path stroke-linecap="round" stroke-width="4" class="project-registration-template-card-svg-stroke" d="M48.6082 7L47.4704 8.64482"></path>
</svg>
