<svg xmlns="http://www.w3.org/2000/svg" fill="none" viewBox="0 0 75 66" height="66" width="75">
    <path class="project-registration-template-card-svg" d="M4.53144 0.151425C4.96189 0.0523335 5.40796 0 5.86173 0H7.41943C8.24785 0 8.91943 0.671573 8.91943 1.5C8.91943 2.32843 8.24785 3 7.41943 3H5.86173C5.63876 3 5.4184 3.02571 5.20446 3.07496C4.39715 3.26081 3.59203 2.75701 3.40618 1.9497C3.22034 1.14239 3.72413 0.337273 4.53144 0.151425ZM13.1887 1.5C13.1887 0.671573 13.8602 0 14.6887 0H17.804C18.6325 0 19.304 0.671573 19.304 1.5C19.304 2.32843 18.6325 3 17.804 3H14.6887C13.8602 3 13.1887 2.32843 13.1887 1.5ZM23.5733 1.5C23.5733 0.671573 24.2448 0 25.0733 0H28.1887C29.0171 0 29.6887 0.671573 29.6887 1.5C29.6887 2.32843 29.0171 3 28.1887 3H25.0733C24.2448 3 23.5733 2.32843 23.5733 1.5ZM33.9579 1.5C33.9579 0.671573 34.6295 0 35.4579 0H38.5733C39.4017 0 40.0733 0.671573 40.0733 1.5C40.0733 2.32843 39.4017 3 38.5733 3H35.4579C34.6295 3 33.9579 2.32843 33.9579 1.5ZM44.3425 1.5C44.3425 0.671573 45.0141 0 45.8425 0H48.9579C49.7863 0 50.4579 0.671573 50.4579 1.5C50.4579 2.32843 49.7863 3 48.9579 3H45.8425C45.0141 3 44.3425 2.32843 44.3425 1.5ZM54.7271 1.5C54.7271 0.671573 55.3987 0 56.2271 0H59.3425C60.1709 0 60.8425 0.671573 60.8425 1.5C60.8425 2.32843 60.1709 3 59.3425 3H56.2271C55.3987 3 54.7271 2.32843 54.7271 1.5ZM65.1117 1.5C65.1117 0.671573 65.7833 0 66.6117 0H68.1694C68.6232 0 69.0693 0.0523331 69.4997 0.151424C70.307 0.337272 70.8108 1.14239 70.625 1.9497C70.4391 2.75701 69.634 3.26081 68.8267 3.07496C68.6127 3.02571 68.3924 3 68.1694 3H66.6117C65.7833 3 65.1117 2.32843 65.1117 1.5ZM2.01038 3.22109C2.81306 3.42601 3.29764 4.24283 3.09272 5.04552C3.04282 5.24095 3.01558 5.44827 3.01558 5.66667V6.81667C3.01558 7.64509 2.344 8.31667 1.51558 8.31667C0.687148 8.31667 0.0155754 7.64509 0.0155754 6.81667V5.66667C0.0155754 5.1965 0.0745133 4.73993 0.185949 4.30343C0.39087 3.50075 1.20769 3.01617 2.01038 3.22109ZM72.0208 3.22109C72.8235 3.01617 73.6403 3.50075 73.8452 4.30343C73.9566 4.73993 74.0156 5.1965 74.0156 5.66667V6.81667C74.0156 7.64509 73.344 8.31667 72.5156 8.31667C71.6871 8.31667 71.0156 7.64509 71.0156 6.81667V5.66667C71.0156 5.44827 70.9883 5.24095 70.9384 5.04552C70.7335 4.24283 71.2181 3.42601 72.0208 3.22109ZM1.51558 10.6833C2.344 10.6833 3.01558 11.3549 3.01558 12.1833V13.3333C3.01558 13.562 3.01053 13.8199 3.00606 14.048C3.00342 14.183 3.00099 14.3075 2.99992 14.4093C2.99124 15.2377 2.31267 15.9022 1.48429 15.8935C0.655911 15.8848 -0.00859158 15.2063 8.39915e-05 14.3779C0.00184133 14.2101 0.00486496 14.0648 0.00777705 13.9248L0.00777728 13.9248C0.0117818 13.7323 0.0155754 13.55 0.0155754 13.3333V12.1833C0.0155754 11.3549 0.687148 10.6833 1.51558 10.6833ZM72.5156 10.6833C73.344 10.6833 74.0156 11.3549 74.0156 12.1833V13.3333C74.0156 13.55 74.0194 13.7323 74.0234 13.9248C74.0263 14.0648 74.0293 14.2101 74.0311 14.3779C74.0397 15.2063 73.3752 15.8848 72.5469 15.8935C71.7185 15.9022 71.0399 15.2377 71.0312 14.4093C71.0302 14.3075 71.0277 14.1829 71.0251 14.048L71.0251 14.0474C71.0206 13.8194 71.0156 13.5618 71.0156 13.3333V12.1833C71.0156 11.3549 71.6871 10.6833 72.5156 10.6833ZM2.95902 17.3378C3.02674 16.5121 3.75096 15.8977 4.57661 15.9654C4.84793 15.9877 5.15909 16 5.51558 16H5.90848C6.73691 16 7.40848 16.6716 7.40848 17.5C7.40848 17.8901 7.2596 18.2453 7.01558 18.5121V19.107C7.01558 19.9354 6.344 20.607 5.51558 20.607C4.68715 20.607 4.01558 19.9354 4.01558 19.107V18.9146C3.89495 18.872 3.78141 18.8144 3.67719 18.744C3.20646 18.4586 2.91097 17.9237 2.95902 17.3378ZM70.355 18.7434C70.8251 18.4578 71.1201 17.9233 71.0721 17.3378C71.0044 16.5121 70.2802 15.8977 69.4545 15.9654C69.1832 15.9877 68.8721 16 68.5156 16H68.1228C67.2943 16 66.6228 16.6716 66.6228 17.5C66.6228 17.89 66.7716 18.2452 67.0156 18.512V19.107C67.0156 19.9354 67.6871 20.607 68.5156 20.607C69.344 20.607 70.0156 19.9354 70.0156 19.107V18.9147C70.1366 18.8719 70.2505 18.814 70.355 18.7434ZM68.5156 25.1062C69.344 25.1062 70.0156 25.7778 70.0156 26.6062V29.8202C70.0156 30.6486 69.344 31.3202 68.5156 31.3202C67.6871 31.3202 67.0156 30.6486 67.0156 29.8202V26.6062C67.0156 25.7778 67.6871 25.1062 68.5156 25.1062ZM5.51558 25.1062C6.344 25.1062 7.01558 25.7778 7.01558 26.6062V29.8202C7.01558 30.6486 6.344 31.3202 5.51558 31.3202C4.68715 31.3202 4.01558 30.6486 4.01558 29.8202V26.6062C4.01558 25.7778 4.68715 25.1062 5.51558 25.1062ZM68.5156 35.8195C69.344 35.8195 70.0156 36.4911 70.0156 37.3195V40.5335C70.0156 41.3619 69.344 42.0335 68.5156 42.0335C67.6871 42.0335 67.0156 41.3619 67.0156 40.5335V37.3195C67.0156 36.4911 67.6871 35.8195 68.5156 35.8195ZM5.51558 35.8195C6.344 35.8195 7.01558 36.4911 7.01558 37.3195V40.5335C7.01558 41.3619 6.344 42.0335 5.51558 42.0335C4.68715 42.0335 4.01558 41.3619 4.01558 40.5335V37.3195C4.01558 36.4911 4.68715 35.8195 5.51558 35.8195ZM5.51558 46.5327C6.344 46.5327 7.01558 47.2043 7.01558 48.0327V51.2467C7.01558 52.0751 6.344 52.7467 5.51558 52.7467C4.68715 52.7467 4.01558 52.0751 4.01558 51.2467V48.0327C4.01558 47.2043 4.68715 46.5327 5.51558 46.5327ZM68.5156 46.5327C69.344 46.5327 70.0156 47.2043 70.0156 48.0327V51.2467C70.0156 52.0751 69.344 52.7467 68.5156 52.7467C67.6871 52.7467 67.0156 52.0751 67.0156 51.2467V48.0327C67.0156 47.2043 67.6871 46.5327 68.5156 46.5327ZM68.5156 57.2459C69.344 57.2459 70.0156 57.9175 70.0156 58.7459V60.3529C70.0156 60.8005 69.9626 61.2388 69.8623 61.6603C69.6705 62.4663 68.8617 62.9641 68.0558 62.7724C67.2499 62.5806 66.752 61.7719 66.9437 60.9659C66.9907 60.7685 67.0156 60.5632 67.0156 60.3529V58.7459C67.0156 57.9175 67.6871 57.2459 68.5156 57.2459ZM5.51558 57.246C6.344 57.246 7.01558 57.9175 7.01558 58.746V60.3529C7.01558 60.5632 7.04044 60.7685 7.08743 60.9659C7.27918 61.7719 6.78129 62.5806 5.97536 62.7724C5.16943 62.9641 4.36065 62.4663 4.1689 61.6603C4.06859 61.2388 4.01558 60.8005 4.01558 60.3529V58.746C4.01558 57.9175 4.68715 57.246 5.51558 57.246ZM7.18303 64.024C7.3817 63.2198 8.19472 62.7288 8.99898 62.9275C9.18965 62.9746 9.39015 63 9.59891 63H11.2439C12.0723 63 12.7439 63.6716 12.7439 64.5C12.7439 65.3284 12.0723 66 11.2439 66H9.59891C9.14534 66 8.70332 65.9447 8.27954 65.84C7.47529 65.6413 6.98436 64.8283 7.18303 64.024ZM66.8481 64.024C67.0468 64.8283 66.5559 65.6413 65.7516 65.84C65.3278 65.9447 64.8858 66 64.4323 66H62.7872C61.9588 66 61.2872 65.3284 61.2872 64.5C61.2872 63.6716 61.9588 63 62.7872 63H64.4323C64.641 63 64.8415 62.9746 65.0322 62.9275C65.8364 62.7288 66.6495 63.2198 66.8481 64.024ZM17.4206 64.5C17.4206 63.6716 18.0921 63 18.9206 63H22.2106C23.039 63 23.7106 63.6716 23.7106 64.5C23.7106 65.3284 23.039 66 22.2106 66H18.9206C18.0921 66 17.4206 65.3284 17.4206 64.5ZM28.3872 64.5C28.3872 63.6716 29.0588 63 29.8872 63H33.1772C34.0057 63 34.6772 63.6716 34.6772 64.5C34.6772 65.3284 34.0057 66 33.1772 66H29.8872C29.0588 66 28.3872 65.3284 28.3872 64.5ZM39.3539 64.5C39.3539 63.6716 40.0255 63 40.8539 63H44.1439C44.9723 63 45.6439 63.6716 45.6439 64.5C45.6439 65.3284 44.9723 66 44.1439 66H40.8539C40.0255 66 39.3539 65.3284 39.3539 64.5ZM50.3206 64.5C50.3206 63.6716 50.9921 63 51.8206 63H55.1106C55.939 63 56.6106 63.6716 56.6106 64.5C56.6106 65.3284 55.939 66 55.1106 66H51.8206C50.9921 66 50.3206 65.3284 50.3206 64.5ZM31.5404 25C29.019 25 27.0156 27.1355 27.0156 29.6471C27.0156 32.1587 29.019 34.2941 31.5404 34.2941H42.9909C45.5123 34.2941 47.5156 32.1587 47.5156 29.6471C47.5156 27.1355 45.5123 25 42.9909 25H31.5404ZM30.34 29.6471C30.34 28.9144 30.9309 28.3617 31.5404 28.3617H42.9909C43.6004 28.3617 44.1913 28.9144 44.1913 29.6471C44.1913 30.3797 43.6004 30.9324 42.9909 30.9324H31.5404C30.9309 30.9324 30.34 30.3798 30.34 29.6471ZM12.4085 16C11.5801 16 10.9085 16.6716 10.9085 17.5C10.9085 18.3284 11.5801 19 12.4085 19H15.1942C16.0226 19 16.6942 18.3284 16.6942 17.5C16.6942 16.6716 16.0226 16 15.1942 16H12.4085ZM21.6942 16C20.8658 16 20.1942 16.6716 20.1942 17.5C20.1942 18.3284 20.8658 19 21.6942 19H24.4799C25.3083 19 25.9799 18.3284 25.9799 17.5C25.9799 16.6716 25.3083 16 24.4799 16H21.6942ZM30.9799 16C30.1515 16 29.4799 16.6716 29.4799 17.5C29.4799 18.3284 30.1515 19 30.9799 19H33.7656C34.5941 19 35.2656 18.3284 35.2656 17.5C35.2656 16.6716 34.5941 16 33.7656 16H30.9799ZM40.2656 16C39.4372 16 38.7656 16.6716 38.7656 17.5C38.7656 18.3284 39.4372 19 40.2656 19H43.0513C43.8798 19 44.5513 18.3284 44.5513 17.5C44.5513 16.6716 43.8798 16 43.0513 16H40.2656ZM49.5513 16C48.7229 16 48.0513 16.6716 48.0513 17.5C48.0513 18.3284 48.7229 19 49.5513 19H52.3371C53.1655 19 53.8371 18.3284 53.8371 17.5C53.8371 16.6716 53.1655 16 52.3371 16H49.5513ZM58.8371 16C58.0086 16 57.3371 16.6716 57.3371 17.5C57.3371 18.3284 58.0086 19 58.8371 19H61.6228C62.4512 19 63.1228 18.3284 63.1228 17.5C63.1228 16.6716 62.4512 16 61.6228 16H58.8371Z" clip-rule="evenodd" fill-rule="evenodd"></path>
</svg>
