<svg width="77" height="53" viewBox="0 0 77 53" fill="none" xmlns="http://www.w3.org/2000/svg">
    <path class="project-registration-template-card-svg" fill-rule="evenodd" clip-rule="evenodd" d="M4.05263 0H72.9474C75.1856 0 77 1.8253 77 4.07692V48.9231C77 51.1747 75.1856 53 72.9474 53H4.05263C1.81442 53 0 51.1747 0 48.9231V4.07692C0 1.8253 1.81442 0 4.05263 0ZM4.05263 9.51282V48.9231H72.9474V9.51282H4.05263ZM24.3158 9.51282H28.3684V21.7436H24.3158V9.51282ZM24.3158 31.2564H28.3684V48.9231H24.3158V31.2564ZM48.6316 9.51282H52.6842V48.9231H48.6316V9.51282ZM8.10526 13.5897H20.2632V19.0256H8.10526V13.5897ZM32.4211 13.5897H44.5789V19.0256H32.4211V13.5897ZM8.10526 23.1026H20.2632V28.5385H8.10526V23.1026ZM8.10526 32.6154H20.2632V38.0513H8.10526V32.6154ZM24.3158 24.2865L36.208 21.7436L37.3315 27.0607L25.4392 29.6036L24.3158 24.2865ZM56.7368 13.5897H68.8947V19.0256H56.7368V13.5897ZM56.7368 23.1026H68.8947V28.5385H56.7368V23.1026Z"/>
</svg>
