<svg xmlns="http://www.w3.org/2000/svg" fill="none" viewBox="0 0 97 66" height="66" width="97">
    <path class="project-registration-template-card-svg" d="M18.638 41.3843L23.4744 38.5714L22.7986 52.8209L10.2105 46.2857L14.2064 43.9617C12.1482 39.7927 11.0614 35.1864 11.0614 30.4286C11.0614 13.6233 24.5852 0 41.2675 0C57.9499 0 71.4737 13.6233 71.4737 30.4286C71.4737 45.3308 60.8393 57.731 46.7982 60.3482H42.5308L2.13401 60.0175C0.952613 60.0078 0 59.0474 0 57.8659C0 56.6776 0.963316 55.7143 2.15163 55.7143H41.2675C55.1304 55.7143 66.3684 44.3935 66.3684 30.4286C66.3684 16.4637 55.1304 5.14286 41.2675 5.14286C27.4047 5.14286 16.1667 16.4637 16.1667 30.4286C16.1667 34.2778 17.0195 37.9989 18.638 41.3843ZM85.0877 55.7143V50.5714L97 58.2857L85.0877 66V60.8571H64.6667V55.7143H85.0877Z" clip-rule="evenodd" fill-rule="evenodd"></path>
</svg>
