<svg xmlns="http://www.w3.org/2000/svg" width="19" height="20">
    <svg xmlns="http://www.w3.org/2000/svg" width="19" height="20" fill="none" viewBox="0 0 19 20">
        <path fill="#74418c" fill-rule="evenodd" d="M10.51 3.616c-1.362 1.9-2.197 3.474-2.76 5.746-.066.265-.127.53-.181.796-1.403-1.121-2.35-2.188-2.986-3.135.054-.263.119-.524.187-.79.327-1.24.676-1.97 1.25-3.07.06-.107.113-.211.17-.313a14.043 14.043 0 0 1 .437-.728c.222-.346.456-.666.692-.95A.953.953 0 0 1 8.055.83c.036 0 .073.004.108.007.026 0 .05.007.075.012.033.002.06.014.093.02a.432.432 0 0 1 .087.034.879.879 0 0 1 .323.211c.028.029.053.06.08.088.128.164.273.348.422.552.054.074.108.145.162.223.154.211.315.437.481.674a27.226 27.226 0 0 1 .624.965ZM7.907 19.95C3.204 19.419.775 15.509.251 12.834c-.388-1.992-.248-5.096.84-7.183a.693.693 0 0 1 .923-.306.689.689 0 0 1 .362.422c.173.55.459 1.23.931 2.001.25.404.552.83.915 1.279.724.896 1.702 1.864 3.011 2.852-.02.157-.042.313-.058.47a19.573 19.573 0 0 0 .536 7.085c.046.176.114.34.196.491v.005ZM17.944 11.37a7.498 7.498 0 0 1-.068.41l-.012.067c-.021.097-.04.196-.066.294-.035.156-.072.313-.112.464-.005.008-.005.015-.007.022a10.87 10.87 0 0 1-.381 1.152c-.035.095-.075.185-.115.278a10.01 10.01 0 0 1-.392.83c-.075.142-.155.284-.237.426-.053.09-.107.183-.166.27-.082.131-.166.26-.255.387-.06.09-.126.183-.189.27a5.053 5.053 0 0 1-.236.309c-.08.102-.162.204-.248.301a10.05 10.05 0 0 1-.255.292c-.075.083-.15.163-.23.24-.072.073-.14.144-.212.21a2.129 2.129 0 0 1-.021.022c-.002.004-.007.007-.012.011a5.344 5.344 0 0 1-.215.197c-.072.069-.142.13-.215.192l-.054.043c-.082.074-.166.138-.25.204-.12.095-.24.185-.367.273l-.042.033a6.57 6.57 0 0 1-.316.21 1.41 1.41 0 0 1-.075.053c-.065.036-.126.076-.19.116-.065.036-.125.074-.186.105a5.56 5.56 0 0 1-.309.163c-.1.055-.206.102-.309.15-.053.021-.105.047-.159.068a1.325 1.325 0 0 1-.159.067 7.253 7.253 0 0 1-1.61.448 1.063 1.063 0 0 1-.319-.002c-.026-.005-.054-.012-.082-.02-.025-.006-.054-.014-.08-.026-.025-.007-.053-.018-.079-.028a.488.488 0 0 1-.107-.06.513.513 0 0 1-.133-.088c-.022-.018-.043-.04-.061-.058-.028-.022-.054-.052-.08-.08-.026-.03-.047-.063-.068-.091a.727.727 0 0 1-.082-.152.85.85 0 0 1-.06-.168c-.05-.19-.096-.38-.14-.572a9.629 9.629 0 0 1-.097-.45c-.02-.11-.042-.218-.065-.332-.042-.233-.08-.47-.115-.707a.512.512 0 0 1-.014-.083.342.342 0 0 1-.007-.069 3.075 3.075 0 0 1-.032-.25c-.007-.022-.007-.048-.012-.07a18.12 18.12 0 0 1-.054-.505c-.012-.128-.026-.253-.033-.381 0-.029-.004-.055-.004-.081-.003-.033-.007-.066-.007-.097v-.005a18.693 18.693 0 0 1-.037-1.155v-.019c0-.088 0-.182.004-.27 0-.095.005-.183.007-.273-.005-.033 0-.066 0-.097.014-.36.04-.723.075-1.089l.011-.075c.005-.053.012-.102.014-.15.005-.05.012-.097.02-.15.01-.101.025-.203.039-.3.005-.027.007-.055.012-.081.018-.138.04-.277.065-.415.005-.036.012-.069.019-.104.026-.145.049-.287.08-.43.032-.16.065-.32.1-.481l.019-.076c.025-.095.046-.192.072-.291.04-.152.08-.306.122-.458a27.202 27.202 0 0 1 .187-.621c.02-.074.047-.145.072-.216.035-.107.073-.211.108-.318.035-.095.072-.192.107-.292l.122-.308v-.005c.007-.021.019-.042.028-.066.035-.095.08-.19.12-.285.058-.137.119-.272.182-.407.026-.053.049-.107.075-.162.025-.05.046-.106.074-.161.101-.211.208-.422.323-.633.054-.107.115-.211.173-.318.012-.019.019-.033.028-.05l.021-.04c.059-.097.12-.204.18-.301.054-.09.108-.183.166-.273l.16-.251c.065-.095.126-.19.189-.285.005-.005.005-.007.007-.012a20.062 20.062 0 0 1 .7-.97 23.44 23.44 0 0 1 .7-.848 13.8 13.8 0 0 1 .506-.553l.025-.026.054-.055a.068.068 0 0 1 .026-.026c.012-.012.019-.021.028-.028.026-.026.052-.05.075-.08.075-.081.15-.157.234-.238.121-.12.248-.24.374-.36.1-.09.213-.162.327-.209.035-.012.075-.021.113-.033h.007s.011-.005.018-.005a.748.748 0 0 1 .136-.026c.014-.002.033-.007.047-.002a1.069 1.069 0 0 1 .442.075c.032.015.067.029.1.048a1.027 1.027 0 0 1 .414.413c1.518 2.736 2.629 6.234 2.14 9.627l-.01.012Z" clip-rule="evenodd"/>
    </svg>
    <style>
        @media (prefers-color-scheme:light){:root{filter:none}}@media (prefers-color-scheme:dark){:root{filter:none}}
    </style>
</svg>
