<svg xmlns="http://www.w3.org/2000/svg" width="214" height="112" viewBox="0 0 214 112">
    <path fill="#FFF" fill-rule="evenodd" d="M954.180297,965 C954.788427,965 955.396556,965.202945 955.852653,965.659573 C956.30875,966.1162 956.562137,966.775773 956.562137,967.384609 L955.041814,1004.82804 C954.991136,1005.79203 954.433685,1006.55308 953.572168,1006.90823 C952.761329,1007.21265 951.798458,1007.06044 951.139651,1006.40087 L939.787906,995.035924 L857.761574,1077 L831.906823,1077 L926.814484,982.047416 L915.462739,970.682472 C914.803932,970.022899 914.601222,969.109645 914.955964,968.247127 C915.310706,967.384609 916.070868,966.826509 916.983062,966.725036 L954.180297,965 Z M913.288071,1046 C913.46984,1046 913.651609,1046.06059 913.787936,1046.19692 C913.924263,1046.33324 914,1046.53016 914,1046.71193 L913.545577,1057.89072 C913.53043,1058.17852 913.363808,1058.40573 913.106302,1058.51177 C912.863944,1058.60265 912.576143,1058.55721 912.379226,1058.36029 L908.986205,1054.96727 L886.831881,1077 L879.094605,1077 L905.108466,1051.08953 L901.715445,1047.69651 C901.518529,1047.49959 901.457939,1047.22694 901.563971,1046.96943 C901.670003,1046.71193 901.897214,1046.54531 902.169867,1046.51501 L913.288071,1046 Z M851.635746,975 C851.99302,975 852.350294,975.119091 852.618249,975.387047 C852.886205,975.655002 853.035069,976.042049 853.035069,976.399323 L852.141884,998.371668 C852.112111,998.937352 851.78461,999.383944 851.278472,999.592354 C850.802107,999.770991 850.236423,999.681673 849.849376,999.294626 L843.180263,992.625513 L758.712784,1077 L743.595172,1077 L835.55842,985.00367 L828.889307,978.334557 C828.50226,977.94751 828.383169,977.411599 828.591579,976.905461 C828.799988,976.399323 829.246581,976.071822 829.782492,976.012276 L851.635746,975 Z M825.890006,1053 C826.182363,1053 826.474719,1053.09745 826.693986,1053.31672 C826.913254,1053.53599 827.035069,1053.85271 827.035069,1054.14506 L826.304178,1072.12498 C826.279815,1072.58788 826.011821,1072.95333 825.59765,1073.12387 C825.207841,1073.27004 824.744944,1073.19696 824.428224,1072.88024 L818.970904,1067.42292 L809.476858,1077 L796.861666,1077 L812.733968,1061.18598 L807.276648,1055.72866 C806.959929,1055.41194 806.862476,1054.97341 807.033018,1054.55923 C807.203559,1054.14506 807.569004,1053.87707 808.007539,1053.82834 L825.890006,1053 Z" transform="translate(-743 -965)"/>
</svg>
