<svg xmlns="http://www.w3.org/2000/svg" width="32" height="32" viewBox="0 0 32 32"><path fill="#ff6e30" fill-rule="evenodd" d="M18.42 4.66c-2.28 3.18-3.67 5.81-4.62 9.61l-.3 1.34a23.84 23.84 0 0 1-5-5.25 21.85 21.85 0 0 1 2.4-6.46l.3-.52a23.5 23.5 0 0 1 .73-1.22c.37-.58.76-1.11 1.15-1.59A1.6 1.6 0 0 1 14.32 0l.18.01.12.02c.06 0 .1.03.16.04a.72.72 0 0 1 .14.05 1.47 1.47 0 0 1 .54.36l.14.14c.21.28.45.58.7.93.1.12.18.24.27.37.26.35.53.73.8 1.13a45.55 45.55 0 0 1 1.05 1.61zM14.07 32C6.2 31.1 2.14 24.57 1.26 20.1c-.65-3.34-.42-8.53 1.4-12.02a1.16 1.16 0 0 1 1.55-.52 1.15 1.15 0 0 1 .6.7c.3.93.77 2.07 1.56 3.36.42.67.93 1.39 1.53 2.14a28.47 28.47 0 0 0 5.04 4.77l-.1.78a32.74 32.74 0 0 0 .9 11.86c.08.3.19.57.33.82zm16.79-14.36a12.54 12.54 0 0 1-.11.69l-.02.11-.12.5-.18.77-.01.04a18.18 18.18 0 0 1-.64 1.92l-.2.47a16.75 16.75 0 0 1-.65 1.39l-.4.7-.27.46a14.89 14.89 0 0 1-.75 1.1 8.45 8.45 0 0 1-.4.52l-.4.5a16.81 16.81 0 0 1-.43.49l-.39.4-.35.35a3.56 3.56 0 0 1-.04.04l-.02.02a8.94 8.94 0 0 1-.36.33l-.36.32-.09.07c-.13.12-.28.23-.42.34l-.61.46-.07.05a11 11 0 0 1-.53.35 2.36 2.36 0 0 1-.12.1c-.11.05-.22.12-.32.19l-.31.17a9.3 9.3 0 0 1-.52.28l-.52.25-.26.11a2.22 2.22 0 0 1-.27.11 12.13 12.13 0 0 1-2.7.75 1.78 1.78 0 0 1-.53 0 1.64 1.64 0 0 1-.27-.08l-.13-.05a.82.82 0 0 1-.18-.1.86.86 0 0 1-.22-.14l-.1-.1-.14-.13-.11-.16a1.22 1.22 0 0 1-.14-.25 1.42 1.42 0 0 1-.1-.28l-.23-.96a16.1 16.1 0 0 1-.16-.75l-.11-.56a37.9 37.9 0 0 1-.2-1.18.86.86 0 0 1-.02-.14.57.57 0 0 1-.01-.11 5.14 5.14 0 0 1-.05-.42c-.02-.04-.02-.08-.02-.12a30.31 30.31 0 0 1-.1-.84l-.05-.64v-.14l-.02-.16a31.27 31.27 0 0 1-.06-1.94v-.48l.02-.46v-.16c.02-.6.07-1.21.12-1.82l.02-.13.03-.25a5 5 0 0 1 .03-.25l.06-.5.02-.14.11-.7.03-.17.14-.72c.05-.26.1-.53.17-.8l.03-.13.12-.49.2-.76a45.5 45.5 0 0 1 .32-1.04l.12-.36c.05-.18.12-.35.18-.53l.18-.5.2-.5v-.02l.05-.1c.05-.17.13-.32.2-.48l.3-.68.13-.27.12-.27c.17-.36.35-.71.54-1.06l.29-.54.05-.08.03-.07.3-.5.28-.46.27-.42.31-.47.02-.02a33.56 33.56 0 0 1 1.17-1.63 39.21 39.21 0 0 1 1.17-1.41 23.09 23.09 0 0 1 .85-.93l.04-.04.09-.1a.11.11 0 0 1 .04-.04l.05-.05.12-.13.4-.4.62-.6c.17-.15.36-.27.55-.35l.19-.05.04-.01a1.25 1.25 0 0 1 .23-.05h.07a1.79 1.79 0 0 1 .74.13c.06.02.12.04.17.08a1.72 1.72 0 0 1 .7.69c2.53 4.57 4.4 10.43 3.57 16.1l-.01.02z" clip-rule="evenodd"/></svg>
