<svg width="119" height="43" viewBox="0 0 119 43" fill="none" xmlns="http://www.w3.org/2000/svg">
<path fill-rule="evenodd" clip-rule="evenodd" d="M23.1103 0C22.1215 0 21.4637 1.02251 21.8738 1.92233L25.6062 10.1129C25.8618 10.6739 25.8498 11.3204 25.5736 11.8715L21.9842 19.0322C21.5312 19.9358 22.1882 21 23.199 21H32.4929C34.1667 18.5367 36.9689 17.0101 40.0189 17H41.2615C41.2614 17 41.2614 17 41.2614 17H45.7386C45.7386 17 45.7386 17 45.7385 17H49.0615C49.0614 17 49.0614 17 49.0614 17H49.8923C50.623 17 51.2977 17.3911 51.6609 18.0251L53.3357 20.9485C53.3455 20.9656 53.355 20.9828 53.3643 21H87.632C89.3059 18.5367 92.108 17.0101 95.1581 17H96.2615L96.2614 17H100.739L100.739 17H104.061L104.061 17H105.031C105.762 17 106.437 17.3911 106.8 18.0251L108.475 20.9485C108.485 20.9656 108.494 20.9828 108.503 21H117.555C118.705 21 119.391 19.7172 118.752 18.7608C110.917 7.03813 97.7475 0 83.6476 0H23.1103ZM36.3921 6C35.6416 6 35.0332 6.60838 35.0332 7.35885V9.62853C35.0332 10.379 35.6416 10.9874 36.3921 10.9874H38.6744C39.4248 10.9874 40.0332 10.379 40.0332 9.62853V7.35885C40.0332 6.60838 39.4248 6 38.6744 6H36.3921ZM43.0534 7.35885C43.0534 6.60838 43.6618 6 44.4123 6H46.6946C47.4451 6 48.0534 6.60838 48.0534 7.35885V9.62853C48.0534 10.379 47.4451 10.9874 46.6946 10.9874H44.4123C43.6618 10.9874 43.0534 10.379 43.0534 9.62853V7.35885ZM52.4325 6C51.6821 6 51.0737 6.60838 51.0737 7.35885V9.62853C51.0737 10.379 51.6821 10.9874 52.4325 10.9874H54.7148C55.4653 10.9874 56.0737 10.379 56.0737 9.62853V7.35885C56.0737 6.60838 55.4653 6 54.7148 6H52.4325ZM59 7.35885C59 6.60838 59.6084 6 60.3589 6H62.6411C63.3916 6 64 6.60838 64 7.35885V9.62853C64 10.379 63.3916 10.9874 62.6411 10.9874H60.3589C59.6084 10.9874 59 10.379 59 9.62853V7.35885ZM68.3589 6C67.6084 6 67 6.60838 67 7.35885V9.62853C67 10.379 67.6084 10.9874 68.3589 10.9874H70.6411C71.3916 10.9874 72 10.379 72 9.62853V7.35885C72 6.60838 71.3916 6 70.6411 6H68.3589ZM75 7.30301C75 6.58338 75.5834 6 76.303 6H78.697C79.4166 6 80 6.58338 80 7.30301V9.69699C80 10.4166 79.4166 11 78.697 11H76.303C75.5834 11 75 10.4166 75 9.69699V7.30301ZM86.7166 6C86.3208 6 86 6.32081 86 6.71655V9.64115C86 10.3916 86.6084 11 87.3588 11H101.712C102.345 11 102.573 10.1629 102.026 9.84235C97.7355 7.32635 92.8517 6 87.8779 6H86.7166ZM97.0521 19.8667H99.9479C100.305 20.8765 101.268 21.6 102.4 21.6C103.836 21.6 105 20.436 105 19C105 18.829 104.983 18.6618 104.952 18.5H92.048C92.0165 18.6618 92 18.829 92 19C92 20.436 93.1641 21.6 94.6 21.6C95.7321 21.6 96.6951 20.8765 97.0521 19.8667ZM42.0521 19.8667C41.6951 20.8765 40.7321 21.6 39.6 21.6C38.1641 21.6 37 20.436 37 19C37 18.829 37.0165 18.6618 37.048 18.5H49.952C49.9835 18.6618 50 18.829 50 19C50 20.436 48.8359 21.6 47.4 21.6C46.2679 21.6 45.3049 20.8765 44.9479 19.8667H42.0521Z" class="project-registration-template-card-svg"/>
<path d="M2 5H8" class="project-registration-template-card-svg-stroke" stroke-width="3" stroke-linecap="round"/>
<path d="M9 10H17" class="project-registration-template-card-svg-stroke" stroke-width="3" stroke-linecap="round"/>
<path d="M5 16H10" class="project-registration-template-card-svg-stroke" stroke-width="3" stroke-linecap="round"/>
<path fill-rule="evenodd" clip-rule="evenodd" d="M33.1 26.6C33.0167 26.6 32.9348 26.6094 32.8557 26.6274C32.6446 26.6754 32.485 26.8292 32.4202 27.0203C32.2292 27.085 32.0754 27.2446 32.0274 27.4557C32.0094 27.5349 32 27.6167 32 27.7V27.9143C32 28.1484 32.134 28.3511 32.3295 28.45C32.134 28.5489 32 28.7517 32 28.9858V29.2C32 29.2834 32.0094 29.3652 32.0274 29.4444C32.0754 29.6555 32.2292 29.815 32.4202 29.8798C32.485 30.0708 32.6446 30.2247 32.8557 30.2727C32.9348 30.2907 33.0167 30.3 33.1 30.3H33.5571C33.8885 30.3 34.1571 30.0314 34.1571 29.7C34.1571 29.3687 33.8885 29.1 33.5571 29.1H33.2V28.9858C33.2 28.7517 33.066 28.5489 32.8705 28.45C33.066 28.3511 33.2 28.1484 33.2 27.9143V27.8H33.5571C33.8885 27.8 34.1571 27.5314 34.1571 27.2C34.1571 26.8687 33.8885 26.6 33.5571 26.6H33.1ZM35.8429 26.6C35.5115 26.6 35.2429 26.8687 35.2429 27.2C35.2429 27.5314 35.5115 27.8 35.8429 27.8H36.7571C37.0885 27.8 37.3571 27.5314 37.3571 27.2C37.3571 26.8687 37.0885 26.6 36.7571 26.6H35.8429ZM39.0429 26.6C38.7115 26.6 38.4429 26.8687 38.4429 27.2C38.4429 27.5314 38.7115 27.8 39.0429 27.8H39.9571C40.2885 27.8 40.5571 27.5314 40.5571 27.2C40.5571 26.8687 40.2885 26.6 39.9571 26.6H39.0429ZM42.2429 26.6C41.9115 26.6 41.6429 26.8687 41.6429 27.2C41.6429 27.5314 41.9115 27.8 42.2429 27.8H43.1571C43.4885 27.8 43.7571 27.5314 43.7571 27.2C43.7571 26.8687 43.4885 26.6 43.1571 26.6H42.2429ZM45.4429 26.6C45.1115 26.6 44.8429 26.8687 44.8429 27.2C44.8429 27.5314 45.1115 27.8 45.4429 27.8H46.3571C46.6885 27.8 46.9571 27.5314 46.9571 27.2C46.9571 26.8687 46.6885 26.6 46.3571 26.6H45.4429ZM48.6429 26.6C48.3115 26.6 48.0429 26.8687 48.0429 27.2C48.0429 27.5314 48.3115 27.8 48.6429 27.8H49V27.9143C49 28.1484 49.134 28.3511 49.3295 28.45C49.134 28.5489 49 28.7517 49 28.9858V29.1H48.6429C48.3115 29.1 48.0429 29.3687 48.0429 29.7C48.0429 30.0314 48.3115 30.3 48.6429 30.3H49.1C49.1833 30.3 49.2652 30.2907 49.3443 30.2727C49.5554 30.2247 49.715 30.0708 49.7798 29.8798C49.9708 29.815 50.1246 29.6555 50.1726 29.4444C50.1906 29.3652 50.2 29.2834 50.2 29.2V28.9858C50.2 28.7517 50.066 28.5489 49.8705 28.45C50.066 28.3511 50.2 28.1484 50.2 27.9143V27.7C50.2 27.6167 50.1906 27.5349 50.1726 27.4557C50.1246 27.2446 49.9708 27.085 49.7798 27.0203C49.715 26.8292 49.5554 26.6754 49.3443 26.6274C49.2652 26.6094 49.1833 26.6 49.1 26.6H48.6429ZM35.8429 29.1C35.5115 29.1 35.2429 29.3687 35.2429 29.7C35.2429 30.0314 35.5115 30.3 35.8429 30.3H36.7571C37.0885 30.3 37.3571 30.0314 37.3571 29.7C37.3571 29.3687 37.0885 29.1 36.7571 29.1H35.8429ZM39.0429 29.1C38.7115 29.1 38.4429 29.3687 38.4429 29.7C38.4429 30.0314 38.7115 30.3 39.0429 30.3H39.9571C40.2885 30.3 40.5571 30.0314 40.5571 29.7C40.5571 29.3687 40.2885 29.1 39.9571 29.1H39.0429ZM42.2429 29.1C41.9115 29.1 41.6429 29.3687 41.6429 29.7C41.6429 30.0314 41.9115 30.3 42.2429 30.3H43.1571C43.4885 30.3 43.7571 30.0314 43.7571 29.7C43.7571 29.3687 43.4885 29.1 43.1571 29.1H42.2429ZM45.4429 29.1C45.1115 29.1 44.8429 29.3687 44.8429 29.7C44.8429 30.0314 45.1115 30.3 45.4429 30.3H46.3571C46.6885 30.3 46.9571 30.0314 46.9571 29.7C46.9571 29.3687 46.6885 29.1 46.3571 29.1H45.4429ZM34.1 31.1C34.0167 31.1 33.9348 31.1094 33.8557 31.1274C33.6446 31.1754 33.485 31.3292 33.4202 31.5203C33.2292 31.585 33.0754 31.7446 33.0274 31.9557C33.0094 32.0349 33 32.1167 33 32.2V32.6286C33 32.96 33.2686 33.2286 33.6 33.2286C33.9314 33.2286 34.2 32.96 34.2 32.6286V32.3H34.6C34.9314 32.3 35.2 32.0314 35.2 31.7C35.2 31.3687 34.9314 31.1 34.6 31.1H34.1ZM37.1 31.1C36.7686 31.1 36.5 31.3687 36.5 31.7C36.5 32.0314 36.7686 32.3 37.1 32.3H38.1C38.4314 32.3 38.7 32.0314 38.7 31.7C38.7 31.3687 38.4314 31.1 38.1 31.1H37.1ZM40.6 31.1C40.2686 31.1 40 31.3687 40 31.7C40 32.0314 40.2686 32.3 40.6 32.3H41.6C41.9314 32.3 42.2 32.0314 42.2 31.7C42.2 31.3687 41.9314 31.1 41.6 31.1H40.6ZM44.1 31.1C43.7686 31.1 43.5 31.3687 43.5 31.7C43.5 32.0314 43.7686 32.3 44.1 32.3H45.1C45.4314 32.3 45.7 32.0314 45.7 31.7C45.7 31.3687 45.4314 31.1 45.1 31.1H44.1ZM47.6 31.1C47.2686 31.1 47 31.3687 47 31.7C47 32.0314 47.2686 32.3 47.6 32.3H48V32.6286C48 32.96 48.2686 33.2286 48.6 33.2286C48.9314 33.2286 49.2 32.96 49.2 32.6286V32.2C49.2 32.1167 49.1906 32.0349 49.1726 31.9557C49.1246 31.7446 48.9708 31.585 48.7798 31.5203C48.715 31.3292 48.5554 31.1754 48.3443 31.1274C48.2652 31.1094 48.1833 31.1 48.1 31.1H47.6ZM34.2 34.7715C34.2 34.4401 33.9314 34.1715 33.6 34.1715C33.2686 34.1715 33 34.4401 33 34.7715V35.6286C33 35.96 33.2686 36.2286 33.6 36.2286C33.9314 36.2286 34.2 35.96 34.2 35.6286V34.7715ZM49.2 34.7715C49.2 34.4401 48.9314 34.1715 48.6 34.1715C48.2686 34.1715 48 34.4401 48 34.7715V35.6286C48 35.96 48.2686 36.2286 48.6 36.2286C48.9314 36.2286 49.2 35.96 49.2 35.6286V34.7715ZM34.2 37.7715C34.2 37.4401 33.9314 37.1715 33.6 37.1715C33.2686 37.1715 33 37.4401 33 37.7715V38.6286C33 38.96 33.2686 39.2286 33.6 39.2286C33.9314 39.2286 34.2 38.96 34.2 38.6286V37.7715ZM49.2 37.7715C49.2 37.4401 48.9314 37.1715 48.6 37.1715C48.2686 37.1715 48 37.4401 48 37.7715V38.6286C48 38.96 48.2686 39.2286 48.6 39.2286C48.9314 39.2286 49.2 38.96 49.2 38.6286V37.7715ZM34.2 40.7715C34.2 40.4401 33.9314 40.1715 33.6 40.1715C33.2686 40.1715 33 40.4401 33 40.7715V41.2C33 41.2834 33.0094 41.3652 33.0274 41.4444C33.0754 41.6555 33.2292 41.815 33.4202 41.8798C33.485 42.0708 33.6446 42.2247 33.8557 42.2727C33.9348 42.2907 34.0167 42.3 34.1 42.3H34.6C34.9314 42.3 35.2 42.0314 35.2 41.7C35.2 41.3687 34.9314 41.1 34.6 41.1H34.2V40.7715ZM49.2 40.7715C49.2 40.4401 48.9314 40.1715 48.6 40.1715C48.2686 40.1715 48 40.4401 48 40.7715V41.1H47.6C47.2686 41.1 47 41.3687 47 41.7C47 42.0314 47.2686 42.3 47.6 42.3H48.1C48.1833 42.3 48.2652 42.2907 48.3443 42.2727C48.5554 42.2247 48.715 42.0708 48.7798 41.8798C48.9708 41.815 49.1246 41.6555 49.1726 41.4444C49.1906 41.3652 49.2 41.2834 49.2 41.2V40.7715ZM37.1 41.1C36.7686 41.1 36.5 41.3687 36.5 41.7C36.5 42.0314 36.7686 42.3 37.1 42.3H38.1C38.4314 42.3 38.7 42.0314 38.7 41.7C38.7 41.3687 38.4314 41.1 38.1 41.1H37.1ZM40.6 41.1C40.2686 41.1 40 41.3687 40 41.7C40 42.0314 40.2686 42.3 40.6 42.3H41.6C41.9314 42.3 42.2 42.0314 42.2 41.7C42.2 41.3687 41.9314 41.1 41.6 41.1H40.6ZM44.1 41.1C43.7686 41.1 43.5 41.3687 43.5 41.7C43.5 42.0314 43.7686 42.3 44.1 42.3H45.1C45.4314 42.3 45.7 42.0314 45.7 41.7C45.7 41.3687 45.4314 41.1 45.1 41.1H44.1ZM37.6 34.6C37.6 34.0478 38.0477 33.6 38.6 33.6H43.6C44.1523 33.6 44.6 34.0478 44.6 34.6C44.6 35.1523 44.1523 35.6 43.6 35.6H38.6C38.0477 35.6 37.6 35.1523 37.6 34.6Z" class="project-registration-template-card-svg"/>
<path fill-rule="evenodd" clip-rule="evenodd" d="M53.7 26.6C53.6167 26.6 53.5348 26.6094 53.4557 26.6274C53.2446 26.6754 53.085 26.8292 53.0202 27.0203C52.8292 27.085 52.6754 27.2446 52.6274 27.4557C52.6094 27.5349 52.6 27.6167 52.6 27.7V27.9143C52.6 28.1484 52.734 28.3511 52.9295 28.45C52.734 28.5489 52.6 28.7517 52.6 28.9858V29.2C52.6 29.2834 52.6094 29.3652 52.6274 29.4444C52.6754 29.6555 52.8292 29.815 53.0202 29.8798C53.085 30.0708 53.2446 30.2247 53.4557 30.2727C53.5348 30.2907 53.6167 30.3 53.7 30.3H54.1571C54.4885 30.3 54.7571 30.0314 54.7571 29.7C54.7571 29.3687 54.4885 29.1 54.1571 29.1H53.8V28.9858C53.8 28.7517 53.666 28.5489 53.4705 28.45C53.666 28.3511 53.8 28.1484 53.8 27.9143V27.8H54.1571C54.4885 27.8 54.7571 27.5314 54.7571 27.2C54.7571 26.8687 54.4885 26.6 54.1571 26.6H53.7ZM56.4429 26.6C56.1115 26.6 55.8429 26.8687 55.8429 27.2C55.8429 27.5314 56.1115 27.8 56.4429 27.8H57.3571C57.6885 27.8 57.9571 27.5314 57.9571 27.2C57.9571 26.8687 57.6885 26.6 57.3571 26.6H56.4429ZM59.6429 26.6C59.3115 26.6 59.0429 26.8687 59.0429 27.2C59.0429 27.5314 59.3115 27.8 59.6429 27.8H60.5571C60.8885 27.8 61.1571 27.5314 61.1571 27.2C61.1571 26.8687 60.8885 26.6 60.5571 26.6H59.6429ZM62.8429 26.6C62.5115 26.6 62.2429 26.8687 62.2429 27.2C62.2429 27.5314 62.5115 27.8 62.8429 27.8H63.7571C64.0885 27.8 64.3571 27.5314 64.3571 27.2C64.3571 26.8687 64.0885 26.6 63.7571 26.6H62.8429ZM66.0429 26.6C65.7115 26.6 65.4429 26.8687 65.4429 27.2C65.4429 27.5314 65.7115 27.8 66.0429 27.8H66.9571C67.2885 27.8 67.5571 27.5314 67.5571 27.2C67.5571 26.8687 67.2885 26.6 66.9571 26.6H66.0429ZM69.2429 26.6C68.9115 26.6 68.6429 26.8687 68.6429 27.2C68.6429 27.5314 68.9115 27.8 69.2429 27.8H69.6V27.9143C69.6 28.1484 69.734 28.3511 69.9295 28.45C69.734 28.5489 69.6 28.7517 69.6 28.9858V29.1H69.2429C68.9115 29.1 68.6429 29.3687 68.6429 29.7C68.6429 30.0314 68.9115 30.3 69.2429 30.3H69.7C69.7833 30.3 69.8652 30.2907 69.9443 30.2727C70.1554 30.2247 70.315 30.0708 70.3798 29.8798C70.5708 29.815 70.7246 29.6555 70.7726 29.4444C70.7906 29.3652 70.8 29.2834 70.8 29.2V28.9858C70.8 28.7517 70.666 28.5489 70.4705 28.45C70.666 28.3511 70.8 28.1484 70.8 27.9143V27.7C70.8 27.6167 70.7906 27.5349 70.7726 27.4557C70.7246 27.2446 70.5708 27.085 70.3798 27.0203C70.315 26.8292 70.1554 26.6754 69.9443 26.6274C69.8652 26.6094 69.7833 26.6 69.7 26.6H69.2429ZM56.4429 29.1C56.1115 29.1 55.8429 29.3687 55.8429 29.7C55.8429 30.0314 56.1115 30.3 56.4429 30.3H57.3571C57.6885 30.3 57.9571 30.0314 57.9571 29.7C57.9571 29.3687 57.6885 29.1 57.3571 29.1H56.4429ZM59.6429 29.1C59.3115 29.1 59.0429 29.3687 59.0429 29.7C59.0429 30.0314 59.3115 30.3 59.6429 30.3H60.5571C60.8885 30.3 61.1572 30.0314 61.1572 29.7C61.1572 29.3687 60.8885 29.1 60.5571 29.1H59.6429ZM62.8429 29.1C62.5115 29.1 62.2429 29.3687 62.2429 29.7C62.2429 30.0314 62.5115 30.3 62.8429 30.3H63.7571C64.0885 30.3 64.3572 30.0314 64.3572 29.7C64.3572 29.3687 64.0885 29.1 63.7571 29.1H62.8429ZM66.0429 29.1C65.7115 29.1 65.4429 29.3687 65.4429 29.7C65.4429 30.0314 65.7115 30.3 66.0429 30.3H66.9571C67.2885 30.3 67.5571 30.0314 67.5571 29.7C67.5571 29.3687 67.2885 29.1 66.9571 29.1H66.0429ZM54.7 31.1C54.6167 31.1 54.5348 31.1094 54.4557 31.1274C54.2446 31.1754 54.085 31.3292 54.0202 31.5203C53.8292 31.585 53.6754 31.7446 53.6274 31.9557C53.6094 32.0349 53.6 32.1167 53.6 32.2V32.6286C53.6 32.96 53.8686 33.2286 54.2 33.2286C54.5314 33.2286 54.8 32.96 54.8 32.6286V32.3H55.2C55.5314 32.3 55.8 32.0314 55.8 31.7C55.8 31.3687 55.5314 31.1 55.2 31.1H54.7ZM57.7 31.1C57.3686 31.1 57.1 31.3687 57.1 31.7C57.1 32.0314 57.3686 32.3 57.7 32.3H58.7C59.0314 32.3 59.3 32.0314 59.3 31.7C59.3 31.3687 59.0314 31.1 58.7 31.1H57.7ZM61.2 31.1C60.8686 31.1 60.6 31.3687 60.6 31.7C60.6 32.0314 60.8686 32.3 61.2 32.3H62.2C62.5314 32.3 62.8 32.0314 62.8 31.7C62.8 31.3687 62.5314 31.1 62.2 31.1H61.2ZM64.7 31.1C64.3686 31.1 64.1 31.3687 64.1 31.7C64.1 32.0314 64.3686 32.3 64.7 32.3H65.7C66.0314 32.3 66.3 32.0314 66.3 31.7C66.3 31.3687 66.0314 31.1 65.7 31.1H64.7ZM68.2 31.1C67.8686 31.1 67.6 31.3687 67.6 31.7C67.6 32.0314 67.8686 32.3 68.2 32.3H68.6V32.6286C68.6 32.96 68.8686 33.2286 69.2 33.2286C69.5314 33.2286 69.8 32.96 69.8 32.6286V32.2C69.8 32.1167 69.7906 32.0349 69.7726 31.9557C69.7246 31.7446 69.5708 31.585 69.3798 31.5203C69.315 31.3292 69.1554 31.1754 68.9443 31.1274C68.8652 31.1094 68.7833 31.1 68.7 31.1H68.2ZM54.8 34.7715C54.8 34.4401 54.5314 34.1715 54.2 34.1715C53.8686 34.1715 53.6 34.4401 53.6 34.7715V35.6286C53.6 35.96 53.8686 36.2286 54.2 36.2286C54.5314 36.2286 54.8 35.96 54.8 35.6286V34.7715ZM69.8 34.7715C69.8 34.4401 69.5314 34.1715 69.2 34.1715C68.8686 34.1715 68.6 34.4401 68.6 34.7715V35.6286C68.6 35.96 68.8686 36.2286 69.2 36.2286C69.5314 36.2286 69.8 35.96 69.8 35.6286V34.7715ZM54.8 37.7715C54.8 37.4401 54.5314 37.1715 54.2 37.1715C53.8686 37.1715 53.6 37.4401 53.6 37.7715V38.6286C53.6 38.96 53.8686 39.2286 54.2 39.2286C54.5314 39.2286 54.8 38.96 54.8 38.6286V37.7715ZM69.8 37.7715C69.8 37.4401 69.5314 37.1715 69.2 37.1715C68.8686 37.1715 68.6 37.4401 68.6 37.7715V38.6286C68.6 38.96 68.8686 39.2286 69.2 39.2286C69.5314 39.2286 69.8 38.96 69.8 38.6286V37.7715ZM54.8 40.7715C54.8 40.4401 54.5314 40.1715 54.2 40.1715C53.8686 40.1715 53.6 40.4401 53.6 40.7715V41.2C53.6 41.2834 53.6094 41.3652 53.6274 41.4444C53.6754 41.6555 53.8292 41.815 54.0202 41.8798C54.085 42.0708 54.2446 42.2247 54.4557 42.2727C54.5348 42.2907 54.6167 42.3 54.7 42.3H55.2C55.5314 42.3 55.8 42.0314 55.8 41.7C55.8 41.3687 55.5314 41.1 55.2 41.1H54.8V40.7715ZM69.8 40.7715C69.8 40.4401 69.5314 40.1715 69.2 40.1715C68.8686 40.1715 68.6 40.4401 68.6 40.7715V41.1H68.2C67.8686 41.1 67.6 41.3687 67.6 41.7C67.6 42.0314 67.8686 42.3 68.2 42.3H68.7C68.7833 42.3 68.8652 42.2907 68.9443 42.2727C69.1554 42.2247 69.315 42.0708 69.3798 41.8798C69.5708 41.815 69.7246 41.6555 69.7726 41.4444C69.7906 41.3652 69.8 41.2834 69.8 41.2V40.7715ZM57.7 41.1C57.3686 41.1 57.1 41.3687 57.1 41.7C57.1 42.0314 57.3686 42.3 57.7 42.3H58.7C59.0314 42.3 59.3 42.0314 59.3 41.7C59.3 41.3687 59.0314 41.1 58.7 41.1H57.7ZM61.2 41.1C60.8686 41.1 60.6 41.3687 60.6 41.7C60.6 42.0314 60.8686 42.3 61.2 42.3H62.2C62.5314 42.3 62.8 42.0314 62.8 41.7C62.8 41.3687 62.5314 41.1 62.2 41.1H61.2ZM64.7 41.1C64.3686 41.1 64.1 41.3687 64.1 41.7C64.1 42.0314 64.3686 42.3 64.7 42.3H65.7C66.0314 42.3 66.3 42.0314 66.3 41.7C66.3 41.3687 66.0314 41.1 65.7 41.1H64.7ZM58.6 34.6C58.6 34.0478 59.0477 33.6 59.6 33.6H64.6C65.1523 33.6 65.6 34.0478 65.6 34.6C65.6 35.1523 65.1523 35.6 64.6 35.6H59.6C59.0477 35.6 58.6 35.1523 58.6 34.6Z" class="project-registration-template-card-svg"/>
<path fill-rule="evenodd" clip-rule="evenodd" d="M74.3 26.6C74.2167 26.6 74.1348 26.6094 74.0557 26.6274C73.8446 26.6754 73.685 26.8292 73.6202 27.0203C73.4292 27.085 73.2754 27.2446 73.2274 27.4557C73.2094 27.5349 73.2 27.6167 73.2 27.7V27.9143C73.2 28.1484 73.334 28.3511 73.5295 28.45C73.334 28.5489 73.2 28.7517 73.2 28.9858V29.2C73.2 29.2834 73.2094 29.3652 73.2274 29.4444C73.2754 29.6555 73.4292 29.815 73.6202 29.8798C73.685 30.0708 73.8446 30.2247 74.0557 30.2727C74.1348 30.2907 74.2167 30.3 74.3 30.3H74.7571C75.0885 30.3 75.3571 30.0314 75.3571 29.7C75.3571 29.3687 75.0885 29.1 74.7571 29.1H74.4V28.9858C74.4 28.7517 74.266 28.5489 74.0705 28.45C74.266 28.3511 74.4 28.1484 74.4 27.9143V27.8H74.7571C75.0885 27.8 75.3571 27.5314 75.3571 27.2C75.3571 26.8687 75.0885 26.6 74.7571 26.6H74.3ZM77.0429 26.6C76.7115 26.6 76.4429 26.8687 76.4429 27.2C76.4429 27.5314 76.7115 27.8 77.0429 27.8H77.9571C78.2885 27.8 78.5571 27.5314 78.5571 27.2C78.5571 26.8687 78.2885 26.6 77.9571 26.6H77.0429ZM80.2429 26.6C79.9115 26.6 79.6429 26.8687 79.6429 27.2C79.6429 27.5314 79.9115 27.8 80.2429 27.8H81.1571C81.4885 27.8 81.7571 27.5314 81.7571 27.2C81.7571 26.8687 81.4885 26.6 81.1571 26.6H80.2429ZM83.4429 26.6C83.1115 26.6 82.8429 26.8687 82.8429 27.2C82.8429 27.5314 83.1115 27.8 83.4429 27.8H84.3571C84.6885 27.8 84.9571 27.5314 84.9571 27.2C84.9571 26.8687 84.6885 26.6 84.3571 26.6H83.4429ZM86.6429 26.6C86.3115 26.6 86.0429 26.8687 86.0429 27.2C86.0429 27.5314 86.3115 27.8 86.6429 27.8H87.5571C87.8885 27.8 88.1571 27.5314 88.1571 27.2C88.1571 26.8687 87.8885 26.6 87.5571 26.6H86.6429ZM89.8429 26.6C89.5115 26.6 89.2429 26.8687 89.2429 27.2C89.2429 27.5314 89.5115 27.8 89.8429 27.8H90.2V27.9143C90.2 28.1484 90.334 28.3511 90.5295 28.45C90.334 28.5489 90.2 28.7517 90.2 28.9858V29.1H89.8429C89.5115 29.1 89.2429 29.3687 89.2429 29.7C89.2429 30.0314 89.5115 30.3 89.8429 30.3H90.3C90.3833 30.3 90.4652 30.2907 90.5443 30.2727C90.7554 30.2247 90.915 30.0708 90.9798 29.8798C91.1708 29.815 91.3246 29.6555 91.3726 29.4444C91.3906 29.3652 91.4 29.2834 91.4 29.2V28.9858C91.4 28.7517 91.266 28.5489 91.0705 28.45C91.266 28.3511 91.4 28.1484 91.4 27.9143V27.7C91.4 27.6167 91.3906 27.5349 91.3726 27.4557C91.3246 27.2446 91.1708 27.085 90.9798 27.0203C90.915 26.8292 90.7554 26.6754 90.5443 26.6274C90.4652 26.6094 90.3833 26.6 90.3 26.6H89.8429ZM77.0429 29.1C76.7115 29.1 76.4429 29.3687 76.4429 29.7C76.4429 30.0314 76.7115 30.3 77.0429 30.3H77.9571C78.2885 30.3 78.5571 30.0314 78.5571 29.7C78.5571 29.3687 78.2885 29.1 77.9571 29.1H77.0429ZM80.2429 29.1C79.9115 29.1 79.6429 29.3687 79.6429 29.7C79.6429 30.0314 79.9115 30.3 80.2429 30.3H81.1571C81.4885 30.3 81.7571 30.0314 81.7571 29.7C81.7571 29.3687 81.4885 29.1 81.1571 29.1H80.2429ZM83.4429 29.1C83.1115 29.1 82.8429 29.3687 82.8429 29.7C82.8429 30.0314 83.1115 30.3 83.4429 30.3H84.3571C84.6885 30.3 84.9571 30.0314 84.9571 29.7C84.9571 29.3687 84.6885 29.1 84.3571 29.1H83.4429ZM86.6429 29.1C86.3115 29.1 86.0429 29.3687 86.0429 29.7C86.0429 30.0314 86.3115 30.3 86.6429 30.3H87.5571C87.8885 30.3 88.1571 30.0314 88.1571 29.7C88.1571 29.3687 87.8885 29.1 87.5571 29.1H86.6429ZM75.3 31.1C75.2167 31.1 75.1348 31.1094 75.0557 31.1274C74.8446 31.1754 74.685 31.3292 74.6202 31.5203C74.4292 31.585 74.2754 31.7446 74.2274 31.9557C74.2094 32.0349 74.2 32.1167 74.2 32.2V32.6286C74.2 32.96 74.4686 33.2286 74.8 33.2286C75.1314 33.2286 75.4 32.96 75.4 32.6286V32.3H75.8C76.1314 32.3 76.4 32.0314 76.4 31.7C76.4 31.3687 76.1314 31.1 75.8 31.1H75.3ZM78.3 31.1C77.9686 31.1 77.7 31.3687 77.7 31.7C77.7 32.0314 77.9686 32.3 78.3 32.3H79.3C79.6314 32.3 79.9 32.0314 79.9 31.7C79.9 31.3687 79.6314 31.1 79.3 31.1H78.3ZM81.8 31.1C81.4686 31.1 81.2 31.3687 81.2 31.7C81.2 32.0314 81.4686 32.3 81.8 32.3H82.8C83.1314 32.3 83.4 32.0314 83.4 31.7C83.4 31.3687 83.1314 31.1 82.8 31.1H81.8ZM85.3 31.1C84.9686 31.1 84.7 31.3687 84.7 31.7C84.7 32.0314 84.9686 32.3 85.3 32.3H86.3C86.6314 32.3 86.9 32.0314 86.9 31.7C86.9 31.3687 86.6314 31.1 86.3 31.1H85.3ZM88.8 31.1C88.4686 31.1 88.2 31.3687 88.2 31.7C88.2 32.0314 88.4686 32.3 88.8 32.3H89.2V32.6286C89.2 32.96 89.4686 33.2286 89.8 33.2286C90.1314 33.2286 90.4 32.96 90.4 32.6286V32.2C90.4 32.1167 90.3906 32.0349 90.3726 31.9557C90.3246 31.7446 90.1708 31.585 89.9798 31.5203C89.915 31.3292 89.7554 31.1754 89.5443 31.1274C89.4652 31.1094 89.3833 31.1 89.3 31.1H88.8ZM75.4 34.7715C75.4 34.4401 75.1314 34.1715 74.8 34.1715C74.4686 34.1715 74.2 34.4401 74.2 34.7715V35.6286C74.2 35.96 74.4686 36.2286 74.8 36.2286C75.1314 36.2286 75.4 35.96 75.4 35.6286V34.7715ZM90.4 34.7715C90.4 34.4401 90.1314 34.1715 89.8 34.1715C89.4686 34.1715 89.2 34.4401 89.2 34.7715V35.6286C89.2 35.96 89.4686 36.2286 89.8 36.2286C90.1314 36.2286 90.4 35.96 90.4 35.6286V34.7715ZM75.4 37.7715C75.4 37.4401 75.1314 37.1715 74.8 37.1715C74.4686 37.1715 74.2 37.4401 74.2 37.7715V38.6286C74.2 38.96 74.4686 39.2286 74.8 39.2286C75.1314 39.2286 75.4 38.96 75.4 38.6286V37.7715ZM90.4 37.7715C90.4 37.4401 90.1314 37.1715 89.8 37.1715C89.4686 37.1715 89.2 37.4401 89.2 37.7715V38.6286C89.2 38.96 89.4686 39.2286 89.8 39.2286C90.1314 39.2286 90.4 38.96 90.4 38.6286V37.7715ZM75.4 40.7715C75.4 40.4401 75.1314 40.1715 74.8 40.1715C74.4686 40.1715 74.2 40.4401 74.2 40.7715V41.2C74.2 41.2834 74.2094 41.3652 74.2274 41.4444C74.2754 41.6555 74.4292 41.815 74.6202 41.8798C74.685 42.0708 74.8446 42.2247 75.0557 42.2727C75.1348 42.2907 75.2167 42.3 75.3 42.3H75.8C76.1314 42.3 76.4 42.0314 76.4 41.7C76.4 41.3687 76.1314 41.1 75.8 41.1H75.4V40.7715ZM90.4 40.7715C90.4 40.4401 90.1314 40.1715 89.8 40.1715C89.4686 40.1715 89.2 40.4401 89.2 40.7715V41.1H88.8C88.4686 41.1 88.2 41.3687 88.2 41.7C88.2 42.0314 88.4686 42.3 88.8 42.3H89.3C89.3833 42.3 89.4652 42.2907 89.5443 42.2727C89.7554 42.2247 89.915 42.0708 89.9798 41.8798C90.1708 41.815 90.3246 41.6555 90.3726 41.4444C90.3906 41.3652 90.4 41.2834 90.4 41.2V40.7715ZM78.3 41.1C77.9686 41.1 77.7 41.3687 77.7 41.7C77.7 42.0314 77.9686 42.3 78.3 42.3H79.3C79.6314 42.3 79.9 42.0314 79.9 41.7C79.9 41.3687 79.6314 41.1 79.3 41.1H78.3ZM81.8 41.1C81.4686 41.1 81.2 41.3687 81.2 41.7C81.2 42.0314 81.4686 42.3 81.8 42.3H82.8C83.1314 42.3 83.4 42.0314 83.4 41.7C83.4 41.3687 83.1314 41.1 82.8 41.1H81.8ZM85.3 41.1C84.9686 41.1 84.7 41.3687 84.7 41.7C84.7 42.0314 84.9686 42.3 85.3 42.3H86.3C86.6314 42.3 86.9 42.0314 86.9 41.7C86.9 41.3687 86.6314 41.1 86.3 41.1H85.3ZM78.6 34.6C78.6 34.0478 79.0477 33.6 79.6 33.6H84.6C85.1523 33.6 85.6 34.0478 85.6 34.6C85.6 35.1523 85.1523 35.6 84.6 35.6H79.6C79.0477 35.6 78.6 35.1523 78.6 34.6Z" class="project-registration-template-card-svg"/>
</svg>
