<svg width="120" height="46" viewBox="0 0 120 46" fill="none" xmlns="http://www.w3.org/2000/svg">
<path d="M21.8738 2.92233L20.9638 3.337L21.8738 2.92233ZM118.752 19.7608L119.583 19.2051V19.2051L118.752 19.7608ZM108.503 22L107.623 22.4733C107.797 22.7977 108.135 23 108.503 23V22ZM108.475 21.9485L107.607 22.4456L107.607 22.4457L108.475 21.9485ZM106.8 19.0251L105.932 19.5222L106.8 19.0251ZM87.632 22V23C87.9632 23 88.2729 22.836 88.4591 22.562L87.632 22ZM53.3643 22L52.4833 22.4733C52.6576 22.7976 52.996 23 53.3643 23V22ZM53.3357 21.9485L54.2034 21.4514L54.2034 21.4514L53.3357 21.9485ZM51.6609 19.0251L52.5286 18.528L51.6609 19.0251ZM32.4929 22V23C32.8241 23 33.1338 22.836 33.32 22.562L32.4929 22ZM21.9842 20.0322L21.0902 19.5841L21.9842 20.0322ZM25.5736 12.8715L24.6796 12.4234H24.6796L25.5736 12.8715ZM25.6062 11.1129L24.6962 11.5276H24.6962L25.6062 11.1129ZM22.5301 0.0713496C21.9945 0.206003 21.6695 0.749365 21.8041 1.28498C21.9388 1.8206 22.4821 2.14565 23.0177 2.011L22.5301 0.0713496ZM22.7554 2.41887C22.6558 1.87564 22.1347 1.51598 21.5915 1.61555C21.0482 1.71513 20.6886 2.23623 20.7882 2.77946L22.7554 2.41887ZM21.1971 3.84891C21.4261 4.35147 22.0192 4.57322 22.5217 4.34421C23.0243 4.11519 23.2461 3.52213 23.017 3.01957L21.1971 3.84891ZM24.4167 6.09103C24.1877 5.58847 23.5946 5.36671 23.092 5.59573C22.5895 5.82475 22.3677 6.41781 22.5967 6.92037L24.4167 6.09103ZM23.0633 7.94419C23.2923 8.44676 23.8854 8.66851 24.3879 8.4395C24.8905 8.21048 25.1123 7.61742 24.8832 7.11485L23.0633 7.94419ZM26.2829 10.1863C26.0539 9.68376 25.4608 9.462 24.9583 9.69102C24.4557 9.92003 24.2339 10.5131 24.4629 11.0157L26.2829 10.1863ZM24.7383 11.6355C24.91 12.1604 25.4747 12.4467 25.9996 12.275C26.5246 12.1033 26.8109 11.5386 26.6392 11.0137L24.7383 11.6355ZM26.6022 13.0089C26.7932 12.4907 26.528 11.9158 26.0098 11.7248C25.4916 11.5337 24.9167 11.7989 24.7257 12.3171L26.6022 13.0089ZM24.4553 12.8709C24.2078 13.3647 24.4074 13.9655 24.9011 14.213C25.3949 14.4605 25.9957 14.2609 26.2432 13.7672L24.4553 12.8709ZM24.8972 16.4524C25.1447 15.9587 24.9451 15.3578 24.4513 15.1103C23.9576 14.8629 23.3567 15.0625 23.1092 15.5562L24.8972 16.4524ZM22.6606 16.4513C22.4131 16.945 22.6127 17.5459 23.1064 17.7934C23.6002 18.0409 24.201 17.8413 24.4485 17.3475L22.6606 16.4513ZM23.1025 20.0328C23.35 19.5391 23.1504 18.9382 22.6566 18.6907C22.1629 18.4432 21.562 18.6428 21.3145 19.1366L23.1025 20.0328ZM20.8916 20.1451C20.7743 20.6848 21.1167 21.2174 21.6564 21.3347C22.196 21.452 22.7286 21.1097 22.846 20.57L20.8916 20.1451ZM23.1044 20.9886C22.5694 20.8517 22.0246 21.1744 21.8877 21.7094C21.7507 22.2444 22.0734 22.7892 22.6085 22.9261L23.1044 20.9886ZM23.7798 23C24.3321 23 24.7798 22.5523 24.7798 22C24.7798 21.4477 24.3321 21 23.7798 21V23ZM27.265 21C26.7127 21 26.265 21.4477 26.265 22C26.265 22.5523 26.7127 23 27.265 23V21ZM28.4268 23C28.9791 23 29.4268 22.5523 29.4268 22C29.4268 21.4477 28.9791 21 28.4268 21V23ZM31.912 21C31.3597 21 30.912 21.4477 30.912 22C30.912 22.5523 31.3597 23 31.912 23V21ZM33.6105 22.1613C33.9482 21.7243 33.8677 21.0963 33.4307 20.7586C32.9936 20.4209 32.3656 20.5014 32.0279 20.9385L33.6105 22.1613ZM34.7703 18.483C34.2989 18.7707 34.1498 19.3861 34.4375 19.8575C34.7251 20.329 35.3405 20.478 35.812 20.1904L34.7703 18.483ZM36.6868 19.727C37.1897 19.4987 37.4122 18.9059 37.1839 18.4031C36.9555 17.9002 36.3628 17.6777 35.8599 17.906L36.6868 19.727ZM39.4328 17.0187C38.8815 17.0521 38.4617 17.5261 38.4952 18.0774C38.5287 18.6287 39.0027 19.0485 39.5539 19.015L39.4328 17.0187ZM40.6643 19C41.2166 19 41.6643 18.5523 41.6643 18C41.6643 17.4477 41.2166 17 40.6643 17V19ZM44.3555 17C43.8032 17 43.3555 17.4477 43.3555 18C43.3555 18.5523 43.8032 19 44.3555 19V17ZM45.5859 19C46.1382 19 46.5859 18.5523 46.5859 18C46.5859 17.4477 46.1382 17 45.5859 17V19ZM49.2771 17C48.7248 17 48.2771 17.4477 48.2771 18C48.2771 18.5523 48.7248 19 49.2771 19V17ZM50.0284 19.0089C50.576 19.0812 51.0784 18.6959 51.1506 18.1483C51.2229 17.6008 50.8376 17.0984 50.29 17.0261L50.0284 19.0089ZM52.3083 18.1959C51.9734 17.7567 51.3459 17.6721 50.9067 18.007C50.4675 18.3418 50.383 18.9693 50.7178 19.4085L52.3083 18.1959ZM51.0026 19.8876C51.2771 20.3668 51.8881 20.5327 52.3674 20.2582C52.8466 19.9837 53.0125 19.3726 52.738 18.8934L51.0026 19.8876ZM53.994 21.086C53.7195 20.6068 53.1085 20.4409 52.6293 20.7154C52.15 20.9899 51.9841 21.601 52.2586 22.0802L53.994 21.086ZM52.47 22.4491C52.7429 22.9292 53.3533 23.0972 53.8335 22.8243C54.3136 22.5514 54.4816 21.9409 54.2087 21.4608L52.47 22.4491ZM54.2401 21.5172C53.977 21.0316 53.3701 20.8512 52.8845 21.1142C52.3989 21.3773 52.2184 21.9842 52.4815 22.4698L54.2401 21.5172ZM53.8402 23C54.3925 23 54.8402 22.5523 54.8402 22C54.8402 21.4477 54.3925 21 53.8402 21V23ZM56.6958 21C56.1436 21 55.6958 21.4477 55.6958 22C55.6958 22.5523 56.1436 23 56.6958 23V21ZM57.6477 23C58.2 23 58.6477 22.5523 58.6477 22C58.6477 21.4477 58.2 21 57.6477 21V23ZM60.5034 21C59.9511 21 59.5034 21.4477 59.5034 22C59.5034 22.5523 59.9511 23 60.5034 23V21ZM61.4552 23C62.0075 23 62.4552 22.5523 62.4552 22C62.4552 21.4477 62.0075 21 61.4552 21V23ZM64.3109 21C63.7586 21 63.3109 21.4477 63.3109 22C63.3109 22.5523 63.7586 23 64.3109 23V21ZM65.2628 23C65.8151 23 66.2628 22.5523 66.2628 22C66.2628 21.4477 65.8151 21 65.2628 21V23ZM68.1184 21C67.5661 21 67.1184 21.4477 67.1184 22C67.1184 22.5523 67.5661 23 68.1184 23V21ZM69.0703 23C69.6226 23 70.0703 22.5523 70.0703 22C70.0703 21.4477 69.6226 21 69.0703 21V23ZM71.9259 21C71.3737 21 70.9259 21.4477 70.9259 22C70.9259 22.5523 71.3737 23 71.9259 23V21ZM72.8778 23C73.4301 23 73.8778 22.5523 73.8778 22C73.8778 21.4477 73.4301 21 72.8778 21V23ZM75.7335 21C75.1812 21 74.7335 21.4477 74.7335 22C74.7335 22.5523 75.1812 23 75.7335 23V21ZM76.6854 23C77.2376 23 77.6854 22.5523 77.6854 22C77.6854 21.4477 77.2376 21 76.6854 21V23ZM79.541 21C78.9887 21 78.541 21.4477 78.541 22C78.541 22.5523 78.9887 23 79.541 23V21ZM80.4929 23C81.0452 23 81.4929 22.5523 81.4929 22C81.4929 21.4477 81.0452 21 80.4929 21V23ZM83.3485 21C82.7962 21 82.3485 21.4477 82.3485 22C82.3485 22.5523 82.7962 23 83.3485 23V21ZM84.3004 23C84.8527 23 85.3004 22.5523 85.3004 22C85.3004 21.4477 84.8527 21 84.3004 21V23ZM87.156 21C86.6038 21 86.156 21.4477 86.156 22C86.156 22.5523 86.6038 23 87.156 23V21ZM88.7497 22.1613C89.0873 21.7243 89.0068 21.0963 88.5698 20.7586C88.1328 20.4209 87.5047 20.5014 87.1671 20.9385L88.7497 22.1613ZM89.9094 18.483C89.438 18.7707 89.289 19.3861 89.5766 19.8575C89.8643 20.329 90.4796 20.478 90.9511 20.1904L89.9094 18.483ZM91.8259 19.727C92.3288 19.4987 92.5514 18.9059 92.323 18.4031C92.0947 17.9002 91.5019 17.6777 90.999 17.906L91.8259 19.727ZM94.5719 17.0187C94.0207 17.0521 93.6009 17.5261 93.6343 18.0774C93.6678 18.6287 94.1418 19.0485 94.6931 19.015L94.5719 17.0187ZM95.8035 19C96.3557 19 96.8035 18.5523 96.8035 18C96.8035 17.4477 96.3557 17 95.8035 17V19ZM99.4947 17C98.9424 17 98.4947 17.4477 98.4947 18C98.4947 18.5523 98.9424 19 99.4947 19V17ZM100.725 19C101.277 19 101.725 18.5523 101.725 18C101.725 17.4477 101.277 17 100.725 17V19ZM104.416 17C103.864 17 103.416 17.4477 103.416 18C103.416 18.5523 103.864 19 104.416 19V17ZM105.168 19.0089C105.715 19.0812 106.218 18.6959 106.29 18.1483C106.362 17.6008 105.977 17.0983 105.429 17.0261L105.168 19.0089ZM107.447 18.1959C107.113 17.7567 106.485 17.6721 106.046 18.007C105.607 18.3418 105.522 18.9693 105.857 19.4085L107.447 18.1959ZM106.142 19.8876C106.416 20.3668 107.027 20.5327 107.506 20.2582C107.986 19.9837 108.152 19.3726 107.877 18.8934L106.142 19.8876ZM109.133 21.086C108.859 20.6068 108.248 20.4409 107.768 20.7154C107.289 20.9899 107.123 21.601 107.398 22.0802L109.133 21.086ZM107.609 22.4491C107.882 22.9292 108.493 23.0972 108.973 22.8243C109.453 22.5513 109.621 21.9409 109.348 21.4607L107.609 22.4491ZM109.379 21.5173C109.116 21.0316 108.509 20.8512 108.024 21.1142C107.538 21.3773 107.358 21.9842 107.621 22.4698L109.379 21.5173ZM109.069 23C109.621 23 110.069 22.5523 110.069 22C110.069 21.4477 109.621 21 109.069 21V23ZM112.463 21C111.911 21 111.463 21.4477 111.463 22C111.463 22.5523 111.911 23 112.463 23V21ZM113.595 23C114.147 23 114.595 22.5523 114.595 22C114.595 21.4477 114.147 21 113.595 21V23ZM116.989 21C116.437 21 115.989 21.4477 115.989 22C115.989 22.5523 116.437 23 116.989 23V21ZM118.201 22.9147C118.734 22.7701 119.049 22.2208 118.905 21.6878C118.76 21.1548 118.211 20.8398 117.678 20.9844L118.201 22.9147ZM117.976 20.4274C118.152 20.9509 118.719 21.2325 119.242 21.0565C119.766 20.8805 120.047 20.3134 119.871 19.79L117.976 20.4274ZM119.285 18.7655C118.973 18.3101 118.35 18.1942 117.895 18.5067C117.44 18.8192 117.324 19.4417 117.636 19.8971L119.285 18.7655ZM115.829 17.4601C116.174 17.8913 116.803 17.9611 117.234 17.616C117.666 17.2709 117.735 16.6416 117.39 16.2104L115.829 17.4601ZM116.717 15.3904C116.362 14.9678 115.731 14.9135 115.308 15.2691C114.886 15.6247 114.831 16.2555 115.187 16.6781L116.717 15.3904ZM113.149 14.4303C113.535 14.8255 114.168 14.8333 114.564 14.4475C114.959 14.0618 114.967 13.4287 114.581 13.0334L113.149 14.4303ZM113.831 12.2833C113.435 11.8976 112.802 11.9055 112.417 12.3008C112.031 12.6961 112.039 13.3293 112.434 13.7149L113.831 12.2833ZM110.186 11.6777C110.608 12.0332 111.239 11.9788 111.595 11.5561C111.95 11.1335 111.896 10.5027 111.473 10.1472L110.186 11.6777ZM110.653 9.47443C110.222 9.1294 109.593 9.1993 109.248 9.63054C108.903 10.0618 108.972 10.6911 109.404 11.0361L110.653 9.47443ZM106.966 9.22899C107.422 9.54136 108.044 9.42537 108.356 8.96991C108.669 8.51445 108.553 7.892 108.097 7.57963L106.966 9.22899ZM107.215 6.99051C106.752 6.6894 106.133 6.82063 105.832 7.28361C105.531 7.74659 105.662 8.36601 106.125 8.66712L107.215 6.99051ZM103.522 7.10748C104.006 7.37375 104.614 7.19736 104.881 6.7135C105.147 6.22964 104.97 5.62154 104.487 5.35527L103.522 7.10748ZM103.551 4.85535C103.061 4.60102 102.457 4.79227 102.203 5.28251C101.949 5.77275 102.14 6.37634 102.63 6.63067L103.551 4.85535ZM99.8871 5.33339C100.395 5.55099 100.983 5.3159 101.2 4.80829C101.418 4.30069 101.183 3.71278 100.675 3.49518L99.8871 5.33339ZM99.6953 3.08927C99.1825 2.88418 98.6005 3.13362 98.3955 3.64641C98.1904 4.1592 98.4398 4.74116 98.9526 4.94625L99.6953 3.08927ZM96.0957 3.92389C96.6222 4.09071 97.1842 3.79914 97.3511 3.27265C97.5179 2.74616 97.2263 2.18413 96.6998 2.01731L96.0957 3.92389ZM95.6849 1.70938C95.1544 1.55554 94.5997 1.86082 94.4459 2.39125C94.292 2.92167 94.5973 3.47638 95.1278 3.63022L95.6849 1.70938ZM92.1847 2.89298C92.725 3.00735 93.2557 2.66206 93.3701 2.12175C93.4845 1.58144 93.1392 1.05071 92.5989 0.936338L92.1847 2.89298ZM91.5583 0.729402C91.0154 0.62834 90.4933 0.986569 90.3922 1.52953C90.2912 2.07249 90.6494 2.59457 91.1924 2.69563L91.5583 0.729402ZM88.1914 2.25074C88.7403 2.31156 89.2346 1.91586 89.2954 1.36693C89.3562 0.818008 88.9605 0.323717 88.4116 0.262905L88.1914 2.25074ZM87.3559 0.159053C86.8056 0.111736 86.3212 0.519446 86.2739 1.0697C86.2266 1.61995 86.6343 2.10438 87.1845 2.1517L87.3559 0.159053ZM84.1541 2.0031C84.7063 2.00986 85.1595 1.56767 85.1663 1.01542C85.173 0.463179 84.7308 0.0100145 84.1786 0.0032509L84.1541 2.0031ZM83.1432 0C82.5909 0 82.1432 0.447715 82.1432 1C82.1432 1.55228 82.5909 2 83.1432 2V0ZM80.1163 2C80.6686 2 81.1163 1.55228 81.1163 1C81.1163 0.447715 80.6686 0 80.1163 0V2ZM79.1073 0C78.5551 0 78.1073 0.447715 78.1073 1C78.1073 1.55228 78.5551 2 79.1073 2V0ZM76.0805 2C76.6328 2 77.0805 1.55228 77.0805 1C77.0805 0.447715 76.6328 0 76.0805 0V2ZM75.0715 0C74.5192 0 74.0715 0.447715 74.0715 1C74.0715 1.55228 74.5192 2 75.0715 2V0ZM72.0447 2C72.5969 2 73.0447 1.55228 73.0447 1C73.0447 0.447715 72.5969 0 72.0447 0V2ZM71.0357 0C70.4834 0 70.0357 0.447715 70.0357 1C70.0357 1.55228 70.4834 2 71.0357 2V0ZM68.0088 2C68.5611 2 69.0088 1.55228 69.0088 1C69.0088 0.447715 68.5611 0 68.0088 0V2ZM66.9999 0C66.4476 0 65.9999 0.447715 65.9999 1C65.9999 1.55228 66.4476 2 66.9999 2V0ZM63.973 2C64.5253 2 64.973 1.55228 64.973 1C64.973 0.447715 64.5253 0 63.973 0V2ZM62.9641 0C62.4118 0 61.9641 0.447715 61.9641 1C61.9641 1.55228 62.4118 2 62.9641 2V0ZM59.9372 2C60.4895 2 60.9372 1.55228 60.9372 1C60.9372 0.447715 60.4895 0 59.9372 0V2ZM58.9282 0C58.3759 0 57.9282 0.447715 57.9282 1C57.9282 1.55228 58.3759 2 58.9282 2V0ZM55.9014 2C56.4536 2 56.9014 1.55228 56.9014 1C56.9014 0.447715 56.4536 0 55.9014 0V2ZM54.8924 0C54.3401 0 53.8924 0.447715 53.8924 1C53.8924 1.55228 54.3401 2 54.8924 2V0ZM51.8655 2C52.4178 2 52.8655 1.55228 52.8655 1C52.8655 0.447715 52.4178 0 51.8655 0V2ZM50.8566 0C50.3043 0 49.8566 0.447715 49.8566 1C49.8566 1.55228 50.3043 2 50.8566 2V0ZM47.8297 2C48.382 2 48.8297 1.55228 48.8297 1C48.8297 0.447715 48.382 0 47.8297 0V2ZM46.8208 0C46.2685 0 45.8208 0.447715 45.8208 1C45.8208 1.55228 46.2685 2 46.8208 2V0ZM43.7939 2C44.3462 2 44.7939 1.55228 44.7939 1C44.7939 0.447715 44.3462 0 43.7939 0V2ZM42.7849 0C42.2327 0 41.7849 0.447715 41.7849 1C41.7849 1.55228 42.2327 2 42.7849 2V0ZM39.7581 2C40.3104 2 40.7581 1.55228 40.7581 1C40.7581 0.447715 40.3104 0 39.7581 0V2ZM38.7491 0C38.1968 0 37.7491 0.447715 37.7491 1C37.7491 1.55228 38.1968 2 38.7491 2V0ZM35.7222 2C36.2745 2 36.7222 1.55228 36.7222 1C36.7222 0.447715 36.2745 0 35.7222 0V2ZM34.7133 0C34.161 0 33.7133 0.447715 33.7133 1C33.7133 1.55228 34.161 2 34.7133 2V0ZM31.6864 2C32.2387 2 32.6864 1.55228 32.6864 1C32.6864 0.447715 32.2387 0 31.6864 0V2ZM30.6775 0C30.1252 0 29.6775 0.447715 29.6775 1C29.6775 1.55228 30.1252 2 30.6775 2V0ZM27.6506 2C28.2029 2 28.6506 1.55228 28.6506 1C28.6506 0.447715 28.2029 0 27.6506 0V2ZM26.6416 0C26.0894 0 25.6416 0.447715 25.6416 1C25.6416 1.55228 26.0894 2 26.6416 2V0ZM23.6148 2C24.1671 2 24.6148 1.55228 24.6148 1C24.6148 0.447715 24.1671 0 23.6148 0V2ZM23.1103 0C22.911 0 22.7166 0.0244734 22.5301 0.0713496L23.0177 2.011C23.0446 2.00425 23.0752 2 23.1103 2V0ZM20.7882 2.77946C20.8228 2.96858 20.8812 3.15564 20.9638 3.337L22.7838 2.50766C22.7692 2.47574 22.7604 2.4461 22.7554 2.41887L20.7882 2.77946ZM20.9638 3.337L21.1971 3.84891L23.017 3.01957L22.7838 2.50766L20.9638 3.337ZM22.5967 6.92037L23.0633 7.94419L24.8832 7.11485L24.4167 6.09103L22.5967 6.92037ZM24.4629 11.0157L24.6962 11.5276L26.5162 10.6982L26.2829 10.1863L24.4629 11.0157ZM24.6962 11.5276C24.7124 11.563 24.7264 11.599 24.7383 11.6355L26.6392 11.0137C26.6043 10.9069 26.5633 10.8016 26.5162 10.6982L24.6962 11.5276ZM24.7257 12.3171C24.7124 12.3531 24.6971 12.3886 24.6796 12.4234L26.4676 13.3196C26.5184 13.2181 26.5633 13.1144 26.6022 13.0089L24.7257 12.3171ZM24.6796 12.4234L24.4553 12.8709L26.2432 13.7672L26.4676 13.3196L24.6796 12.4234ZM23.1092 15.5562L22.6606 16.4513L24.4485 17.3475L24.8972 16.4524L23.1092 15.5562ZM21.3145 19.1366L21.0902 19.5841L22.8781 20.4803L23.1025 20.0328L21.3145 19.1366ZM21.0902 19.5841C20.9992 19.7656 20.9332 19.9539 20.8916 20.1451L22.846 20.57C22.8519 20.5425 22.862 20.5126 22.8781 20.4803L21.0902 19.5841ZM22.6085 22.9261C22.798 22.9747 22.9959 23 23.199 23V21C23.1629 21 23.1316 20.9956 23.1044 20.9886L22.6085 22.9261ZM23.199 23H23.7798V21H23.199V23ZM27.265 23H28.4268V21H27.265V23ZM31.912 23H32.4929V21H31.912V23ZM33.32 22.562C33.413 22.4252 33.5099 22.2916 33.6105 22.1613L32.0279 20.9385C31.9025 21.1008 31.7817 21.2674 31.6657 21.438L33.32 22.562ZM35.812 20.1904C36.0936 20.0185 36.3857 19.8638 36.6868 19.727L35.8599 17.906C35.4848 18.0763 35.121 18.2691 34.7703 18.483L35.812 20.1904ZM39.5539 19.015C39.718 19.005 39.8831 19 40.0491 19V17C39.8426 17 39.6371 17.0063 39.4328 17.0187L39.5539 19.015ZM40.0491 19H40.6643V17H40.0491V19ZM44.3555 19H45.5859V17H44.3555V19ZM49.2771 19H49.8923V17H49.2771V19ZM49.8923 19C49.9383 19 49.9838 19.003 50.0284 19.0089L50.29 17.0261C50.1591 17.0088 50.0263 17 49.8923 17V19ZM50.7178 19.4085C50.7451 19.4443 50.7704 19.4822 50.7932 19.5222L52.5286 18.528C52.462 18.4118 52.3884 18.3009 52.3083 18.1959L50.7178 19.4085ZM50.7932 19.5222L51.0026 19.8876L52.738 18.8934L52.5286 18.528L50.7932 19.5222ZM52.2586 22.0802L52.468 22.4456L54.2034 21.4514L53.994 21.086L52.2586 22.0802ZM52.468 22.4456C52.4686 22.4468 52.4693 22.4479 52.47 22.4491L54.2087 21.4608C54.207 21.4577 54.2052 21.4546 54.2034 21.4514L52.468 22.4456ZM52.4815 22.4698C52.4821 22.471 52.4827 22.4721 52.4833 22.4733L54.2452 21.5267C54.2435 21.5236 54.2418 21.5204 54.2401 21.5172L52.4815 22.4698ZM53.3643 23H53.8402V21H53.3643V23ZM56.6958 23H57.6477V21H56.6958V23ZM60.5034 23H61.4552V21H60.5034V23ZM64.3109 23H65.2628V21H64.3109V23ZM68.1184 23H69.0703V21H68.1184V23ZM71.9259 23H72.8778V21H71.9259V23ZM75.7335 23H76.6854V21H75.7335V23ZM79.541 23H80.4929V21H79.541V23ZM83.3485 23H84.3004V21H83.3485V23ZM87.156 23H87.632V21H87.156V23ZM88.4591 22.562C88.5521 22.4252 88.649 22.2916 88.7497 22.1613L87.1671 20.9385C87.0416 21.1008 86.9208 21.2674 86.8049 21.438L88.4591 22.562ZM90.9511 20.1904C91.2327 20.0185 91.5249 19.8638 91.8259 19.727L90.999 17.906C90.624 18.0763 90.2601 18.2691 89.9094 18.483L90.9511 20.1904ZM94.6931 19.015C94.8572 19.005 95.0223 19 95.1883 19V17C94.9818 17 94.7763 17.0063 94.5719 17.0187L94.6931 19.015ZM95.1883 19H95.8035V17H95.1883V19ZM99.4947 19H100.725V17H99.4947V19ZM104.416 19H105.031V17H104.416V19ZM105.031 19C105.077 19 105.123 19.003 105.168 19.0089L105.429 17.0261C105.298 17.0088 105.165 17 105.031 17V19ZM105.857 19.4085C105.884 19.4443 105.909 19.4822 105.932 19.5222L107.668 18.528C107.601 18.4118 107.527 18.3009 107.447 18.1959L105.857 19.4085ZM105.932 19.5222L106.142 19.8876L107.877 18.8934L107.668 18.528L105.932 19.5222ZM107.398 22.0802L107.607 22.4456L109.343 21.4514L109.133 21.086L107.398 22.0802ZM107.607 22.4457C107.608 22.4469 107.608 22.448 107.609 22.4491L109.348 21.4607C109.346 21.4576 109.344 21.4544 109.342 21.4513L107.607 22.4457ZM107.621 22.4698C107.621 22.471 107.622 22.4722 107.623 22.4733L109.384 21.5267C109.383 21.5235 109.381 21.5204 109.379 21.5173L107.621 22.4698ZM108.503 23H109.069V21H108.503V23ZM112.463 23H113.595V21H112.463V23ZM116.989 23H117.555V21H116.989V23ZM117.555 23C117.778 23 117.995 22.9707 118.201 22.9147L117.678 20.9844C117.643 20.9939 117.602 21 117.555 21V23ZM119.871 19.79C119.803 19.5869 119.707 19.3905 119.583 19.2051L117.92 20.3164C117.946 20.3557 117.964 20.3929 117.976 20.4274L119.871 19.79ZM119.583 19.2051C119.485 19.0578 119.385 18.9113 119.285 18.7655L117.636 19.8971C117.732 20.0362 117.826 20.176 117.92 20.3164L119.583 19.2051ZM117.39 16.2104C117.169 15.934 116.945 15.6606 116.717 15.3904L115.187 16.6781C115.404 16.9358 115.618 17.1965 115.829 17.4601L117.39 16.2104ZM114.581 13.0334C114.334 12.7801 114.084 12.5301 113.831 12.2833L112.434 13.7149C112.675 13.9502 112.914 14.1887 113.149 14.4303L114.581 13.0334ZM111.473 10.1472C111.202 9.91944 110.929 9.69518 110.653 9.47443L109.404 11.0361C109.667 11.2466 109.928 11.4605 110.186 11.6777L111.473 10.1472ZM108.097 7.57963C107.806 7.37961 107.512 7.18322 107.215 6.99051L106.125 8.66712C106.408 8.85091 106.688 9.03821 106.966 9.22899L108.097 7.57963ZM104.487 5.35527C104.177 5.18481 103.865 5.01816 103.551 4.85535L102.63 6.63067C102.929 6.78595 103.227 6.94491 103.522 7.10748L104.487 5.35527ZM100.675 3.49518C100.35 3.35591 100.024 3.2206 99.6953 3.08927L98.9526 4.94625C99.2658 5.07151 99.5773 5.20056 99.8871 5.33339L100.675 3.49518ZM96.6998 2.01731C96.363 1.91058 96.0246 1.80792 95.6849 1.70938L95.1278 3.63022C95.4518 3.7242 95.7745 3.8221 96.0957 3.92389L96.6998 2.01731ZM92.5989 0.936338C92.2532 0.863165 91.9063 0.794173 91.5583 0.729402L91.1924 2.69563C91.5242 2.7574 91.855 2.8232 92.1847 2.89298L92.5989 0.936338ZM88.4116 0.262905C88.0606 0.224016 87.7086 0.189386 87.3559 0.159053L87.1845 2.1517C87.521 2.18063 87.8566 2.21365 88.1914 2.25074L88.4116 0.262905ZM84.1786 0.0032509C84.0018 0.0010851 83.8248 0 83.6476 0V2C83.8166 2 83.9854 2.00104 84.1541 2.0031L84.1786 0.0032509ZM83.6476 0H83.1432V2H83.6476V0ZM80.1163 0H79.1073V2H80.1163V0ZM76.0805 0H75.0715V2H76.0805V0ZM72.0447 0H71.0357V2H72.0447V0ZM68.0088 0H66.9999V2H68.0088V0ZM63.973 0H62.9641V2H63.973V0ZM59.9372 0H58.9282V2H59.9372V0ZM55.9014 0H54.8924V2H55.9014V0ZM51.8655 0H50.8566V2H51.8655V0ZM47.8297 0H46.8208V2H47.8297V0ZM43.7939 0H42.7849V2H43.7939V0ZM39.7581 0H38.7491V2H39.7581V0ZM35.7222 0H34.7133V2H35.7222V0ZM31.6864 0H30.6775V2H31.6864V0ZM27.6506 0H26.6416V2H27.6506V0ZM23.6148 0H23.1103V2H23.6148V0Z" class="project-registration-template-card-svg"/>
<path d="M102.026 10.8423L101.647 11.4893V11.4893L102.026 10.8423ZM36.3921 6.25C35.2274 6.25 34.2832 7.19417 34.2832 8.35885H35.7832C35.7832 8.02259 36.0558 7.75 36.3921 7.75V6.25ZM38.6744 6.25H36.3921V7.75H38.6744V6.25ZM40.7832 8.35885C40.7832 7.19417 39.839 6.25 38.6744 6.25V7.75C39.0106 7.75 39.2832 8.02259 39.2832 8.35885H40.7832ZM40.7832 10.6285V8.35885H39.2832V10.6285H40.7832ZM38.6744 12.7374C39.839 12.7374 40.7832 11.7932 40.7832 10.6285H39.2832C39.2832 10.9648 39.0106 11.2374 38.6744 11.2374V12.7374ZM36.3921 12.7374H38.6744V11.2374H36.3921V12.7374ZM34.2832 10.6285C34.2832 11.7932 35.2274 12.7374 36.3921 12.7374V11.2374C36.0558 11.2374 35.7832 10.9648 35.7832 10.6285H34.2832ZM34.2832 8.35885V10.6285H35.7832V8.35885H34.2832ZM44.4123 6.25C43.2476 6.25 42.3035 7.19417 42.3035 8.35885H43.8035C43.8035 8.02259 44.076 7.75 44.4123 7.75V6.25ZM46.6946 6.25H44.4123V7.75H46.6946V6.25ZM48.8035 8.35885C48.8035 7.19417 47.8593 6.25 46.6946 6.25V7.75C47.0309 7.75 47.3035 8.02259 47.3035 8.35885H48.8035ZM48.8035 10.6285V8.35885H47.3035V10.6285H48.8035ZM46.6946 12.7374C47.8593 12.7374 48.8035 11.7932 48.8035 10.6285H47.3035C47.3035 10.9648 47.0309 11.2374 46.6946 11.2374V12.7374ZM44.4123 12.7374H46.6946V11.2374H44.4123V12.7374ZM42.3035 10.6285C42.3035 11.7932 43.2476 12.7374 44.4123 12.7374V11.2374C44.076 11.2374 43.8035 10.9648 43.8035 10.6285H42.3035ZM42.3035 8.35885V10.6285H43.8035V8.35885H42.3035ZM51.8237 8.35885C51.8237 8.02259 52.0963 7.75 52.4325 7.75V6.25C51.2679 6.25 50.3237 7.19417 50.3237 8.35885H51.8237ZM51.8237 10.6285V8.35885H50.3237V10.6285H51.8237ZM52.4325 11.2374C52.0963 11.2374 51.8237 10.9648 51.8237 10.6285H50.3237C50.3237 11.7932 51.2679 12.7374 52.4325 12.7374V11.2374ZM54.7148 11.2374H52.4325V12.7374H54.7148V11.2374ZM55.3237 10.6285C55.3237 10.9648 55.0511 11.2374 54.7148 11.2374V12.7374C55.8795 12.7374 56.8237 11.7932 56.8237 10.6285H55.3237ZM55.3237 8.35885V10.6285H56.8237V8.35885H55.3237ZM54.7148 7.75C55.0511 7.75 55.3237 8.02259 55.3237 8.35885H56.8237C56.8237 7.19416 55.8795 6.25 54.7148 6.25V7.75ZM52.4325 7.75H54.7148V6.25H52.4325V7.75ZM60.3589 6.25C59.1942 6.25 58.25 7.19417 58.25 8.35885H59.75C59.75 8.02259 60.0226 7.75 60.3589 7.75V6.25ZM62.6411 6.25H60.3589V7.75H62.6411V6.25ZM64.75 8.35885C64.75 7.19416 63.8058 6.25 62.6411 6.25V7.75C62.9774 7.75 63.25 8.02259 63.25 8.35885H64.75ZM64.75 10.6285V8.35885H63.25V10.6285H64.75ZM62.6411 12.7374C63.8058 12.7374 64.75 11.7932 64.75 10.6285H63.25C63.25 10.9648 62.9774 11.2374 62.6411 11.2374V12.7374ZM60.3589 12.7374H62.6411V11.2374H60.3589V12.7374ZM58.25 10.6285C58.25 11.7932 59.1942 12.7374 60.3589 12.7374V11.2374C60.0226 11.2374 59.75 10.9648 59.75 10.6285H58.25ZM58.25 8.35885V10.6285H59.75V8.35885H58.25ZM67.75 8.35885C67.75 8.02259 68.0226 7.75 68.3589 7.75V6.25C67.1942 6.25 66.25 7.19417 66.25 8.35885H67.75ZM67.75 10.6285V8.35885H66.25V10.6285H67.75ZM68.3589 11.2374C68.0226 11.2374 67.75 10.9648 67.75 10.6285H66.25C66.25 11.7932 67.1942 12.7374 68.3589 12.7374V11.2374ZM70.6411 11.2374H68.3589V12.7374H70.6411V11.2374ZM71.25 10.6285C71.25 10.9648 70.9774 11.2374 70.6411 11.2374V12.7374C71.8058 12.7374 72.75 11.7932 72.75 10.6285H71.25ZM71.25 8.35885V10.6285H72.75V8.35885H71.25ZM70.6411 7.75C70.9774 7.75 71.25 8.02259 71.25 8.35885H72.75C72.75 7.19416 71.8058 6.25 70.6411 6.25V7.75ZM68.3589 7.75H70.6411V6.25H68.3589V7.75ZM76.303 6.25C75.1692 6.25 74.25 7.16916 74.25 8.30301H75.75C75.75 7.99759 75.9976 7.75 76.303 7.75V6.25ZM78.697 6.25H76.303V7.75H78.697V6.25ZM80.75 8.30301C80.75 7.16916 79.8308 6.25 78.697 6.25V7.75C79.0024 7.75 79.25 7.99759 79.25 8.30301H80.75ZM80.75 10.697V8.30301H79.25V10.697H80.75ZM78.697 12.75C79.8308 12.75 80.75 11.8308 80.75 10.697H79.25C79.25 11.0024 79.0024 11.25 78.697 11.25V12.75ZM76.303 12.75H78.697V11.25H76.303V12.75ZM74.25 10.697C74.25 11.8308 75.1692 12.75 76.303 12.75V11.25C75.9976 11.25 75.75 11.0024 75.75 10.697H74.25ZM74.25 8.30301V10.697H75.75V8.30301H74.25ZM86.75 7.71655C86.75 7.73502 86.735 7.75 86.7165 7.75V6.25C85.9066 6.25 85.25 6.9066 85.25 7.71655H86.75ZM86.75 10.6411V7.71655H85.25V10.6411H86.75ZM87.3589 11.25C87.0226 11.25 86.75 10.9774 86.75 10.6411H85.25C85.25 11.8058 86.1942 12.75 87.3589 12.75V11.25ZM101.712 11.25H87.3589V12.75H101.712V11.25ZM101.647 11.4893C101.634 11.4818 101.607 11.4574 101.593 11.4184C101.581 11.386 101.583 11.3605 101.588 11.3448C101.592 11.3291 101.603 11.306 101.629 11.2841C101.662 11.2577 101.697 11.25 101.712 11.25V12.75C103.11 12.75 103.611 10.9027 102.405 10.1954L101.647 11.4893ZM87.8779 7.75C92.7183 7.75 97.4711 9.04078 101.647 11.4893L102.405 10.1954C97.9998 7.61192 92.9851 6.25 87.8779 6.25V7.75ZM86.7165 7.75H87.8779V6.25H86.7165V7.75Z" class="project-registration-template-card-svg"/>
<path fill-rule="evenodd" clip-rule="evenodd" d="M91.25 21C91.25 21 91.25 21 91.25 21C91.25 22.8502 92.7498 24.35 94.6 24.35C95.8648 24.35 96.9645 23.6494 97.5346 22.6167H99.4654C100.036 23.6494 101.135 24.35 102.4 24.35C104.25 24.35 105.75 22.8502 105.75 21C105.75 21 105.75 21 105.75 21H104.25C104.25 21 104.25 21 104.25 21C104.25 22.0218 103.422 22.85 102.4 22.85C101.596 22.85 100.909 22.3363 100.655 21.6168L100.478 21.1167H99.9479H97.0521H96.5217L96.3449 21.6168C96.0906 22.3363 95.4043 22.85 94.6 22.85C93.5783 22.85 92.75 22.0218 92.75 21C92.75 21 92.75 21 92.75 21H91.25Z" class="project-registration-template-card-svg"/>
<path fill-rule="evenodd" clip-rule="evenodd" d="M36.25 21C36.25 21 36.25 21 36.25 21C36.25 22.8502 37.7498 24.35 39.6 24.35C40.8648 24.35 41.9645 23.6494 42.5346 22.6167H44.4654C45.0355 23.6494 46.1352 24.35 47.4 24.35C49.2502 24.35 50.75 22.8502 50.75 21C50.75 21 50.75 21 50.75 21H49.25C49.25 21 49.25 21 49.25 21C49.25 22.0218 48.4217 22.85 47.4 22.85C46.5957 22.85 45.9094 22.3363 45.6551 21.6168L45.4783 21.1167H44.9479H42.0521H41.5217L41.3449 21.6168C41.0906 22.3363 40.4043 22.85 39.6 22.85C38.5783 22.85 37.75 22.0218 37.75 21C37.75 21 37.75 21 37.75 21H36.25Z" class="project-registration-template-card-svg"/>
<path d="M2 6H8" class="project-registration-template-card-svg-stroke" stroke-width="3" stroke-linecap="round"/>
<path d="M9 11H17" class="project-registration-template-card-svg-stroke" stroke-width="3" stroke-linecap="round"/>
<path d="M5 17H10" class="project-registration-template-card-svg-stroke" stroke-width="3" stroke-linecap="round"/>
<path fill-rule="evenodd" clip-rule="evenodd" d="M32.5 30.35C32.2239 30.35 32 30.5739 32 30.85V32.85C32 33.1262 32.2239 33.35 32.5 33.35H48.5C48.7761 33.35 49 33.1262 49 32.85V30.85C49 30.5739 48.7761 30.35 48.5 30.35H32.5ZM33 34.85C33 34.5739 33.2239 34.35 33.5 34.35H47.5C47.7761 34.35 48 34.5739 48 34.85V44.85C48 45.1262 47.7761 45.35 47.5 45.35H33.5C33.2239 45.35 33 45.1262 33 44.85V34.85ZM38 36.35C37.4477 36.35 37 36.7978 37 37.35C37 37.9023 37.4477 38.35 38 38.35H43C43.5523 38.35 44 37.9023 44 37.35C44 36.7978 43.5523 36.35 43 36.35H38Z" class="project-registration-template-card-svg"/>
<path fill-rule="evenodd" clip-rule="evenodd" d="M52.5 30.35C52.2239 30.35 52 30.5739 52 30.85V32.85C52 33.1262 52.2239 33.35 52.5 33.35H68.5C68.7761 33.35 69 33.1262 69 32.85V30.85C69 30.5739 68.7761 30.35 68.5 30.35H52.5ZM53 34.85C53 34.5739 53.2239 34.35 53.5 34.35H67.5C67.7761 34.35 68 34.5739 68 34.85V44.85C68 45.1262 67.7761 45.35 67.5 45.35H53.5C53.2239 45.35 53 45.1262 53 44.85V34.85ZM58 36.35C57.4477 36.35 57 36.7978 57 37.35C57 37.9023 57.4477 38.35 58 38.35H63C63.5523 38.35 64 37.9023 64 37.35C64 36.7978 63.5523 36.35 63 36.35H58Z" class="project-registration-template-card-svg"/>
<path fill-rule="evenodd" clip-rule="evenodd" d="M72.5 30.35C72.2239 30.35 72 30.5739 72 30.85V32.85C72 33.1262 72.2239 33.35 72.5 33.35H88.5C88.7761 33.35 89 33.1262 89 32.85V30.85C89 30.5739 88.7761 30.35 88.5 30.35H72.5ZM73 34.85C73 34.5739 73.2239 34.35 73.5 34.35H87.5C87.7761 34.35 88 34.5739 88 34.85V44.85C88 45.1262 87.7761 45.35 87.5 45.35H73.5C73.2239 45.35 73 45.1262 73 44.85V34.85ZM78 36.35C77.4477 36.35 77 36.7978 77 37.35C77 37.9023 77.4477 38.35 78 38.35H83C83.5523 38.35 84 37.9023 84 37.35C84 36.7978 83.5523 36.35 83 36.35H78Z" class="project-registration-template-card-svg"/>
</svg>
