<svg width="108" height="59" viewBox="0 0 108 59" fill="none" xmlns="http://www.w3.org/2000/svg">
<mask id="a" fill="#fff"><path fill-rule="evenodd" clip-rule="evenodd" d="M35.749 34.282A.906.906 0 0 1 36.573 33h40.358c9.4 0 18.18 4.692 23.403 12.507A.96.96 0 0 1 99.536 47h-6.034a1.292 1.292 0 0 0-.02-.034l-1.116-1.95a1.359 1.359 0 0 0-1.179-.683h-6.581A6.092 6.092 0 0 0 79.587 47h-1.46a32.197 32.197 0 0 0-16.589-4.6H37.471l.744-1.486a1.36 1.36 0 0 0 .022-1.172l-2.488-5.46Zm8.773 3.624c0-.5.405-.906.906-.906h1.521c.5 0 .906.406.906.906v1.513c0 .5-.406.906-.906.906h-1.521a.906.906 0 0 1-.906-.906v-1.513ZM50.774 37c-.5 0-.906.406-.906.906v1.513c0 .5.406.906.906.906h1.522c.5 0 .906-.406.906-.906v-1.513c0-.5-.406-.906-.906-.906h-1.522Zm4.441.906c0-.5.406-.906.906-.906h1.522c.5 0 .906.406.906.906v1.513c0 .5-.406.906-.906.906H56.12a.906.906 0 0 1-.906-.906v-1.513Zm6.19-.906c-.5 0-.906.406-.906.906v1.513c0 .5.406.906.906.906h1.522c.5 0 .906-.406.906-.906v-1.513c0-.5-.406-.906-.906-.906h-1.522Zm4.428.906c0-.5.405-.906.906-.906h1.521c.5 0 .906.406.906.906v1.513c0 .5-.406.906-.906.906h-1.52a.906.906 0 0 1-.906-.906v-1.513ZM72.035 37a.869.869 0 0 0-.869.869v1.596c0 .48.389.868.869.868h1.596c.48 0 .868-.389.868-.868v-1.596a.869.869 0 0 0-.868-.869h-1.596Zm6.464.478c0-.264.214-.478.478-.478h.774c3.316 0 6.572.884 9.432 2.562.365.213.213.771-.21.771h-9.568a.906.906 0 0 1-.906-.906v-1.95Zm7.368 8.766a1.734 1.734 0 0 1-3.336-.91h8.603a1.733 1.733 0 0 1-3.336.911h-1.93Z"/></mask>
<path fill-rule="evenodd" clip-rule="evenodd" d="M35.749 34.282A.906.906 0 0 1 36.573 33h40.358c9.4 0 18.18 4.692 23.403 12.507A.96.96 0 0 1 99.536 47h-6.034a1.292 1.292 0 0 0-.02-.034l-1.116-1.95a1.359 1.359 0 0 0-1.179-.683h-6.581A6.092 6.092 0 0 0 79.587 47h-1.46a32.197 32.197 0 0 0-16.589-4.6H37.471l.744-1.486a1.36 1.36 0 0 0 .022-1.172l-2.488-5.46Zm8.773 3.624c0-.5.405-.906.906-.906h1.521c.5 0 .906.406.906.906v1.513c0 .5-.406.906-.906.906h-1.521a.906.906 0 0 1-.906-.906v-1.513ZM50.774 37c-.5 0-.906.406-.906.906v1.513c0 .5.406.906.906.906h1.522c.5 0 .906-.406.906-.906v-1.513c0-.5-.406-.906-.906-.906h-1.522Zm4.441.906c0-.5.406-.906.906-.906h1.522c.5 0 .906.406.906.906v1.513c0 .5-.406.906-.906.906H56.12a.906.906 0 0 1-.906-.906v-1.513Zm6.19-.906c-.5 0-.906.406-.906.906v1.513c0 .5.406.906.906.906h1.522c.5 0 .906-.406.906-.906v-1.513c0-.5-.406-.906-.906-.906h-1.522Zm4.428.906c0-.5.405-.906.906-.906h1.521c.5 0 .906.406.906.906v1.513c0 .5-.406.906-.906.906h-1.52a.906.906 0 0 1-.906-.906v-1.513ZM72.035 37a.869.869 0 0 0-.869.869v1.596c0 .48.389.868.869.868h1.596c.48 0 .868-.389.868-.868v-1.596a.869.869 0 0 0-.868-.869h-1.596Zm6.464.478c0-.264.214-.478.478-.478h.774c3.316 0 6.572.884 9.432 2.562.365.213.213.771-.21.771h-9.568a.906.906 0 0 1-.906-.906v-1.95Zm7.368 8.766a1.734 1.734 0 0 1-3.336-.91h8.603a1.733 1.733 0 0 1-3.336.911h-1.93Z" class="project-registration-template-card-svg"/>
<path d="m35.749 34.282.412-.188-.412.188Zm64.585 11.225.376-.252-.376.252ZM93.502 47l-.4.214.129.239h.27V47Zm-.02-.034-.392.225.393-.225Zm-1.116-1.95.393-.224-.393.225Zm-1.826-.683v-.453h-1.29l1.008.807.283-.354Zm0 0v.453h1.292l-1.009-.806-.283.353Zm-2.215 0-.283-.353-1.008.806h1.291v-.453Zm0 0 .283.354 1.008-.807h-1.29v.453Zm-2.985 0v-.453h-1.29l1.007.807.283-.354Zm0 0v.453h1.292l-1.009-.806-.283.353Zm-.734 0v-.453h-.002l.002.453ZM79.587 47v.453h.24l.135-.199-.375-.254Zm-1.46 0-.233.388.107.065h.126V47Zm-40.656-4.6-.405-.203-.33.656h.735V42.4Zm.744-1.486.405.203-.405-.203Zm.022-1.172-.412.188.412-.188Zm50.946-.18.23-.391-.23.39Zm-3.316 6.682v-.453h-.32l-.107.303.427.15Zm-3.336-.91v-.454h-.373l-.071.367.444.086Zm8.603 0 .445-.087-.072-.367h-.373v.453Zm-3.336.91.427-.15-.107-.303h-.32v.453ZM36.573 32.547a1.359 1.359 0 0 0-1.236 1.922l.824-.375a.453.453 0 0 1 .412-.641v-.906Zm40.358 0H36.573v.906h40.358v-.906Zm23.779 12.708a28.6 28.6 0 0 0-23.779-12.708v.906a27.696 27.696 0 0 1 23.026 12.306l.753-.504Zm-1.174 2.198a1.413 1.413 0 0 0 1.174-2.198l-.753.504a.507.507 0 0 1-.421.788v.906Zm-6.034 0h6.034v-.906h-6.034v.906Zm-.412-.262.013.023.798-.428a1.825 1.825 0 0 0-.025-.046l-.786.45Zm-1.117-1.95 1.117 1.95.786-.45-1.117-1.95-.786.45Zm-.786-.455c.325 0 .625.174.786.456l.786-.45a1.812 1.812 0 0 0-1.572-.912v.906Zm-.647 0h.647v-.906h-.647v.906Zm.283-.806-.566.707.566-.707Zm-2.498.806h2.215v-.906h-2.215v.906Zm-.283-.806.566.707-.566-.707Zm-2.702.806h2.985v-.906H85.34v.906Zm.283-.806-.566.707.566-.707Zm-1.017.806h.734v-.906h-.734v.906Zm-4.644 2.468a5.639 5.639 0 0 1 4.645-2.468l-.003-.906a6.544 6.544 0 0 0-5.391 2.865l.749.51Zm-1.835.199h1.46v-.906h-1.46v.906Zm-16.589-4.6a31.743 31.743 0 0 1 16.356 4.535l.466-.776a32.65 32.65 0 0 0-16.822-4.665v.906Zm-24.067 0h24.067v-.906H37.471v.906Zm.34-2.142-.745 1.486.81.406.744-1.486-.81-.406Zm.014-.781a.906.906 0 0 1-.015.781l.81.406c.246-.49.256-1.064.03-1.563l-.825.376Zm-2.488-5.46 2.488 5.46.824-.376-2.488-5.46-.824.375Zm10.09 2.077c-.75 0-1.358.608-1.358 1.359h.906c0-.25.202-.453.453-.453v-.906Zm1.522 0h-1.521v.906h1.521v-.906Zm1.359 1.359a1.36 1.36 0 0 0-1.359-1.359v.906c.25 0 .453.203.453.453h.906Zm0 1.513v-1.513h-.906v1.513h.906Zm-1.359 1.359a1.36 1.36 0 0 0 1.359-1.359h-.906c0 .25-.203.453-.453.453v.906Zm-1.521 0h1.521v-.906h-1.521v.906Zm-1.36-1.359c0 .75.61 1.359 1.36 1.359v-.906a.453.453 0 0 1-.453-.453h-.906Zm0-1.513v1.513h.907v-1.513h-.906Zm6.253 0c0-.25.203-.453.453-.453v-.906c-.75 0-1.358.608-1.358 1.359h.905Zm0 1.513v-1.513h-.905v1.513h.905Zm.453.453a.453.453 0 0 1-.453-.453h-.905c0 .75.608 1.359 1.358 1.359v-.906Zm1.522 0h-1.522v.906h1.522v-.906Zm.453-.453c0 .25-.203.453-.453.453v.906a1.36 1.36 0 0 0 1.359-1.359h-.906Zm0-1.513v1.513h.906v-1.513h-.906Zm-.453-.453c.25 0 .453.203.453.453h.906a1.36 1.36 0 0 0-1.36-1.359v.906Zm-1.522 0h1.522v-.906h-1.522v.906Zm5.347-.906a1.36 1.36 0 0 0-1.359 1.359h.906c0-.25.203-.453.453-.453v-.906Zm1.522 0H56.12v.906h1.522v-.906ZM59 37.906c0-.75-.608-1.359-1.358-1.359v.906c.25 0 .453.203.453.453h.906Zm0 1.513v-1.513h-.905v1.513h.906Zm-1.358 1.359c.75 0 1.358-.608 1.358-1.359h-.905c0 .25-.203.453-.453.453v.906Zm-1.522 0h1.522v-.906H56.12v.906Zm-1.359-1.359c0 .75.609 1.359 1.36 1.359v-.906a.453.453 0 0 1-.454-.453h-.906Zm0-1.513v1.513h.906v-1.513h-.906Zm6.19 0c0-.25.203-.453.453-.453v-.906c-.75 0-1.358.608-1.358 1.359h.905Zm0 1.513v-1.513h-.905v1.513h.905Zm.453.453a.453.453 0 0 1-.453-.453h-.905c0 .75.608 1.359 1.358 1.359v-.906Zm1.522 0h-1.522v.906h1.522v-.906Zm.453-.453c0 .25-.203.453-.453.453v.906a1.36 1.36 0 0 0 1.359-1.359h-.906Zm0-1.513v1.513h.906v-1.513h-.906Zm-.453-.453c.25 0 .453.203.453.453h.906a1.36 1.36 0 0 0-1.36-1.359v.906Zm-1.522 0h1.522v-.906h-1.522v.906Zm5.334-.906c-.75 0-1.36.608-1.36 1.359h.907c0-.25.203-.453.453-.453v-.906Zm1.521 0H66.74v.906h1.521v-.906Zm1.359 1.359a1.36 1.36 0 0 0-1.359-1.359v.906c.25 0 .453.203.453.453h.906Zm0 1.513v-1.513h-.906v1.513h.906Zm-1.359 1.359a1.36 1.36 0 0 0 1.359-1.359h-.906c0 .25-.203.453-.453.453v.906Zm-1.521 0h1.521v-.906H66.74v.906Zm-1.36-1.359c0 .75.61 1.359 1.36 1.359v-.906a.453.453 0 0 1-.453-.453h-.906Zm0-1.513v1.513h.907v-1.513h-.906Zm6.24-.037c0-.23.186-.416.416-.416v-.906c-.73 0-1.322.592-1.322 1.322h.906Zm0 1.596v-1.596h-.906v1.596h.906Zm.416.415a.416.416 0 0 1-.416-.415h-.906c0 .73.592 1.321 1.322 1.321v-.906Zm1.596 0h-1.596v.906h1.596v-.906Zm.415-.415c0 .23-.186.415-.415.415v.906a1.32 1.32 0 0 0 1.321-1.321h-.906Zm0-1.596v1.596h.906v-1.596h-.906Zm-.415-.416c.23 0 .415.186.415.416h.906c0-.73-.591-1.322-1.321-1.322v.906Zm-1.596 0h1.596v-.906h-1.596v.906Zm6.942-.906a.93.93 0 0 0-.93.93h.905c0-.013.011-.024.025-.024v-.906Zm.774 0h-.774v.906h.774v-.906Zm9.661 2.624a19.099 19.099 0 0 0-9.66-2.624v.906c3.235 0 6.411.863 9.202 2.5l.458-.782Zm-.438 1.615c.884 0 1.201-1.168.438-1.615l-.458.781-.005-.005a.06.06 0 0 1-.01-.018c-.005-.012-.003-.019-.002-.02 0-.002.002-.009.012-.017a.06.06 0 0 1 .017-.01l.008-.002v.906Zm-9.569 0h9.569v-.906h-9.569v.906Zm-1.359-1.359c0 .75.609 1.36 1.36 1.36v-.907a.453.453 0 0 1-.454-.453h-.906Zm0-1.95v1.95h.906v-1.95h-.906Zm6.187 10.376c.952 0 1.762-.61 2.061-1.458l-.854-.302a1.28 1.28 0 0 1-1.207.854v.906Zm-2.187-2.186c0 1.207.98 2.186 2.187 2.186v-.906a1.28 1.28 0 0 1-1.28-1.28h-.907Zm.04-.42c-.026.136-.04.276-.04.42h.906c0-.085.008-.168.024-.247l-.89-.173Zm9.048-.367H82.53v.906h8.603v-.906Zm.485.787a2.19 2.19 0 0 0-.04-.42l-.89.173c.016.08.024.162.024.247h.906Zm-2.186 2.186a2.186 2.186 0 0 0 2.186-2.186h-.906a1.28 1.28 0 0 1-1.28 1.28v.906Zm-2.062-1.458c.3.849 1.11 1.458 2.062 1.458v-.906a1.281 1.281 0 0 1-1.208-.854l-.854.302Zm-1.504.302h1.931v-.906h-1.93v.906Z" class="project-registration-template-card-svg" mask="url(#a)"/>
<path d="M22.5 36.333h4m.666 3.334H32.5" class="project-registration-template-card-svg-stroke" stroke-width="2.086" stroke-linecap="round"/>
<mask id="b" fill="#fff"><path fill-rule="evenodd" clip-rule="evenodd" d="M22.073 44.4a.906.906 0 0 0-.824 1.282l2.488 5.46c.17.374.163.805-.021 1.172l-2.393 4.774a.906.906 0 0 0 .81 1.312h6.195a6.092 6.092 0 0 1 5.019-2.667h6.581c.487 0 .937.261 1.18.684l1.116 1.949.012.022.007.012h22.845a6.092 6.092 0 0 1 5.018-2.667h6.581c.487 0 .937.261 1.18.684l1.116 1.949.02.034h6.033a.96.96 0 0 0 .798-1.493A28.148 28.148 0 0 0 62.432 44.4H22.073Zm8.855 4c-.5 0-.906.406-.906.906v1.513c0 .5.406.906.906.906h1.521c.5 0 .906-.406.906-.906v-1.513c0-.5-.405-.906-.905-.906h-1.522Zm4.44.906c0-.5.407-.906.907-.906h1.521c.5 0 .906.406.906.906v1.513c0 .5-.405.906-.906.906h-1.521a.906.906 0 0 1-.906-.906v-1.513Zm6.254-.906c-.5 0-.906.406-.906.906v1.513c0 .5.405.906.906.906h1.521c.5 0 .906-.406.906-.906v-1.513c0-.5-.406-.906-.906-.906h-1.521Zm4.378.906c0-.5.406-.906.906-.906h1.521c.5 0 .906.406.906.906v1.513c0 .5-.405.906-.906.906h-1.521a.906.906 0 0 1-.906-.906v-1.513Zm6.24-.906a.907.907 0 0 0-.907.906v1.513c0 .5.406.906.906.906h1.522c.5 0 .905-.406.905-.906v-1.513c0-.5-.405-.906-.905-.906h-1.522Zm4.426.869c0-.48.39-.869.87-.869h1.595c.48 0 .869.389.869.869v1.596c0 .48-.39.868-.869.868h-1.596a.869.869 0 0 1-.868-.868v-1.596Zm7.812-.869a.478.478 0 0 0-.478.478v1.95c0 .5.405.905.906.905h9.568c.423 0 .574-.558.21-.771a18.645 18.645 0 0 0-9.432-2.562h-.774Zm5.255 10.4c.755 0 1.397-.482 1.635-1.156h1.93a1.734 1.734 0 0 0 3.337-.91h-8.603a1.733 1.733 0 0 0 1.701 2.067Zm-35.032-1.156a1.734 1.734 0 0 1-3.336-.91h8.603a1.733 1.733 0 0 1-3.336.911h-1.93Z"/></mask>
<path fill-rule="evenodd" clip-rule="evenodd" d="M22.073 44.4a.906.906 0 0 0-.824 1.282l2.488 5.46c.17.374.163.805-.021 1.172l-2.393 4.774a.906.906 0 0 0 .81 1.312h6.195a6.092 6.092 0 0 1 5.019-2.667h6.581c.487 0 .937.261 1.18.684l1.116 1.949.012.022.007.012h22.845a6.092 6.092 0 0 1 5.018-2.667h6.581c.487 0 .937.261 1.18.684l1.116 1.949.02.034h6.033a.96.96 0 0 0 .798-1.493A28.148 28.148 0 0 0 62.432 44.4H22.073Zm8.855 4c-.5 0-.906.406-.906.906v1.513c0 .5.406.906.906.906h1.521c.5 0 .906-.406.906-.906v-1.513c0-.5-.405-.906-.905-.906h-1.522Zm4.44.906c0-.5.407-.906.907-.906h1.521c.5 0 .906.406.906.906v1.513c0 .5-.405.906-.906.906h-1.521a.906.906 0 0 1-.906-.906v-1.513Zm6.254-.906c-.5 0-.906.406-.906.906v1.513c0 .5.405.906.906.906h1.521c.5 0 .906-.406.906-.906v-1.513c0-.5-.406-.906-.906-.906h-1.521Zm4.378.906c0-.5.406-.906.906-.906h1.521c.5 0 .906.406.906.906v1.513c0 .5-.405.906-.906.906h-1.521a.906.906 0 0 1-.906-.906v-1.513Zm6.24-.906a.907.907 0 0 0-.907.906v1.513c0 .5.406.906.906.906h1.522c.5 0 .905-.406.905-.906v-1.513c0-.5-.405-.906-.905-.906h-1.522Zm4.426.869c0-.48.39-.869.87-.869h1.595c.48 0 .869.389.869.869v1.596c0 .48-.39.868-.869.868h-1.596a.869.869 0 0 1-.868-.868v-1.596Zm7.812-.869a.478.478 0 0 0-.478.478v1.95c0 .5.405.905.906.905h9.568c.423 0 .574-.558.21-.771a18.645 18.645 0 0 0-9.432-2.562h-.774Zm5.255 10.4c.755 0 1.397-.482 1.635-1.156h1.93a1.734 1.734 0 0 0 3.337-.91h-8.603a1.733 1.733 0 0 0 1.701 2.067Zm-35.032-1.156a1.734 1.734 0 0 1-3.336-.91h8.603a1.733 1.733 0 0 1-3.336.911h-1.93Z" class="project-registration-template-card-svg"/>
<path d="m21.25 45.681.411-.187-.412.188Zm2.487 5.46-.412.189.412-.188Zm-.021 1.173.405.203-.405-.203Zm-2.393 4.774.405.203-.405-.203Zm7.005 1.312v.453h.24l.135-.199-.375-.254Zm5.019-2.667v-.453h-.002l.002.453Zm.827 0v.453h1.237l-.944-.798-.293.345Zm0 0v-.453h-1.236l.944.799.292-.346Zm2.985 0 .293.346.944-.799h-1.237v.453Zm0 0-.293-.345-.944.798h1.237v-.453Zm2.215 0v.453h1.165l-.859-.787-.306.334Zm0 0v-.453H38.21l.858.787.306-.334Zm1.733.684-.393.225.393-.225Zm1.117 1.949-.393.225.393-.225Zm.012.022.397-.218-.397.218Zm.007.012-.4.214.129.239h.27V58.4Zm22.845 0v.453h.24l.135-.199-.375-.254Zm5.018-2.667v-.453h-.001l.001.453Zm.735 0v.453h1.291l-1.008-.806-.283.353Zm0 0v-.453H69.55l1.008.807.283-.354Zm2.985 0 .283.354 1.008-.807h-1.291v.453Zm0 0-.283-.353-1.009.806h1.291v-.453Zm2.215 0v.453h1.291l-1.008-.806-.283.353Zm0 0v-.453H74.75l1.008.807.283-.354Zm1.826.684.392-.226-.392.226Zm1.116 1.949-.393.225.393-.225Zm.02.034-.4.214.128.239h.271V58.4Zm6.831-1.493.377-.252-.377.252Zm-11.15-5.945.229-.391-.23.39Zm-3.316 6.682v-.453h-.32l-.107.302.427.151Zm1.93 0 .427-.15-.106-.303h-.32v.453Zm3.337-.91.444-.087-.071-.367h-.373v.453Zm-8.603 0v-.454h-.373l-.072.367.445.086Zm-33.33.91v-.453h-.321l-.107.302.427.151Zm-3.337-.91v-.454h-.373l-.071.367.444.086Zm8.603 0 .444-.087-.07-.367h-.374v.453Zm-3.336.91.427-.15-.107-.303h-.32v.453Zm-14.97-12.15a.453.453 0 0 1 .412-.641v-.906a1.359 1.359 0 0 0-1.237 1.922l.824-.375Zm2.488 5.46-2.489-5.46-.824.375 2.488 5.46.825-.375Zm-.03 1.563a1.81 1.81 0 0 0 .03-1.563l-.825.376a.906.906 0 0 1-.014.781l.81.406Zm-2.392 4.774 2.393-4.774-.81-.406-2.393 4.774.81.406Zm.405.656a.453.453 0 0 1-.405-.656l-.81-.406a1.359 1.359 0 0 0 1.215 1.968v-.906Zm6.195 0h-6.195v.906h6.195v-.906Zm5.017-2.667a6.544 6.544 0 0 0-5.391 2.865l.75.51a5.639 5.639 0 0 1 4.644-2.469l-.003-.906Zm.83 0h-.828v.906h.827v-.906Zm-.293.799.585-.691-.585.691Zm3.277-.799h-2.985v.906h2.985v-.906Zm-.293.108.586.691-.586-.691Zm.293.798h2.215v-.906H37.16v.906Zm2.521-.787c-.007-.006-.013-.01-.016-.014l-.004-.003-.001-.001.005.004.016.014-.612.668a.427.427 0 0 0 .02.018h.001l-.005-.004-.016-.014.612-.668Zm.248-.119h-.554v.906h.554v-.906Zm1.572.911a1.812 1.812 0 0 0-1.572-.91v.905c.325 0 .625.174.786.456l.786-.45Zm1.117 1.95L41.5 56.19l-.786.45 1.117 1.95.786-.45Zm.016.029-.016-.03-.786.45.008.016.794-.436Zm.009.015a.584.584 0 0 0-.009-.015l-.794.436a.623.623 0 0 1 .005.008l.798-.428Zm22.446-.238H42.243v.906h22.845v-.906Zm5.017-2.667a6.545 6.545 0 0 0-5.392 2.865l.75.51a5.639 5.639 0 0 1 4.644-2.469l-.002-.906Zm.736 0h-.735v.906h.735v-.906Zm-.283.807.566-.707-.566.707Zm3.268-.807H70.84v.906h2.985v-.906Zm.283.807-.566-.707.566.707Zm1.932-.807h-2.215v.906h2.215v-.906Zm-.283.807.566-.707-.566.707Zm.93-.807h-.647v.906h.646v-.906Zm1.572.911a1.812 1.812 0 0 0-1.573-.91v.905c.325 0 .625.174.787.456l.785-.45Zm1.116 1.95-1.117-1.95-.785.45 1.116 1.95.786-.45Zm.025.044a1.861 1.861 0 0 0-.025-.045l-.786.45.013.024.798-.428Zm5.635-.238h-6.034v.906h6.034v-.906Zm.422-.788a.507.507 0 0 1-.422.788v.906c1.13 0 1.802-1.259 1.175-2.198l-.753.504ZM62.432 44.853a27.695 27.695 0 0 1 23.026 12.306l.753-.504a28.601 28.601 0 0 0-23.78-12.708v.906Zm-40.359 0h40.359v-.906H22.073v.906Zm8.402 4.453c0-.25.203-.453.453-.453v-.906a1.36 1.36 0 0 0-1.359 1.359h.906Zm0 1.513v-1.513h-.906v1.513h.906Zm.453.453a.453.453 0 0 1-.453-.453h-.906c0 .75.608 1.359 1.359 1.359v-.906Zm1.521 0h-1.521v.906h1.521v-.906Zm.453-.453c0 .25-.202.453-.453.453v.906a1.36 1.36 0 0 0 1.36-1.359h-.907Zm0-1.513v1.513h.906v-1.513h-.906Zm-.453-.453c.25 0 .453.203.453.453h.906c0-.75-.608-1.359-1.358-1.359v.906Zm-1.521 0h1.521v-.906h-1.521v.906Zm5.347-.906c-.75 0-1.36.608-1.36 1.359h.907c0-.25.203-.453.453-.453v-.906Zm1.521 0h-1.521v.906h1.521v-.906Zm1.36 1.359c0-.75-.61-1.359-1.36-1.359v.906c.25 0 .453.203.453.453h.906Zm0 1.513v-1.513h-.907v1.513h.906Zm-1.36 1.359c.75 0 1.36-.609 1.36-1.359h-.907c0 .25-.203.453-.453.453v.906Zm-1.521 0h1.521v-.906h-1.521v.906Zm-1.36-1.359c0 .75.61 1.359 1.36 1.359v-.906a.453.453 0 0 1-.453-.453h-.906Zm0-1.513v1.513h.907v-1.513h-.906Zm6.254 0c0-.25.202-.453.453-.453v-.906c-.75 0-1.36.608-1.36 1.359h.907Zm0 1.513v-1.513h-.906v1.513h.906Zm.453.453a.453.453 0 0 1-.453-.453h-.906c0 .75.608 1.359 1.359 1.359v-.906Zm1.521 0h-1.521v.906h1.521v-.906Zm.453-.453c0 .25-.203.453-.453.453v.906a1.36 1.36 0 0 0 1.359-1.359h-.906Zm0-1.513v1.513h.906v-1.513h-.906Zm-.453-.453c.25 0 .453.203.453.453h.906a1.36 1.36 0 0 0-1.359-1.359v.906Zm-1.521 0h1.521v-.906h-1.521v.906Zm5.284-.906c-.75 0-1.36.608-1.36 1.359h.907c0-.25.203-.453.453-.453v-.906Zm1.521 0h-1.521v.906h1.521v-.906Zm1.36 1.359c0-.75-.61-1.359-1.36-1.359v.906c.25 0 .453.203.453.453h.906Zm0 1.513v-1.513h-.907v1.513h.906Zm-1.36 1.359c.75 0 1.36-.609 1.36-1.359h-.907c0 .25-.203.453-.453.453v.906Zm-1.521 0h1.521v-.906h-1.521v.906Zm-1.36-1.359c0 .75.61 1.359 1.36 1.359v-.906a.453.453 0 0 1-.453-.453h-.906Zm0-1.513v1.513h.907v-1.513h-.906Zm6.24 0c0-.25.203-.453.453-.453v-.906a1.36 1.36 0 0 0-1.359 1.359h.906Zm0 1.513v-1.513h-.906v1.513h.906Zm.453.453a.453.453 0 0 1-.453-.453h-.906c0 .75.609 1.359 1.36 1.359v-.906Zm1.522 0h-1.522v.906h1.522v-.906Zm.453-.453c0 .25-.203.453-.453.453v.906c.75 0 1.358-.609 1.358-1.359h-.905Zm0-1.513v1.513h.906v-1.513h-.906Zm-.453-.453c.25 0 .453.203.453.453h.906a1.36 1.36 0 0 0-1.36-1.359v.906Zm-1.522 0h1.522v-.906h-1.522v.906Zm5.296-.906c-.73 0-1.321.592-1.321 1.322h.906c0-.23.186-.416.415-.416v-.906Zm1.596 0h-1.596v.906h1.596v-.906Zm1.322 1.322c0-.73-.592-1.322-1.322-1.322v.906c.23 0 .416.186.416.416h.906Zm0 1.596v-1.596h-.906v1.596h.906Zm-1.322 1.321c.73 0 1.322-.592 1.322-1.321h-.906c0 .23-.186.415-.416.415v.906Zm-1.596 0h1.596v-.906h-1.596v.906Zm-1.321-1.321c0 .73.591 1.321 1.321 1.321v-.906a.416.416 0 0 1-.415-.415h-.906Zm0-1.596v1.596h.906v-1.596h-.906Zm8.239-.391c0-.014.01-.025.025-.025v-.906a.93.93 0 0 0-.931.93h.906Zm0 1.95v-1.95h-.906v1.95h.906Zm.453.452a.453.453 0 0 1-.453-.453h-.906c0 .75.608 1.36 1.359 1.36v-.907Zm9.568 0h-9.568v.906h9.568v-.906Zm-.02.072c.003.001 0 0-.005-.005a.062.062 0 0 1-.01-.018c-.004-.012-.003-.019-.002-.02 0-.002.002-.009.012-.017a.057.057 0 0 1 .018-.01l.007-.002v.906c.884 0 1.202-1.168.439-1.615l-.458.781Zm-9.202-2.5c3.235 0 6.412.864 9.203 2.5l.458-.781a19.098 19.098 0 0 0-9.661-2.624v.906Zm-.774 0h.774v-.905h-.774v.906Zm6.463 8.641a1.282 1.282 0 0 1-1.208.854v.906c.953 0 1.762-.61 2.062-1.458l-.854-.302Zm2.357-.302h-1.93v.906h1.93v-.906Zm1.635 1.156a1.281 1.281 0 0 1-1.208-.854l-.854.302c.3.849 1.11 1.458 2.062 1.458v-.906Zm1.28-1.28a1.28 1.28 0 0 1-1.28 1.28v.906a2.186 2.186 0 0 0 2.186-2.186h-.906Zm-.023-.247c.015.08.023.162.023.247h.906a2.19 2.19 0 0 0-.04-.42l-.89.173Zm-8.158.366h8.603v-.906h-8.603v.906Zm.42-.12c0-.084.009-.167.024-.246l-.889-.173c-.026.136-.04.276-.04.42h.906Zm1.281 1.281a1.28 1.28 0 0 1-1.28-1.28h-.906c0 1.207.979 2.186 2.186 2.186v-.906Zm-36.666.906c.952 0 1.761-.61 2.061-1.458l-.854-.302a1.28 1.28 0 0 1-1.207.854v.906Zm-2.187-2.186c0 1.207.98 2.186 2.187 2.186v-.906a1.28 1.28 0 0 1-1.28-1.28h-.907Zm.04-.42a2.19 2.19 0 0 0-.04.42h.906c0-.085.008-.168.024-.247l-.89-.173Zm9.048-.367h-8.603v.906h8.603v-.906Zm.485.787c0-.144-.014-.284-.04-.42l-.89.173c.016.08.024.162.024.247h.906Zm-2.186 2.186a2.186 2.186 0 0 0 2.186-2.186h-.906a1.28 1.28 0 0 1-1.28 1.28v.906Zm-2.062-1.458a2.187 2.187 0 0 0 2.062 1.458v-.906a1.281 1.281 0 0 1-1.208-.854l-.854.302Zm-1.504.302h1.93v-.906h-1.93v.906Z" class="project-registration-template-card-svg" mask="url(#b)"/>
<path d="M8 47.733h4m.667 3.334H18m-8 4h3.333" class="project-registration-template-card-svg-stroke" stroke-width="2.086" stroke-linecap="round"/>
<mask id="c" fill="#fff"><path fill-rule="evenodd" clip-rule="evenodd" d="M96.068 15.242A9.5 9.5 0 0 0 98 9.5h-9.5l4.39-8.425a9.5 9.5 0 1 0 3.178 14.167ZM98.674 3.42A9.5 9.5 0 0 0 95.082.062l-4.47 8.382 9.494-.32a9.5 9.5 0 0 0-1.432-4.704Z"/></mask>
<path fill-rule="evenodd" clip-rule="evenodd" d="M96.068 15.242A9.5 9.5 0 0 0 98 9.5h-9.5l4.39-8.425a9.5 9.5 0 1 0 3.178 14.167ZM98.674 3.42A9.5 9.5 0 0 0 95.082.062l-4.47 8.382 9.494-.32a9.5 9.5 0 0 0-1.432-4.704Z" class="project-registration-template-card-svg"/>
<path d="M98 9.5h1v-1h-1v1Zm-1.932 5.742-.797-.604.797.604ZM88.5 9.5l-.887-.462-.762 1.462H88.5v-1Zm4.39-8.425.887.462.462-.887-.887-.462-.462.887ZM81.568 3.004l-.73-.684.73.684Zm-2.517 5.511-.994-.104.994.104Zm1.326 5.912.855-.519-.855.519Zm4.63 3.908.368-.93-.368.93Zm6.05.314-.268-.963.269.963ZM95.083.062l.47-.882-.882-.47-.47.882.882.47Zm3.592 3.358.849-.528-.85.528ZM90.61 8.444l-.882-.47-.815 1.528 1.73-.058-.033-1Zm9.495-.32.033 1 1-.033-.034-1-.999.034ZM97 9.5a8.5 8.5 0 0 1-1.729 5.138l1.594 1.209A10.5 10.5 0 0 0 99 9.5h-2Zm-8.5 1H98v-2h-9.5v2ZM92.003.613l-4.39 8.425 1.774.924 4.39-8.425-1.774-.924Zm-4.93.508a8.5 8.5 0 0 1 5.355.84l.924-1.773A10.5 10.5 0 0 0 86.737-.85l.335 1.972Zm-4.775 2.567a8.5 8.5 0 0 1 4.774-2.567l-.335-1.972a10.5 10.5 0 0 0-5.898 3.171l1.459 1.368Zm-2.252 4.93a8.5 8.5 0 0 1 2.252-4.93l-1.46-1.368a10.5 10.5 0 0 0-2.781 6.091l1.989.208Zm1.186 5.29a8.5 8.5 0 0 1-1.186-5.29l-1.99-.207a10.5 10.5 0 0 0 1.466 6.534l1.71-1.037Zm4.143 3.497a8.5 8.5 0 0 1-4.143-3.497l-1.71 1.037a10.5 10.5 0 0 0 5.118 4.32l.735-1.86Zm5.414.281a8.5 8.5 0 0 1-5.414-.281l-.735 1.86a10.5 10.5 0 0 0 6.687.347l-.538-1.926Zm4.482-3.048a8.5 8.5 0 0 1-4.482 3.048l.538 1.926a10.501 10.501 0 0 0 5.538-3.765l-1.594-1.21ZM94.611.944a8.5 8.5 0 0 1 3.214 3.005l1.698-1.057a10.5 10.5 0 0 0-3.97-3.712L94.61.944Zm-3.118 7.971L95.965.533 94.2-.408l-4.47 8.382 1.764.941Zm8.579-1.79-9.495.32.068 1.999 9.494-.32-.067-1.999ZM97.825 3.95a8.5 8.5 0 0 1 1.281 4.21l1.999-.068a10.504 10.504 0 0 0-1.582-5.2L97.825 3.95Z" class="project-registration-template-card-svg" mask="url(#c)"/>
<mask id="d" fill="#fff"><path fill-rule="evenodd" clip-rule="evenodd" d="M39 4a1 1 0 0 1 1-1h8a1 1 0 0 1 1 1v2a1 1 0 0 1-1 1h-8a1 1 0 0 1-1-1V4Zm0 10a1 1 0 0 1 1-1h5a1 1 0 0 1 1 1v2a1 1 0 0 1-1 1h-5a1 1 0 0 1-1-1v-2Zm9-1a1 1 0 0 0-1 1v2a1 1 0 0 0 1 1h17a1 1 0 0 0 1-1v-2a1 1 0 0 0-1-1H48Zm19 1a1 1 0 0 1 1-1h2a1 1 0 0 1 1 1v2a1 1 0 0 1-1 1h-2a1 1 0 0 1-1-1v-2Zm-7-6a1 1 0 0 0-1 1v2a1 1 0 0 0 1 1h10a1 1 0 0 0 1-1V9a1 1 0 0 0-1-1H60ZM50 4a1 1 0 0 1 1-1h2a1 1 0 0 1 1 1v2a1 1 0 0 1-1 1h-2a1 1 0 0 1-1-1V4Zm6 4a1 1 0 0 0-1 1v2a1 1 0 0 0 1 1h1a1 1 0 0 0 1-1V9a1 1 0 0 0-1-1h-1Zm-1-4a1 1 0 0 1 1-1h14a1 1 0 0 1 1 1v2a1 1 0 0 1-1 1H56a1 1 0 0 1-1-1V4ZM40 8a1 1 0 0 0-1 1v2a1 1 0 0 0 1 1h13a1 1 0 0 0 1-1V9a1 1 0 0 0-1-1H40Z"/></mask>
<path fill-rule="evenodd" clip-rule="evenodd" d="M39 4a1 1 0 0 1 1-1h8a1 1 0 0 1 1 1v2a1 1 0 0 1-1 1h-8a1 1 0 0 1-1-1V4Zm0 10a1 1 0 0 1 1-1h5a1 1 0 0 1 1 1v2a1 1 0 0 1-1 1h-5a1 1 0 0 1-1-1v-2Zm9-1a1 1 0 0 0-1 1v2a1 1 0 0 0 1 1h17a1 1 0 0 0 1-1v-2a1 1 0 0 0-1-1H48Zm19 1a1 1 0 0 1 1-1h2a1 1 0 0 1 1 1v2a1 1 0 0 1-1 1h-2a1 1 0 0 1-1-1v-2Zm-7-6a1 1 0 0 0-1 1v2a1 1 0 0 0 1 1h10a1 1 0 0 0 1-1V9a1 1 0 0 0-1-1H60ZM50 4a1 1 0 0 1 1-1h2a1 1 0 0 1 1 1v2a1 1 0 0 1-1 1h-2a1 1 0 0 1-1-1V4Zm6 4a1 1 0 0 0-1 1v2a1 1 0 0 0 1 1h1a1 1 0 0 0 1-1V9a1 1 0 0 0-1-1h-1Zm-1-4a1 1 0 0 1 1-1h14a1 1 0 0 1 1 1v2a1 1 0 0 1-1 1H56a1 1 0 0 1-1-1V4ZM40 8a1 1 0 0 0-1 1v2a1 1 0 0 0 1 1h13a1 1 0 0 0 1-1V9a1 1 0 0 0-1-1H40Z" class="project-registration-template-card-svg"/>
<path d="M40 2a2 2 0 0 0-2 2h2V2Zm8 0h-8v2h8V2Zm2 2a2 2 0 0 0-2-2v2h2Zm0 2V4h-2v2h2Zm-2 2a2 2 0 0 0 2-2h-2v2Zm-8 0h8V6h-8v2Zm-2-2a2 2 0 0 0 2 2V6h-2Zm0-2v2h2V4h-2Zm2 8a2 2 0 0 0-2 2h2v-2Zm5 0h-5v2h5v-2Zm2 2a2 2 0 0 0-2-2v2h2Zm0 2v-2h-2v2h2Zm-2 2a2 2 0 0 0 2-2h-2v2Zm-5 0h5v-2h-5v2Zm-2-2a2 2 0 0 0 2 2v-2h-2Zm0-2v2h2v-2h-2Zm10 0v-2a2 2 0 0 0-2 2h2Zm0 2v-2h-2v2h2Zm0 0h-2a2 2 0 0 0 2 2v-2Zm17 0H48v2h17v-2Zm0 0v2a2 2 0 0 0 2-2h-2Zm0-2v2h2v-2h-2Zm0 0h2a2 2 0 0 0-2-2v2Zm-17 0h17v-2H48v2Zm20-2a2 2 0 0 0-2 2h2v-2Zm2 0h-2v2h2v-2Zm2 2a2 2 0 0 0-2-2v2h2Zm0 2v-2h-2v2h2Zm-2 2a2 2 0 0 0 2-2h-2v2Zm-2 0h2v-2h-2v2Zm-2-2a2 2 0 0 0 2 2v-2h-2Zm0-2v2h2v-2h-2Zm-6-5V7a2 2 0 0 0-2 2h2Zm0 2V9h-2v2h2Zm0 0h-2a2 2 0 0 0 2 2v-2Zm10 0H60v2h10v-2Zm0 0v2a2 2 0 0 0 2-2h-2Zm0-2v2h2V9h-2Zm0 0h2a2 2 0 0 0-2-2v2ZM60 9h10V7H60v2Zm-9-7a2 2 0 0 0-2 2h2V2Zm2 0h-2v2h2V2Zm2 2a2 2 0 0 0-2-2v2h2Zm0 2V4h-2v2h2Zm-2 2a2 2 0 0 0 2-2h-2v2Zm-2 0h2V6h-2v2Zm-2-2a2 2 0 0 0 2 2V6h-2Zm0-2v2h2V4h-2Zm7 5V7a2 2 0 0 0-2 2h2Zm0 2V9h-2v2h2Zm0 0h-2a2 2 0 0 0 2 2v-2Zm1 0h-1v2h1v-2Zm0 0v2a2 2 0 0 0 2-2h-2Zm0-2v2h2V9h-2Zm0 0h2a2 2 0 0 0-2-2v2Zm-1 0h1V7h-1v2Zm0-7a2 2 0 0 0-2 2h2V2Zm14 0H56v2h14V2Zm2 2a2 2 0 0 0-2-2v2h2Zm0 2V4h-2v2h2Zm-2 2a2 2 0 0 0 2-2h-2v2ZM56 8h14V6H56v2Zm-2-2a2 2 0 0 0 2 2V6h-2Zm0-2v2h2V4h-2ZM40 9V7a2 2 0 0 0-2 2h2Zm0 2V9h-2v2h2Zm0 0h-2a2 2 0 0 0 2 2v-2Zm13 0H40v2h13v-2Zm0 0v2a2 2 0 0 0 2-2h-2Zm0-2v2h2V9h-2Zm0 0h2a2 2 0 0 0-2-2v2ZM40 9h13V7H40v2Z" class="project-registration-template-card-svg" mask="url(#d)"/>
<mask id="e" fill="#fff"><path fill-rule="evenodd" clip-rule="evenodd" d="M8 0a1 1 0 0 0-1 1v2a1 1 0 0 0 1 1h22a1 1 0 0 0 1-1V1a1 1 0 0 0-1-1H8Zm0 5a1 1 0 0 0-1 1v2a1 1 0 0 0 1 1h22a1 1 0 0 0 1-1V6a1 1 0 0 0-1-1H8Zm-1 6a1 1 0 0 1 1-1h22a1 1 0 0 1 1 1v2a1 1 0 0 1-1 1H8a1 1 0 0 1-1-1v-2Zm1 4a1 1 0 0 0-1 1v2a1 1 0 0 0 1 1h22a1 1 0 0 0 1-1v-2a1 1 0 0 0-1-1H8Z"/></mask>
<path fill-rule="evenodd" clip-rule="evenodd" d="M8 0a1 1 0 0 0-1 1v2a1 1 0 0 0 1 1h22a1 1 0 0 0 1-1V1a1 1 0 0 0-1-1H8Zm0 5a1 1 0 0 0-1 1v2a1 1 0 0 0 1 1h22a1 1 0 0 0 1-1V6a1 1 0 0 0-1-1H8Zm-1 6a1 1 0 0 1 1-1h22a1 1 0 0 1 1 1v2a1 1 0 0 1-1 1H8a1 1 0 0 1-1-1v-2Zm1 4a1 1 0 0 0-1 1v2a1 1 0 0 0 1 1h22a1 1 0 0 0 1-1v-2a1 1 0 0 0-1-1H8Z" class="project-registration-template-card-svg"/>
<path d="M8 1v-2a2 2 0 0 0-2 2h2Zm0 2V1H6v2h2Zm0 0H6a2 2 0 0 0 2 2V3Zm22 0H8v2h22V3Zm0 0v2a2 2 0 0 0 2-2h-2Zm0-2v2h2V1h-2Zm0 0h2a2 2 0 0 0-2-2v2ZM8 1h22v-2H8v2Zm0 5V4a2 2 0 0 0-2 2h2Zm0 2V6H6v2h2Zm0 0H6a2 2 0 0 0 2 2V8Zm22 0H8v2h22V8Zm0 0v2a2 2 0 0 0 2-2h-2Zm0-2v2h2V6h-2Zm0 0h2a2 2 0 0 0-2-2v2ZM8 6h22V4H8v2Zm0 3a2 2 0 0 0-2 2h2V9Zm22 0H8v2h22V9Zm2 2a2 2 0 0 0-2-2v2h2Zm0 2v-2h-2v2h2Zm-2 2a2 2 0 0 0 2-2h-2v2ZM8 15h22v-2H8v2Zm-2-2a2 2 0 0 0 2 2v-2H6Zm0-2v2h2v-2H6Zm2 5v-2a2 2 0 0 0-2 2h2Zm0 2v-2H6v2h2Zm0 0H6a2 2 0 0 0 2 2v-2Zm22 0H8v2h22v-2Zm0 0v2a2 2 0 0 0 2-2h-2Zm0-2v2h2v-2h-2Zm0 0h2a2 2 0 0 0-2-2v2ZM8 16h22v-2H8v2Z" class="project-registration-template-card-svg" mask="url(#e)"/>
<path d="M.5 31v-1.5a3 3 0 0 1 3-3h101a3 3 0 0 1 3 3V31" class="project-registration-template-card-svg-stroke" stroke-linecap="round" stroke-linejoin="round"/>
</svg>
