<svg xmlns="http://www.w3.org/2000/svg" width="17" height="11" viewBox="0 0 17 11">
    <path fill-rule="evenodd" d="M18.5784373,6.25656247 C18.5784373,6.97765619 18.1823435,7.60734367 17.6034373,7.94249991 C17.5729686,11.608906 14.4879685,11.9611339 12.761406,12.5095714 C11.1465623,13.0173839 10.5784373,13.3065625 10.5784373,14.3065625 L10.6184374,14.9424999 C11.1973436,15.2776561 11.5934373,15.9073436 11.5934373,16.6284373 C11.5934373,17.7049998 10.7199998,18.5784373 9.64343739,18.5784373 C8.56687493,18.5784373 7.69343746,17.7049998 7.69343746,16.6284373 C7.69343746,15.9073436 8.11453123,15.2776561 8.69343746,14.9424999 L8.69343746,5.94249991 C8.11453123,5.60734367 7.69343746,4.97765619 7.69343746,4.25656247 C7.69343746,3.18000001 8.56687493,2.30656254 9.64343739,2.30656254 C10.7199998,2.30656254 11.5934373,3.18000001 11.5934373,4.25656247 C11.5934373,4.97765619 11.1573435,5.60734367 10.5784373,5.94249991 L10.5784373,11.3065625 C11.096406,11.0526563 11.6848436,10.8033214 12.1824998,10.6509777 C14.0715622,10.051759 15.6331249,10.0651561 15.6534374,7.94249991 C15.0745312,7.60734367 14.6784374,6.97765619 14.6784374,6.25656247 C14.6784374,5.18000001 15.5518749,4.30656254 16.6284373,4.30656254 C17.7049998,4.30656254 18.5784373,5.18000001 18.5784373,6.25656247 Z M10.6034373,16.6425007 C10.6034373,16.0904173 10.1555206,15.6425007 9.60343731,15.6425007 C9.05135397,15.6425007 8.60343731,16.0904173 8.60343731,16.6425007 C8.60343731,17.194584 9.05135397,17.6425007 9.60343731,17.6425007 C10.1555206,17.6425007 10.6034373,17.194584 10.6034373,16.6425007 Z M10.6034373,4.30656254 C10.6034373,3.75447921 10.1555206,3.30656254 9.60343731,3.30656254 C9.05135397,3.30656254 8.60343731,3.75447921 8.60343731,4.30656254 C8.60343731,4.85864587 9.05135397,5.30656254 9.60343731,5.30656254 C10.1555206,5.30656254 10.6034373,4.85864587 10.6034373,4.30656254 Z M17.6034373,6.23536308 C17.6034373,5.68327975 17.1555206,5.23536308 16.6034373,5.23536308 C16.051354,5.23536308 15.6034373,5.68327975 15.6034373,6.23536308 C15.6034373,6.78744641 16.051354,7.23536308 16.6034373,7.23536308 C17.1555206,7.23536308 17.6034373,6.78744641 17.6034373,6.23536308 Z" transform="rotate(-90 8.136 10.443)"/>
</svg>
