<svg xmlns="http://www.w3.org/2000/svg" width="24" height="15" viewBox="0 0 24 15">
    <path fill-rule="evenodd" d="M16.4529508,8.31221856 C15.3124006,7.88739268 14.5,6.7885695 14.5,5.5 C14.5,3.84314575 15.8431458,2.5 17.5,2.5 C19.1568542,2.5 20.5,3.84314575 20.5,5.5 C20.5,6.81774117 19.6503995,7.9370475 18.4690882,8.34002928 L18.4648871,8.38624221 C18.1816267,11.5021067 16.107961,14.1668992 13.1571844,15.2069786 L13.1571844,15.2069786 L9.48879403,16.5 L9.48879403,17.6667701 C10.6598363,18.0754258 11.5,19.1895975 11.5,20.5 C11.5,22.1568542 10.1568542,23.5 8.5,23.5 C6.84314575,23.5 5.5,22.1568542 5.5,20.5 C5.5,19.1937812 6.33480763,18.0825421 7.5,17.6707057 L7.5,5.32929429 C6.33480763,4.91745788 5.5,3.80621883 5.5,2.5 C5.5,0.843145751 6.84314575,-0.5 8.5,-0.5 C10.1568542,-0.5 11.5,0.843145751 11.5,2.5 C11.5,3.81040245 10.6598363,4.92457415 9.48879403,5.33322991 L9.48879403,14 L12.1465585,13.1836337 C14.390548,12.4943637 16.0477294,10.6065603 16.4529508,8.31221856 Z M10,20.5 C10,19.671875 9.328125,19 8.5,19 C7.671875,19 7,19.671875 7,20.5 C7,21.328125 7.671875,22 8.5,22 C9.328125,22 10,21.328125 10,20.5 Z M10,2.5 C10,1.671875 9.328125,1 8.5,1 C7.671875,1 7,1.671875 7,2.5 C7,3.328125 7.671875,4 8.5,4 C9.328125,4 10,3.328125 10,2.5 Z M19,5.5 C19,4.671875 18.328125,4 17.5,4 C16.671875,4 16,4.671875 16,5.5 C16,6.328125 16.671875,7 17.5,7 C18.328125,7 19,6.328125 19,5.5 Z" transform="rotate(-90 10.5 10)"/>
</svg>
