<?xml version="1.0" standalone="no"?>
<!DOCTYPE svg PUBLIC "-//W3C//DTD SVG 1.1//EN" "http://www.w3.org/Graphics/SVG/1.1/DTD/svg11.dtd">
<svg xmlns="http://www.w3.org/2000/svg">
<metadata>Copyright (C) 2014 by original authors @ fontello.com</metadata>
<defs>
<font id="tuleap-services" horiz-adv-x="1000" >
<font-face font-family="tuleap-services" font-weight="400" font-stretch="normal" units-per-em="1000" ascent="850" descent="-150" />
<missing-glyph horiz-adv-x="1000" />
<glyph glyph-name="cvs" unicode="&#xe800;" d="m504 463c4 16 6 35 6 56-35 20-59 58-59 101 0 64 53 117 118 117 65 0 117-53 117-117 0-43-24-81-58-101-1-17-2-32-3-47-12 1-25 2-37 2-30 0-58-4-84-11l0 0z m-167-132c-2-1-5-2-7-2-30-10-63-20-95-35l0 303c35 20 59 58 59 101 0 64-53 117-117 117-65 0-118-53-118-117 0-43 24-81 59-101l0-500c-35-20-59-58-59-101 0-65 53-117 118-117 64 0 117 52 117 117 0 43-24 81-59 101l0 16c0 42 16 61 61 80 6 53 20 99 41 138l0 0z m-102-335c0-32-26-59-58-59-33 0-59 27-59 59 0 32 26 58 59 58 32 0 58-26 58-58z m0 702c0-33-26-59-58-59-33 0-59 26-59 59 0 32 26 58 59 58 32 0 58-26 58-58z m393-78c0-32-27-59-59-59-33 0-59 27-59 59 0 32 26 58 59 58 32 0 59-26 59-58z m-194-291c40 40 91 60 153 60 83 0 144-27 182-81 22-31 33-61 35-92l-104 0c-6 24-15 42-25 54-19 21-47 32-84 32-37 0-67-16-89-46-21-30-32-72-32-127 0-55 11-97 34-124 23-28 52-41 87-41 37 0 64 11 83 35 11 13 19 32 26 57l103 0c-9-54-32-97-69-131-37-33-84-50-141-50-71 0-127 23-168 68-40 45-61 108-61 187 0 86 23 152 70 199z" horiz-adv-x="824" />
<glyph glyph-name="sftp" unicode="&#xe801;" d="m252 65l-115 0c-64 0-116 52-116 115l0 496c0 63 52 115 116 115l165 0c63 0 115-52 115-115l0-17 347 0c63 0 115-52 115-115l0-47-97 0 0 19c0 23-20 43-45 43l-332 0c-25 0-73-7-73 44l0 28c0 23-21 43-45 43l-123 0c-25 0-45-20-45-43l0-431c0-24 20-43 45-43l88 0 0-92 0 0z m365 434c-180 0-325-145-325-324 0-180 145-325 325-325 179 0 324 145 324 325 0 179-145 324-324 324z m66-189c4-1 7-2 2-5-2-2-5 0-7-1 3-1 7-2 6-5 9-6-3-12-9-11 3-1-5-6-5-6-4-1-8-1-10-4-3-4 1-11-4-10-2-4-10-2-14-7 4-4-3-10-7-5-4-1-2-5-5-7 1-2 1-4-1-6 1 1 5-3 6-3-1-2-2-3-4-3 2-5-2-10-5-12-4-3-11-6-13-7-6-6-10-15 1-17 1 0 1-12 1-12 1-4 2-16-5-12-3 2-5 12-6 16-2 4-2 4-5 8-4-5-5-1-9 1-3 2-9 1-11 4-5-4-9-3-10 3-1-3 2-7 1-8-2-4-5-3-7-1-5 3-15-3-20 0 1 0 2-1 3-2-1-4-3-2-5-3-3-2-5-6-7-7 5-9 0-18 0-27 0-7 5-19 11-23 3-2 13-3 17-1 4 2 4 6 5 10 2 5 4 7 9 7 15 1 4-12 2-18-1-4-1-10-2-14 2-1 3 0 5 0 0 1 1 3 1 4 2-4 9-5 11 0 3-5 7-8 8-13 1-5 5-10-1-10-5 0 0-10 1-11 4-8 10-10 17-7 0-3-1-10-5-11-3-1-10 7-8 10-1-1-2-2-3-3-3 5-9 7-12 11-1 1-10 15-8 16-5-2-15 1-19 4-7 4-8 14-17 12-6-1-8-3-15 0-5 2-9 5-14 8-6 3-15 6-17 13-2 5-2 12-5 17-2 4-8 11-13 11 5 0-3 10-4 12-4 4-18 16-15 23 1 1-7 4-8 5 1-4 1-8 3-11 2-3 4-7 6-10 4-6 9-14 8-22-4-1-3 5-4 8-3 5-9 5-11 10 1 0 1 0 2 0 0 6-8 11-7 15-5 4-5 12-8 17-3 4-9 6-13 9-2 1-14 18-10 19-7-2-10 14-9 19 1 4-2 26 4 26-4 0-5 9-4 11 1 2 6-4 6-4 2 1 4 3 4 6-1 3-5 5-8 7-1 1-14 10-15 10 2 2 1 5-1 6-6-5-3 5-6 6-2 1-3 2-4 3 20 33 47 60 80 78 2 0 5 0 8 0 6 0 10-5 14-9 1 2-1 5-2 7 1 2 5 3 8 4 3 0 7 1 10 0-2 3-4 6-7 8 0 0-1-1-1-1-4 3-11-1-15-3-3-1-5-3-8-4-1-1-2-1-4 0 10 5 21 10 32 14 3-1 5-4 8-6-2 1-2-7-2-8 4-5 12-2 17-2 0 0 16-2 13 2 2-4 2-9 5-12 3 3-1 7 1 10 0 1 7 3 9 4 2 2-2 4-3 5-4 2-17 3-10 11 2 3 11 2 13 0 4-2 8-6 3-10 2 0 14-3 12-8 1 2 3 6 6 6 3-1 3-8 5-10 5-9 13 9 14 8-6 3 6 6 9 5 2-1 6-10 2-9 3-4 4-12-3-11-5 0-11 7-15 1-3-3-4-8-8-12-4-4-11-4-17-3 3-1-5-9-6-10-2-3-3-5-4-8 0-4 0-8-1-11 5 2 8-9 6-10 7 1 13 1 20-1 5-2 12-4 14-9 2 2 8 1 10 0 4-2 5-6 6-10 1-6 5-14 11-12 1 1 9 5 6 7-3 2-6 9-3 12 3 4 9 5 11 10 3 8-8 7-8 13 0 3 4 4 4 9 0 3-5 10-1 13 3 2 20-2 23-4 3-2 13-5 13-8l-1 0c2-2 5-8 0-9 3 1 12-3 6-5 2 1 4 0 6 2 2 1 3 4 7 2 0-1 4 7 6 7 3 0 4-5 5-7 2-3 5-4 7-8 2-5 1-11 9-13 2-1 9 3 9-2 1 1 2 2 2 2 0-4 2-10 8-9 0 0 0-7-1-8-2-3-7-3-10-4-1-1-9-8-8-9-5 5-12 5-18 4-6-1-12-2-18-4-2-2-5-3-7-6-1-1-3-7-5-8 4 1 5 5 8 7 4 2 10 6 15 4z m-88-417c0 11 12 19 11 30-8 2-10 9-9 18 2 12 12 20 21 28 8 8 11 24 8 34-3 17-3 35-6 52 1-5 13-3 15-9 3 5 4 11 8 16 2 5 7 6 12 10 7 4 22 20 30 10 7-8-11-17-1-25 2 5 0 14 5 20 12 12 19-2 31-5 12-4 16-8 25-16-3 3 11 8 13 9 13 2 19-5 28-12 10-8 25-12 24-27 7-1 11-3 17-5 6-3 13-2 18-6-65-68-152-116-248-133-1 3-2 10-2 11z" horiz-adv-x="941" />
<glyph glyph-name="forum" unicode="&#xe802;" d="m262 497c0 12 1 23 2 35-17-8-35-12-53-12-53 0-95 44-103 44-50 0-49-143-49-185 0-58 37-84 77-84l53 0c27 42 64 66 105 68-20 39-32 86-32 134z m489-202c-18 0-83-67-188-67-105 0-170 67-188 67-154 0-182-168-182-277 0-79 57-126 141-126l459 0c84 0 140 47 140 126 0 109-28 277-182 277z m-511 538c-63 0-114-51-114-113 0-63 51-114 114-114 62 0 113 51 113 114 0 62-51 113-113 113z m500-336c0 98-79 177-177 177-97 0-176-79-176-177 0-97 79-176 176-176 98 0 177 79 177 176z m327-118c0 42 1 185-49 185-8 0-50-44-103-44-18 0-36 4-53 12 1-12 2-23 2-35 0-48-11-95-32-134 41-2 79-26 105-68l53 0c40 0 77 26 77 84z m-67 337c0 64-53 117-118 117-64 0-117-53-117-117 0-65 53-118 117-118 65 0 118 53 118 118z" horiz-adv-x="1118" />
<glyph glyph-name="wiki" unicode="&#xe803;" d="m385 717l0-40c-18-1-33-5-45-11-12-6-17-18-17-37 0-6 0-12 2-18 2-6 5-14 9-27l120-316 9 0 105 266c0 4-4 20-13 48-8 28-15 47-21 58-8 15-16 24-24 28-8 4-23 7-47 9l0 40 378 0 0-40c-23-1-42-3-56-8-14-5-21-14-21-28 0-8 1-17 3-27 2-10 6-24 11-41l82-290 9 0 116 309c2 5 3 10 4 15 1 4 2 9 2 13 0 23-7 37-20 44-14 7-33 11-59 13l0 40 219 0 0-40c-19-3-35-10-46-20-11-9-23-29-34-60l-251-647-37 0-163 490-8 0-196-490-39 0-239 604c-20 50-35 82-45 96-9 14-25 23-47 27l0 40 359 0z" horiz-adv-x="1154" />
<glyph glyph-name="svn" unicode="&#xe804;" d="m545 299c-1-1-2-2-3-3l0 0c1 1 2 2 3 3-24-1-43-6-57-16-16-11-24-26-24-46 0-18 8-31 23-40 10-6 32-13 65-21l85-20c37-9 65-22 84-37 30-23 44-57 44-102 0-46-17-84-51-114-35-30-84-45-147-45-64 0-115 14-152 44-36 30-55 71-55 123l99 0c3-23 9-40 18-51 17-21 46-31 86-31 25 0 44 3 60 8 28 10 43 30 43 58 0 17-7 30-22 39-14 8-36 16-67 23l-52 12c-52 12-87 24-107 38-33 23-50 60-50 109 0 45 16 82 48 111 33 30 80 45 142 45 52 0 97-14 133-42 37-28 56-69 58-122l-99 0c-2 30-15 52-39 64-16 9-36 13-60 13-2 0-4 0-6 0z m-44 152c5 17 7 38 7 62-35 20-59 59-59 103 0 66 53 119 118 119 65 0 118-53 118-119 0-44-24-83-59-103 0-22-2-42-5-60-15 2-31 2-47 2-26 0-50-1-73-4l0 0z m-190-137c-25-8-52-18-77-30l0 308c35 21 58 59 58 103 0 66-52 120-117 120-65 0-118-54-118-120 0-44 24-82 59-103l0-509c-35-20-59-59-59-103 0-66 53-119 118-119 65 0 117 53 117 119 0 0 0 1 0 1 0 4 0 8 0 13-5 38-27 71-58 89l0 16c0 49 21 68 82 91-9 20-13 43-13 69 0 19 3 38 8 55l0 0z m181-55c3 1 5 3 7 4-3 0-5-1-7-4l0 0z m-258-279c0-33-27-60-59-60-33 0-59 27-59 60 0 33 26 60 59 60 32 0 59-27 59-60z m0 715c0-32-27-59-59-59-33 0-59 27-59 59 0 33 26 60 59 60 32 0 59-27 59-60z m392-79c0-33-27-60-59-60-32 0-59 27-59 60 0 33 27 60 59 60 32 0 59-27 59-60z" horiz-adv-x="765" />
<glyph glyph-name="help" unicode="&#xe805;" d="m54 543q-1 8 3 16 89 148 259 148 45 0 90-17t81-46 59-72 23-88q0-30-8-57t-20-42-31-33-32-25-34-19q-23-13-38-37t-15-37q0-10-7-18t-16-9h-134q-8 0-14 10t-6 21v25q0 47 37 88t79 60q33 15 47 32t14 42q0 23-26 41t-60 18q-36 0-60-16-20-14-60-64-7-9-17-9-7 0-14 4l-91 70q-8 6-9 14z m160-528v134q0 9 7 16t16 6h134q8 0 15-6t7-16v-134q0-9-7-16t-15-6h-134q-9 0-16 6t-7 16z" horiz-adv-x="571.4" />
<glyph glyph-name="git" unicode="&#xe806;" d="m438 439c7 20 11 44 11 74-35 20-58 57-58 101 0 65 52 117 117 117 64 0 117-52 117-117 0-44-24-81-59-101 0-21-1-41-4-59-6 0-12 0-18 0-38 0-74-5-106-15l0 0z m-144-109c-8-3-16-5-24-8-30-9-63-19-94-35l0 304c35 20 58 58 58 101 0 65-52 117-117 117-64 0-117-52-117-117 0-43 24-81 59-101l0-501c-35-20-59-58-59-101 0-65 53-117 117-117 65 0 117 52 117 117 0 43-23 81-58 101l0 16c0 43 17 63 63 82 8 54 27 102 55 142l0 0z m-118-341c0-33-26-59-59-59-32 0-58 26-58 59 0 32 26 59 58 59 33 0 59-27 59-59z m0 703c0-32-26-59-59-59-32 0-58 27-58 59 0 32 26 59 58 59 33 0 59-27 59-59z m390-78c0-33-26-59-58-59-33 0-59 26-59 59 0 32 26 58 59 58 32 0 58-26 58-58z m90-394c-8 34-27 57-57 70-17 8-36 11-56 11-40 0-72-15-98-45-25-29-38-74-38-135 0-60 14-103 41-128 28-25 59-38 94-38 35 0 63 10 85 30 22 20 36 46 41 78l-114 0 0 83 205 0 0-265-68 0-10 62c-20-24-38-40-54-50-27-16-60-25-100-25-65 0-119 23-160 68-44 46-65 108-65 186 0 80 22 144 66 192 43 48 101 72 173 72 63 0 113-16 151-47 38-32 60-72 65-119l-101 0z" horiz-adv-x="765" />
<glyph glyph-name="mail-alt" unicode="&#xe807;" d="m0 11v443q25-28 56-49 202-137 278-192 32-24 51-37t53-27 61-13h2q28 0 61 13t53 27 51 37q95 68 278 192 32 22 56 49v-443q0-37-26-63t-63-27h-822q-36 0-63 27t-26 63z m0 595q0 43 23 72t66 29h822q36 0 62-26t27-63q0-44-27-84t-68-69q-210-146-262-181-5-4-23-17t-30-22-29-18-33-15-27-5h-2q-12 0-27 5t-33 15-29 18-30 22-23 17q-51 35-147 101t-114 80q-35 23-65 64t-31 77z" horiz-adv-x="1000" />
<glyph glyph-name="home" unicode="&#xe808;" d="m15 348q0 8 6 12l401 334q18 15 42 15t43-15l136-114v109q0 8 5 13t13 5h107q8 0 13-5t5-13v-227l122-102q5-5 6-12t-4-13l-34-41q-5-5-12-7h-2q-7 0-12 4l-386 322-386-322q-7-4-13-4-7 2-12 7l-35 41q-4 5-3 13z m128-319v267q0 1 0 2t0 2l321 264 321-264q1-1 1-4v-267q0-15-11-26t-25-10h-214v214h-143v-214h-214q-15 0-25 10t-11 26z" horiz-adv-x="928.6" />
<glyph glyph-name="chat-empty" unicode="&#xe809;" d="m0 421q0 78 53 144t143 104 197 38 197-38 143-104 53-144-53-143-143-104-197-38q-48 0-98 9-70-50-155-72-21-5-48-9h-2q-6 0-12 5t-6 11q-1 2-1 4t1 4 1 3l1 3t2 3 2 3 3 2 2 3q3 3 13 14t15 16 12 17 14 21 11 25q-69 40-108 98t-40 125z m71 0q0-45 30-88t83-73l54-32-19-46q19 11 34 21l25 18 30-6q43-8 85-8 85 0 159 29t118 79 44 106-44 107-118 79-159 29-160-29-118-79-44-107z m273-354q32-3 49-3 90 0 172 25t148 72q69 52 107 119t37 141q0 43-13 85 72-39 114-99t42-128q0-67-40-126t-108-98q5-14 11-25t14-21 13-16 14-17 13-14q0 0 2-2t3-3 2-3 2-3l1-3t1-3 1-4-1-3q-2-8-7-13t-13-4q-27 4-48 9-85 23-155 72-50-9-98-9-151 0-263 74z" horiz-adv-x="1000" />
<glyph glyph-name="rss" unicode="&#xe80a;" d="m0 100q0 45 31 76t76 31 76-31 31-76-31-76-76-31-76 31-31 76z m0 282v75q0 16 12 26 9 10 24 10h3q89-7 170-45t145-101q63-63 101-145t45-171q1-15-9-26-11-12-27-12h-75q-14 0-24 9t-11 23q-12 128-103 219t-219 103q-14 1-23 11t-9 24z m0 281v80q0 15 11 26 10 10 25 10h1q147-8 280-67t238-164q104-104 164-238t67-280q1-15-10-26-10-11-26-11h-80q-14 0-25 10t-11 23q-6 120-56 228t-129 188-188 129-227 57q-14 0-24 11t-10 24z" horiz-adv-x="785.7" />
<glyph glyph-name="cog-alt" unicode="&#xe80b;" d="m0 299v103q0 6 4 11t9 6l86 14q7 19 18 42-19 27-50 64-4 6-4 11 0 7 4 12 12 16 46 49t44 33q6 0 12-4l64-50q19 10 43 18 6 60 13 86 3 13 16 13h104q6 0 11-4t6-10l13-85q19-6 41-17l66 49q5 4 11 4 7 0 12-4 81-75 81-90 0-5-4-10-7-9-24-30t-25-34q13-27 19-46l85-12q5-2 9-6t4-11v-103q0-6-4-11t-9-6l-86-14q-6-19-18-42 19-27 50-64 4-6 4-11 0-7-4-11-13-17-46-50t-44-33q-6 0-11 4l-64 50q-21-11-43-17-6-60-13-87-4-13-17-13h-104q-6 0-11 4t-5 10l-13 85q-19 6-42 18l-66-50q-4-4-11-4-6 0-12 4-80 75-80 90 0 5 4 10 5 8 23 30t26 34q-13 24-20 46l-85 13q-5 1-9 5t-4 11z m214 51q0-59 42-101t101-42 101 42 42 101-42 101-101 42-101-42-42-101z m429-325v78q0 9 83 18 7 16 17 29-29 63-29 77 0 2 3 4 2 1 19 11t33 19 17 9q4 0 25-26t29-38q12 1 17 1t17-1q28 40 51 63l4 1q2 0 69-39 2-2 2-4 0-14-28-77 9-13 16-29 83-9 83-18v-78q0-9-83-17-6-15-16-29 28-63 28-77 0-2-2-4-68-40-69-40-5 0-26 27t-29 37q-11-1-17-1t-17 1q-7-11-29-37t-25-27q-1 0-69 40-3 2-3 4 0 14 29 77-10 14-17 29-83 8-83 17z m0 572v78q0 9 83 17 7 16 17 29-29 63-29 77 0 2 3 4 2 1 19 11t33 19 17 9q4 0 25-26t29-38q12 2 17 2t17-2q28 40 51 63l4 1q2 0 69-39 2-2 2-4 0-14-28-77 9-13 16-29 83-8 83-17v-78q0-9-83-18-6-15-16-29 28-63 28-77 0-2-2-4-68-39-69-39-5 0-26 26t-29 38q-11-1-17-1t-17 1q-7-12-29-38t-25-26q-1 0-69 39-3 2-3 4 0 14 29 77-10 14-17 29-83 9-83 18z m143-533q0-29 21-50t50-21 51 21 21 50q0 29-22 51t-50 21-50-21-21-51z m0 572q0-30 21-51t50-21 51 21 21 51q0 29-22 50t-50 21-50-21-21-50z" horiz-adv-x="1071.4" />
<glyph glyph-name="folder-open" unicode="&#xe80c;" d="m0 118v536q0 51 37 88t88 37h179q51 0 88-37t37-88v-18h303q51 0 88-37t37-88v-90h-464q-53 0-110-26t-92-67l-188-221-2-3q0 2-1 7t0 7z m41-94q0 17 17 37l188 221q24 28 67 48t80 20h607q19 0 34-7t15-24q0-18-18-37l-187-221q-24-28-67-48t-81-20h-607q-19 0-33 7t-15 24z" horiz-adv-x="1071.4" />
<glyph glyph-name="list-numbered" unicode="&#xe80d;" d="m8 237q0 29 14 52t31 38 37 27 31 24 14 25q0 14-9 22t-22 7q-25 0-45-32l-47 33q13 28 40 44t59 16q40 0 68-23t28-63q0-28-19-51t-42-36-42-28-20-30h71v34h59v-89h-202q-4 20-4 30z m3-350l31 49q28-25 60-25 16 0 28 8t12 24q0 35-59 31l-14 31q4 6 18 24t24 31 20 21v1q-9 0-27-1t-27 0v-30h-59v85h186v-49l-53-65q28-6 45-27t17-49q0-45-31-70t-75-26q-60 0-96 37z m8 887l76 71h59v-225h60v-56h-187v56h60q0 22 0 68t1 67v7h-1q-5-10-28-30z m267-763v107q0 8 5 13t13 5h678q7 0 13-6t5-12v-107q0-8-5-13t-13-5h-678q-8 0-13 5t-5 13z m0 285v108q0 7 5 12t13 5h678q7 0 13-5t5-12v-108q0-7-5-12t-13-5h-678q-8 0-13 5t-5 12z m0 286v107q0 8 5 13t13 5h678q7 0 13-5t5-13v-107q0-7-5-12t-13-6h-678q-8 0-13 6t-5 12z" horiz-adv-x="1000" />
<glyph glyph-name="table" unicode="&#xe80e;" d="m0 82v607q0 37 26 63t63 27h750q37 0 63-27t27-63v-607q0-37-27-63t-63-26h-750q-36 0-63 26t-26 63z m71 0q0-8 5-13t13-5h179q8 0 13 5t5 13v107q0 8-5 13t-13 5h-179q-7 0-13-5t-5-13v-107z m0 214q0-7 5-12t13-5h179q8 0 13 5t5 12v108q0 7-5 12t-13 5h-179q-7 0-13-5t-5-12v-108z m0 215q0-8 5-13t13-5h179q8 0 13 5t5 13v107q0 8-5 13t-13 5h-179q-7 0-13-5t-5-13v-107z m286-429q0-8 5-13t13-5h179q7 0 12 5t5 13v107q0 8-5 13t-12 5h-179q-8 0-13-5t-5-13v-107z m0 214q0-7 5-12t13-5h179q7 0 12 5t5 12v108q0 7-5 12t-12 5h-179q-8 0-13-5t-5-12v-108z m0 215q0-8 5-13t13-5h179q7 0 12 5t5 13v107q0 8-5 13t-12 5h-179q-8 0-13-5t-5-13v-107z m286-429q0-8 5-13t13-5h178q8 0 13 5t5 13v107q0 8-5 13t-13 5h-178q-8 0-13-5t-5-13v-107z m0 214q0-7 5-12t13-5h178q8 0 13 5t5 12v108q0 7-5 12t-13 5h-178q-8 0-13-5t-5-12v-108z m0 215q0-8 5-13t13-5h178q8 0 13 5t5 13v107q0 8-5 13t-13 5h-178q-8 0-13-5t-5-13v-107z" horiz-adv-x="928.6" />
<glyph glyph-name="angle-double-right" unicode="&#xe80f;" d="m7 82q0 7 6 13l219 219-219 220q-6 5-6 12t6 13l28 28q5 6 13 6t12-6l260-260q6-5 6-13t-6-13l-260-260q-5-5-12-5t-13 5l-28 28q-6 6-6 13z m215 0q0 7 5 13l219 219-219 220q-5 5-5 12t5 13l28 28q6 6 13 6t13-6l260-260q5-5 5-13t-5-13l-260-260q-6-5-13-5t-13 5l-28 28q-5 6-5 13z" horiz-adv-x="571.4" />
<glyph glyph-name="docs" unicode="&#xe810;" d="m0 118v375q0 22 11 49t27 42l228 228q15 16 42 27t49 11h232q23 0 38-16t16-38v-183q38 23 71 23h232q23 0 38-16t16-38v-678q0-23-16-38t-38-16h-535q-23 0-38 16t-16 38v160h-303q-23 0-38 16t-16 38z m71 18h286v143q0 22 11 49t27 42l176 176v233h-214v-233q0-22-15-38t-38-15h-233v-357z m48 428h167v167z m310-643h500v643h-215v-232q0-22-15-38t-38-15h-232v-358z m47 429h167v167z" horiz-adv-x="1000" />
<glyph glyph-name="arrows-cw" unicode="&#xe811;" d="m0-7v250q0 14 11 25t25 11h250q14 0 25-11t10-25-10-25l-77-77q40-37 90-57t105-20q74 0 139 37t104 99q6 10 29 66 5 13 17 13h107q8 0 13-6t5-12q0-3 0-4-36-150-150-243t-267-93q-81 0-157 31t-136 88l-72-72q-11-11-25-11t-25 11-11 25z m10 446v4q36 150 151 243t268 93q81 0 158-31t137-88l72 72q11 11 25 11t26-11 10-25v-250q0-14-10-25t-26-11h-250q-14 0-25 11t-10 25 10 25l77 77q-82 77-194 77-75 0-140-37t-104-99q-6-10-29-66-5-13-17-13h-111q-7 0-13 6t-5 12z" horiz-adv-x="857.1" />
<glyph glyph-name="mediawiki" unicode="&#xe812;" d="m770 493l-48 170c-5 16-8 29-10 39-1 9-2 17-2 25 0 13 6 21 19 25 13 5 30 8 52 9l0 36-351 0 0-36c22-3 36-6 44-9 7-4 14-12 22-26 5-10 12-28 20-54 7-27 11-41 11-45l-97-247-8 0-111 294c-5 11-8 20-9 25-2 5-2 11-2 17 0 17 5 28 16 34 10 5 24 9 41 11l0 36-333 0 0-36c21-4 35-13 44-26 9-13 23-42 41-89l222-561 37 0 182 455 7 0 86-259 0 212 127 0 0 0z m74 0l71 188c1 5 3 9 4 14 0 4 1 8 1 12 0 21-6 35-19 41-12 6-30 11-54 13l0 36 203 0 0-36c-18-4-32-10-43-19-10-9-21-28-31-56l-75-193-57 0z m171-52l152 0 0-505-98 0 0 342c0 9 0 23 0 41 0 18 1 31 1 41l-96-424-103 0-95 424c0-10 0-23 1-41 0-18 0-32 0-41l0-342-98 0 0 505 153 0 92-397 91 397z" horiz-adv-x="1286" />
<glyph glyph-name="ok" unicode="&#xe813;" d="m68 332q0 22 15 38l76 76q16 16 38 16t38-16l164-165 366 367q16 16 38 16t38-16l76-76q15-16 15-38t-15-38l-404-404-76-76q-16-15-38-15t-38 15l-76 76-202 202q-15 16-15 38z" horiz-adv-x="1000" />
</font>
</defs>
</svg>
